<?xml version="1.0" encoding="UTF-8"?>
<svg version="1.1" xmlns="http://www.w3.org/2000/svg" width="2045" height="335">
<path d="M0 0 C0.64066406 0.43054687 1.28132812 0.86109375 1.94140625 1.3046875 C9.6914085 7.16486817 14.36498699 16.5583756 16 26 C17.29418841 37.64634052 15.80748658 47.30659065 11 58 C10.52304687 59.09183594 10.04609375 60.18367188 9.5546875 61.30859375 C8.40357872 63.8903663 7.22230748 66.45135887 6 69 C6.58789307 69.01458252 7.17578613 69.02916504 7.78149414 69.04418945 C36.10195368 69.82572919 60.76259157 75.45108829 81.85546875 95.7890625 C104.37929251 120.01376997 105.43951424 149.66408316 105.61126709 180.99279785 C105.64756504 187.12408585 105.70822272 193.25517413 105.76975632 199.38625145 C105.78872895 201.5133853 105.8005288 203.64046462 105.81118774 205.76765442 C105.82658096 207.69698067 105.82658096 207.69698067 105.84228516 209.6652832 C105.84878082 210.79537308 105.85527649 211.92546295 105.86196899 213.08979797 C105.97972455 215.57251892 106.27732195 217.63490659 107 220 C107.721875 219.360625 108.44375 218.72125 109.1875 218.0625 C112.03236223 215.9762677 113.60649159 215.54182067 117 215 C116.93852439 203.11594646 116.86123009 191.23210774 116.76428509 179.34828758 C116.7197447 173.82888655 116.68045338 168.30955656 116.65356445 162.79003906 C116.62736757 157.45361271 116.58685168 152.11746219 116.53681374 146.78120804 C116.52025506 144.75532107 116.50867287 142.72938651 116.50238609 140.70344162 C117.18366541 120.52067683 117.18366541 120.52067683 109 103 C106.78403765 101.2801265 106.78403765 101.2801265 104.4375 99.875 C97.51951739 95.55855216 97.51951739 95.55855216 96 91 C95.582072 84.89182148 96.44367836 80.85403152 99.0625 75.375 C99.53623047 74.3396814 99.53623047 74.3396814 100.01953125 73.28344727 C102.63208592 67.62744782 105.41376452 62.05445225 108.2578125 56.51171875 C109.47202733 54.06423191 110.605252 51.65008476 111.6796875 49.14453125 C119.15725074 31.81746626 130.53488449 23.34273788 147.73828125 16.359375 C158.87408642 12.56317301 169.74875102 11.5111308 181.40551758 11.60888672 C183.69607369 11.62506054 185.9848854 11.60889263 188.27539062 11.58984375 C197.64725125 11.57650424 206.92001785 11.78613374 215.0625 16.9375 C219.05716733 21.18988781 219.28973609 24.927134 219.25828552 30.59994507 C219.26196123 31.36935979 219.26563693 32.13877452 219.26942402 32.93150485 C219.27941133 35.51218378 219.27525164 38.09264754 219.27124023 40.67333984 C219.27562716 42.52311431 219.2809292 44.3728868 219.28707886 46.22265625 C219.29858745 50.20919376 219.30403895 54.19567805 219.30496025 58.1822319 C219.30690147 64.49577409 219.32496046 70.80920657 219.34571838 77.12271118 C219.39491222 92.81346626 219.42572879 108.50425135 219.44702148 124.19506836 C219.4635777 136.37315793 219.48650549 148.55115389 219.53004223 160.72918093 C219.55172976 166.99415978 219.55988457 173.25896042 219.55764949 179.52397418 C219.559327 183.44049858 219.57344225 187.35690871 219.59086227 191.27339172 C219.59641953 193.07679532 219.59698645 194.88022303 219.59192467 196.68362808 C218.90033299 215.02371288 218.90033299 215.02371288 226 231 C227.11375 231.45375 228.2275 231.9075 229.375 232.375 C234.1323287 234.50759562 236.63987162 237.27974324 239 242 C242.48739392 261.02809308 233.29821692 276.59970503 224.97039795 293.04382324 C223.99591522 295.00823429 223.0692578 296.98936473 222.15283203 298.98144531 C221.70430626 299.93544724 221.70430626 299.93544724 221.24671936 300.90872192 C220.43449209 302.63937312 219.63580567 304.37636116 218.83813477 306.11376953 C216.54662677 309.7118845 214.79341956 311.01140553 211 313 C207.55172521 313.56750696 204.15613318 313.53677608 200.66772461 313.50170898 C199.64100143 313.50711197 198.61427826 313.51251495 197.55644226 313.51808167 C194.17144721 313.53056251 190.78730366 313.51408259 187.40234375 313.49609375 C185.04635066 313.49624874 182.69035731 313.49773772 180.33436584 313.50050354 C175.40077419 313.50188721 170.46747337 313.48933339 165.53393555 313.46655273 C159.20975319 313.438153 152.88605345 313.44091027 146.56183529 313.45364285 C141.69853085 313.46059676 136.835338 313.45281421 131.97204781 313.44038582 C129.64004507 313.43586965 127.30803036 313.43553595 124.97602654 313.43945122 C121.71806129 313.44236093 118.46076197 313.42586765 115.20288086 313.40405273 C113.75721741 313.41080521 113.75721741 313.41080521 112.28234863 313.41769409 C107.26786164 313.3618953 104.173989 313.05974469 100 310 C97.89868983 310.13322932 97.89868983 310.13322932 96 311 C94.78570313 311.45375 93.57140625 311.9075 92.3203125 312.375 C90.21733428 313.18597837 88.11705036 314.00312676 86.01953125 314.828125 C85.33503906 315.09109375 84.65054688 315.3540625 83.9453125 315.625 C83.33187988 315.86476563 82.71844727 316.10453125 82.08642578 316.3515625 C75.01813712 318.54830655 67.69500859 318.21934028 60.375 318.25 C58.56322266 318.2809375 58.56322266 318.2809375 56.71484375 318.3125 C40.4910084 318.38235505 24.84430842 313.60502946 13 302 C13 301.34 13 300.68 13 300 C8.32278625 302.64121918 8.32278625 302.64121918 3.73046875 305.42578125 C-11.55109015 314.9798415 -26.98133311 318.575692 -44.9375 318.375 C-46.25492188 318.36484863 -47.57234375 318.35469727 -48.9296875 318.34423828 C-69.86538678 318.00966132 -88.18451864 312.73266726 -103.41796875 297.59765625 C-112 288.20275501 -112 288.20275501 -112 284 C-112.66 284 -113.32 284 -114 284 C-114.33 285.155 -114.66 286.31 -115 287.5 C-116.60476257 292.26865465 -118.63803599 296.78270919 -120.8125 301.3125 C-121.13154297 302.00601562 -121.45058594 302.69953125 -121.77929688 303.4140625 C-122.26946289 304.40986328 -122.26946289 304.40986328 -122.76953125 305.42578125 C-123.05417236 306.01786377 -123.33881348 306.60994629 -123.63208008 307.2199707 C-126.19980429 310.56126595 -129.07000091 312.67599443 -133.22442341 313.37343311 C-135.92888972 313.52005524 -138.60800391 313.5404173 -141.31640625 313.51757812 C-142.34152313 313.5245874 -143.36664001 313.53159668 -144.42282104 313.53881836 C-147.8029916 313.5563877 -151.18232129 313.54477878 -154.5625 313.53125 C-156.91609864 313.5339452 -159.26969619 313.53782786 -161.62329102 313.54284668 C-166.5526796 313.54874032 -171.48177799 313.54018272 -176.41113281 313.52148438 C-182.72633463 313.49869536 -189.04085645 313.5118191 -195.35603333 313.53577423 C-200.21509922 313.55023556 -205.07400418 313.54562458 -209.93307495 313.53526306 C-212.26146526 313.53259673 -214.58987022 313.53586223 -216.91824341 313.54518127 C-220.17375333 313.55535191 -223.42816549 313.53983724 -226.68359375 313.51757812 C-227.64377411 313.52567505 -228.60395447 313.53377197 -229.5932312 313.54211426 C-235.36498848 313.46908788 -238.57471291 312.79057287 -243 309 C-245.9731163 304.70490303 -245.36803848 299.78317996 -245.375 294.75 C-245.39949219 293.83347656 -245.42398437 292.91695313 -245.44921875 291.97265625 C-245.4768789 285.50940219 -244.20368242 281.59694715 -241 276 C-241 275.34 -241 274.68 -241 274 C-241.56847656 274.78503906 -242.13695312 275.57007813 -242.72265625 276.37890625 C-259.25378242 298.87117308 -281.30542866 311.27443847 -308.7265625 315.5859375 C-336.6010099 318.80052085 -364.93542773 314.3536902 -388.07421875 297.80078125 C-390.80689028 295.61693078 -393.41994632 293.36167923 -396 291 C-397.20269531 289.90171875 -397.20269531 289.90171875 -398.4296875 288.78125 C-403.75563507 283.68842472 -407.99206706 278.17298996 -412 272 C-412.39566162 272.4218457 -412.79132324 272.84369141 -413.19897461 273.27832031 C-431.7023101 292.82921457 -452.69954557 307.10399568 -479 314 C-479.71736328 314.19464844 -480.43472656 314.38929688 -481.17382812 314.58984375 C-515.44509091 323.4545998 -554.24315453 319.88756729 -585.25 302.75 C-608.33722594 288.38171229 -626.0628119 270.03400831 -637 245 C-637.43119141 244.01580078 -637.43119141 244.01580078 -637.87109375 243.01171875 C-648.53775718 218.09006734 -650.15961224 185.97058616 -642 160 C-641.62230469 158.76378906 -641.24460937 157.52757812 -640.85546875 156.25390625 C-636.99169679 145.03612725 -631.51976101 134.48267851 -626.3046875 123.84765625 C-623.76453054 118.64259597 -621.38635462 113.3898791 -619.08081055 108.07763672 C-612.59703097 93.20918409 -604.32050974 80.65992537 -593 69 C-592.27941406 68.2059375 -591.55882812 67.411875 -590.81640625 66.59375 C-574.64000398 49.35346968 -552.87280279 38.289137 -530 33 C-529.28618164 32.81526123 -528.57236328 32.63052246 -527.83691406 32.44018555 C-518.61151712 30.36769368 -509.17146959 30.66367448 -499.76806641 30.68432617 C-496.77078581 30.68747814 -493.77450236 30.66399651 -490.77734375 30.63867188 C-467.44360495 30.56024909 -445.26557907 35.52439005 -427 51 C-427 51.66 -427 52.32 -427 53 C-426.40574219 53.27328125 -425.81148437 53.5465625 -425.19921875 53.828125 C-413.83028133 59.88617336 -405.69658446 76.18280629 -402 88 C-396.54991263 109.43287422 -400.50851934 129.1401324 -409 149 C-408.64808594 148.20940186 -408.29617188 147.41880371 -407.93359375 146.60424805 C-406.59423092 143.61188242 -405.24348091 140.62518191 -403.88525391 137.64135742 C-403.30492376 136.36050189 -402.72891539 135.07767749 -402.15771484 133.79272461 C-398.30396564 125.13364139 -393.89638835 117.47692133 -388 110 C-387.23171875 108.96746094 -386.4634375 107.93492188 -385.671875 106.87109375 C-369.69166001 86.63598412 -346.36758592 75.22107121 -321 72 C-290.92837069 70.56915324 -261.27249105 73.45611397 -237.88378906 94.35864258 C-235.54147754 96.52589943 -233.25992944 98.7471661 -231 101 C-230.23042969 101.76699219 -229.46085937 102.53398438 -228.66796875 103.32421875 C-228.11753906 103.87722656 -227.56710937 104.43023437 -227 105 C-226.47212891 104.03900391 -226.47212891 104.03900391 -225.93359375 103.05859375 C-217.26792952 87.87671203 -203.99722507 80.02435146 -187.49438477 74.91455078 C-178.14043988 72.37684961 -169.49719443 71.39359456 -159.81591797 71.53344727 C-157.60439523 71.56277323 -155.39523419 71.55391646 -153.18359375 71.54101562 C-144.20883623 71.55441677 -135.67977964 71.88014691 -128 77 C-127.34515625 75.89785156 -126.6903125 74.79570313 -126.015625 73.66015625 C-117.04520755 58.69449317 -107.47205536 44.18804347 -96 31 C-95.34378662 30.23526367 -95.34378662 30.23526367 -94.67431641 29.45507812 C-72.38060913 3.63560206 -32.95896423 -22.70384558 0 0 Z M-533.4375 130.5703125 C-536.47962878 135.30082275 -536.70688173 140.49737066 -537 146 C-537.05671875 146.85851562 -537.1134375 147.71703125 -537.171875 148.6015625 C-537.47228382 157.82411318 -535.85092926 167.24357442 -533 176 C-531.34572553 172.86264708 -530.10780206 169.67305577 -528.890625 166.34375 C-525.34776029 157.04177922 -520.95442479 148.1505869 -516.63671875 139.18945312 C-515.56047659 136.95140184 -514.49096289 134.71022538 -513.421875 132.46875 C-513.09274109 131.79162964 -512.76360718 131.11450928 -512.42449951 130.41687012 C-510.78042254 126.96582201 -509.5341239 123.79537867 -509 120 C-518.79895467 119.09268938 -526.78211765 123.45871443 -533.4375 130.5703125 Z M-89 130 C-96.79199123 134.60705185 -103.46814783 139.74129801 -110 146 C-110.9075 146.845625 -111.815 147.69125 -112.75 148.5625 C-121.36491948 157.89532943 -123.31227067 165.5572541 -123.30078125 178.11328125 C-123.30506638 179.16347946 -123.3093515 180.21367767 -123.31376648 181.29570007 C-123.31948602 183.50856814 -123.32002765 185.721455 -123.31567383 187.93432617 C-123.31251941 191.29183588 -123.33598461 194.64845868 -123.36132812 198.00585938 C-123.36360214 200.16666557 -123.36430414 202.3274741 -123.36328125 204.48828125 C-123.372491 205.47822586 -123.38170074 206.46817047 -123.39118958 207.4881134 C-123.33423081 216.21523706 -122.45028956 225.54971044 -116 232 C-112.69190584 231.27005913 -112.69190584 231.27005913 -111.23828125 227.87646484 C-110.58562823 226.49296494 -109.94447524 225.10400435 -109.3125 223.7109375 C-108.96872314 222.97428864 -108.62494629 222.23763977 -108.27075195 221.47866821 C-107.17073829 219.11516837 -106.08538268 216.74524889 -105 214.375 C-104.26915567 212.8003509 -103.53739524 211.22612664 -102.8046875 209.65234375 C-100.85086206 205.44335798 -98.90428498 201.23167009 -97 197 C-96.70359619 196.34364563 -96.40719238 195.68729126 -96.10180664 195.01104736 C-94.50943933 191.63808466 -94.50943933 191.63808466 -94.0625 188 C-95.23766063 185.49299066 -96.60695209 183.13581279 -98.0625 180.78125 C-100.17169255 176.77378416 -100.19043659 172.85218316 -100.25 168.375 C-100.27578125 167.22773438 -100.3015625 166.08046875 -100.328125 164.8984375 C-99.59609952 156.20127767 -96.12570734 148.71473605 -92.25 141 C-91.41466029 139.33693766 -90.5861387 137.67042691 -89.765625 136 C-89.40243164 135.278125 -89.03923828 134.55625 -88.66503906 133.8125 C-88.44557617 133.214375 -88.22611328 132.61625 -88 132 C-88.495 131.01 -88.495 131.01 -89 130 Z M-412 153 C-411 155 -411 155 -411 155 Z M-413 155 C-412 157 -412 157 -412 157 Z M-414 157 C-413 159 -413 159 -413 159 Z M-415 159 C-416.12516085 160.83284443 -416.12516085 160.83284443 -417 163 C-416.67 163.99 -416.34 164.98 -416 166 C-414.87483915 164.16715557 -414.87483915 164.16715557 -414 162 C-414.33 161.01 -414.66 160.02 -415 159 Z M-322 163 C-322.56319113 183.69943999 -321.81328486 206.06130817 -310 224 C-309.67 224 -309.34 224 -309 224 C-308.12164017 217.31387201 -307.95285294 211.07572983 -308.6875 204.375 C-308.77926514 203.51326172 -308.87103027 202.65152344 -308.96557617 201.76367188 C-310.42176819 189.24573258 -312.55150396 171.98783117 -322 163 Z M-418 166 C-417 168 -417 168 -417 168 Z M-419 168 C-418 170 -418 170 -418 170 Z M-420 170 C-420.235979 170.51796143 -420.47195801 171.03592285 -420.71508789 171.56958008 C-430.91485576 193.84002065 -430.91485576 193.84002065 -438.19921875 202.6640625 C-440.20351416 204.77241493 -440.20351416 204.77241493 -440 207 C-434.41829642 204.88348101 -429.80880107 202.73063097 -426 198 C-424.08611746 193.23839008 -423.35788681 188.1602612 -422.48144531 183.12939453 C-421.96726004 180.85519375 -421.20802482 178.81280923 -420.3359375 176.65234375 C-418.61398234 173.11993166 -418.61398234 173.11993166 -420 170 Z M-240 271 C-239 273 -239 273 -239 273 Z " fill="#1F5121" transform="translate(648,11)"/>
<path d="M0 0 C1.90265625 -0.01546875 1.90265625 -0.01546875 3.84375 -0.03125 C8.0875838 0.58537542 10.22608877 1.76532121 13.5 4.5 C15.6858113 7.8405391 15.74333374 10.6132348 15.72705078 14.55371094 C15.72689972 15.77467468 15.72674866 16.99563843 15.72659302 18.25360107 C15.71627045 19.56725647 15.70594788 20.88091187 15.6953125 22.234375 C15.69158042 23.59629102 15.68873437 24.95820973 15.68673706 26.32012939 C15.67911594 29.89747586 15.65948069 33.47465885 15.6373291 37.05194092 C15.61683778 40.7051777 15.60772833 44.35844101 15.59765625 48.01171875 C15.57623322 55.17455353 15.54211582 62.33725383 15.5 69.5 C16.19561035 69.47905273 16.8912207 69.45810547 17.60791016 69.43652344 C20.78012458 69.3530302 23.95210731 69.30123471 27.125 69.25 C28.21941406 69.21648437 29.31382812 69.18296875 30.44140625 69.1484375 C36.74605852 69.07201747 40.82194264 69.05506842 45.5 73.5 C50.87325904 81.18355326 49.14977887 95.35224048 47.92102051 104.34594727 C45.76386232 115.38254146 39.67718676 125.87997842 34.46044922 135.73388672 C33.1187034 138.27386506 31.85860363 140.83464849 30.65283203 143.44189453 C30.20430626 144.39528465 30.20430626 144.39528465 29.74671936 145.36793518 C28.93381969 147.1052933 28.13543949 148.8494242 27.33813477 150.59399414 C25.15044033 154.05263764 23.10104086 155.59489403 19.5 157.5 C18.18 157.5 16.86 157.5 15.5 157.5 C15.61785938 164.65343676 15.74268499 171.80672785 15.87231445 178.95996094 C15.91557993 181.39255021 15.95726083 183.82516822 15.99731445 186.2578125 C16.05522032 189.75790049 16.11885623 193.25784501 16.18359375 196.7578125 C16.20030624 197.84240753 16.21701874 198.92700256 16.23423767 200.04446411 C16.33025083 204.95749673 16.47686545 209.67197006 17.5 214.5 C18.44875 213.675 19.3975 212.85 20.375 212 C24.23121195 209.25450224 27.32214706 208.94113104 31.97265625 208.93359375 C37.89626356 210.26114098 42.11577494 214.79706206 46.25 219 C46.97123047 219.70962891 46.97123047 219.70962891 47.70703125 220.43359375 C51.50837722 224.25611714 53.25794794 226.90245642 54.06640625 232.23828125 C53.88055806 239.87992172 49.66444618 246.91721061 46.4375 253.6875 C45.7725664 255.11713157 45.10914398 256.54746701 44.44726562 257.97851562 C42.81617051 261.49001996 41.15373524 264.98531741 39.47341919 268.47351074 C38.82902158 269.81503436 38.18903765 271.15868783 37.55368042 272.5045166 C31.38272583 285.57567785 31.38272583 285.57567785 26.1875 290.375 C25.34574219 291.17679687 24.50398438 291.97859375 23.63671875 292.8046875 C21.5 294.5 21.5 294.5 19.5 294.5 C19.17 295.49 18.84 296.48 18.5 297.5 C16.46420525 299.09167555 14.48500107 300.49460487 12.3125 301.875 C11.69117188 302.27203125 11.06984375 302.6690625 10.4296875 303.078125 C-2.2706786 310.8976663 -14.94540168 312.69080807 -29.625 312.75 C-31.50832031 312.7809375 -31.50832031 312.7809375 -33.4296875 312.8125 C-49.69701006 312.87999926 -63.83562736 308.49411249 -75.91015625 297.2109375 C-78.14681531 294.80391866 -79.84126839 292.33366651 -81.5 289.5 C-81.93828125 289.82871094 -82.3765625 290.15742188 -82.828125 290.49609375 C-84.2081301 291.53109757 -85.59132584 292.56185233 -86.9765625 293.58984375 C-88.74394868 294.9276949 -90.48708131 296.29791443 -92.2109375 297.69140625 C-106.78974293 309.24110331 -120.98956793 312.85787626 -139.3125 312.8125 C-140.60220703 312.82861328 -141.89191406 312.84472656 -143.22070312 312.86132812 C-159.49666274 312.86956078 -173.48102806 308.73528361 -185.3125 297.1875 C-189.5 292.84022258 -189.5 292.84022258 -189.5 290.5 C-190.29921875 291.14066406 -191.0984375 291.78132813 -191.921875 292.44140625 C-208.77242939 305.78627951 -223.91427351 312.66327701 -245.5625 312.75 C-247.45258789 312.7809375 -247.45258789 312.7809375 -249.38085938 312.8125 C-265.90027408 312.88079732 -279.81960571 308.52718182 -291.953125 297.0390625 C-292.46359375 296.53117187 -292.9740625 296.02328125 -293.5 295.5 C-297.18290952 296.83448231 -300.1094867 298.51041275 -303.3125 300.75 C-307.88546802 303.70607514 -312.43018343 305.89435405 -317.5 307.8125 C-318.12753174 308.05452148 -318.75506348 308.29654297 -319.40161133 308.54589844 C-329.85474113 312.33343851 -340.27659959 312.84038252 -351.3125 312.8125 C-352.57642578 312.82861328 -353.84035156 312.84472656 -355.14257812 312.86132812 C-373.07162106 312.87050838 -392.97684565 308.18099439 -406.125 295.125 C-406.90875 294.25875 -407.6925 293.3925 -408.5 292.5 C-408.86351562 293.16386719 -409.22703125 293.82773437 -409.6015625 294.51171875 C-410.10429688 295.39472656 -410.60703125 296.27773438 -411.125 297.1875 C-411.61226562 298.05761719 -412.09953125 298.92773438 -412.6015625 299.82421875 C-415.37871336 303.73851575 -417.94407985 306.9796748 -422.77027893 307.96217537 C-425.55529935 308.14356548 -428.30098212 308.16412283 -431.09179688 308.13110352 C-432.14617447 308.13825882 -433.20055206 308.14541412 -434.28688049 308.15278625 C-437.76461397 308.16966485 -441.24105693 308.15027409 -444.71875 308.12890625 C-447.13960883 308.12973502 -449.56046761 308.13219469 -451.98132324 308.13621521 C-457.05201174 308.13907266 -462.1222584 308.12437626 -467.19287109 308.09692383 C-473.68969116 308.06284195 -480.18572116 308.06886021 -486.68257904 308.0875864 C-491.68062921 308.09815932 -496.67849582 308.08921574 -501.67652893 308.07420158 C-504.07189895 308.06902151 -506.46728816 308.06949943 -508.86265564 308.07574654 C-512.21159019 308.08120198 -515.55939708 308.06081116 -518.90820312 308.03344727 C-520.39055199 308.04323608 -520.39055199 308.04323608 -521.90284729 308.05322266 C-527.7432019 307.97215608 -531.02250915 307.33862674 -535.5 303.5 C-538.16793511 300.02708447 -537.79720494 296.01767351 -537.75 291.8125 C-537.75773437 291.14283203 -537.76546875 290.47316406 -537.7734375 289.78320312 C-537.73174385 278.86989121 -533.82896744 270.41054091 -529 260.75 C-527.81978413 258.36090678 -526.64449485 255.96942547 -525.46875 253.578125 C-524.94732422 252.53043945 -524.42589844 251.48275391 -523.88867188 250.40332031 C-521.10714478 244.69852165 -521.10714478 244.69852165 -520.26953125 238.50390625 C-520.27146484 237.78009766 -520.27339844 237.05628906 -520.27539062 236.31054688 C-520.28763672 235.56869141 -520.29988281 234.82683594 -520.3125 234.0625 C-520.31314453 233.32451172 -520.31378906 232.58652344 -520.31445312 231.82617188 C-520.34822356 227.60486709 -520.75603081 223.66734064 -521.5 219.5 C-522.0559082 221.13352417 -522.0559082 221.13352417 -522.62304688 222.80004883 C-529.37802628 242.55928124 -536.35551146 262.12983504 -545.0625 281.125 C-545.3929834 281.8535318 -545.7234668 282.5820636 -546.06396484 283.33267212 C-553.19454561 298.97082705 -553.19454561 298.97082705 -558.5 304.5 C-559.27851318 305.32999512 -559.27851318 305.32999512 -560.07275391 306.17675781 C-563.93508925 308.28235604 -567.79273642 307.9275058 -572.12109375 307.8984375 C-573.05800552 307.90130768 -573.9949173 307.90417786 -574.96022034 307.90713501 C-576.93971359 307.9091745 -578.91922705 307.90365267 -580.89868164 307.89111328 C-583.92314942 307.87507609 -586.94627721 307.89095667 -589.97070312 307.91015625 C-591.89583628 307.90817345 -593.82096859 307.904329 -595.74609375 307.8984375 C-596.64831161 307.90451019 -597.55052948 307.91058289 -598.48008728 307.9168396 C-603.30669341 307.86299049 -606.5854851 307.64565244 -610.5 304.5 C-616.25645795 297.26826891 -619.72067659 287.88607266 -623.5 279.5 C-624.15355469 280.95019531 -624.15355469 280.95019531 -624.8203125 282.4296875 C-634.73168743 304.20221604 -634.73168743 304.20221604 -641.5 307.5 C-644.12527011 307.78896703 -646.51088388 307.92086564 -649.13256836 307.90405273 C-650.26037468 307.91434761 -650.26037468 307.91434761 -651.41096497 307.92485046 C-653.88745196 307.94309776 -656.36330418 307.93928403 -658.83984375 307.93359375 C-660.56710516 307.93815664 -662.29436475 307.94346253 -664.0216217 307.94947815 C-667.63875715 307.95840523 -671.25567176 307.95599086 -674.87280273 307.94604492 C-679.50097668 307.93455709 -684.12838744 307.95476558 -688.75646114 307.98396206 C-692.3227673 308.00233621 -695.88889099 308.00202918 -699.45523262 307.99632454 C-701.16122063 307.99617147 -702.86722112 308.00220433 -704.57316399 308.01461601 C-706.96193751 308.0295473 -709.34930658 308.01883462 -711.73803711 308.00170898 C-712.43796783 308.01137695 -713.13789856 308.02104492 -713.85903931 308.03100586 C-718.84260636 307.95644763 -721.6426519 306.58702874 -725.5 303.5 C-730.21204143 297.92940865 -729.23278732 290.64744267 -728.6875 283.78125 C-727.12847871 272.76889052 -721.03383382 262.64257844 -715.79101562 252.98583984 C-714.40471644 250.47516256 -714.40471644 250.47516256 -713.5 247.5 C-714.11294922 247.46559814 -714.72589844 247.43119629 -715.35742188 247.39575195 C-739.94624198 245.91297438 -761.59277756 240.43332975 -779.1875 221.8125 C-795.54837086 202.67115913 -801.05742685 180.13690517 -799.2265625 155.484375 C-797.65921245 137.74352346 -790.63273386 123.20362029 -782.84765625 107.39453125 C-780.2603689 102.12217046 -777.83039455 96.80247164 -775.4765625 91.42260742 C-771.33046431 81.96597145 -766.90757092 73.62518974 -760.5 65.5 C-759.98695312 64.79488281 -759.47390625 64.08976562 -758.9453125 63.36328125 C-743.20150189 43.2552537 -717.63307537 34.66866219 -693.36331177 31.52232361 C-678.48451262 29.81994151 -663.50342128 30.01192394 -648.54833984 30.05395508 C-644.19086363 30.06561602 -639.83417746 30.04490166 -635.47680473 30.01603794 C-632.08467523 29.99770225 -628.69273804 29.99795989 -625.30057144 30.00367546 C-623.69227081 30.003828 -622.0839566 29.99784005 -620.47570419 29.98538399 C-618.24223777 29.97046928 -616.01027534 29.98114037 -613.77685547 29.99829102 C-612.51243622 29.99845718 -611.24801697 29.99862335 -609.94528198 29.99879456 C-605.84419822 30.59540334 -603.70053488 31.90927046 -600.5 34.5 C-598.55639648 37.5390625 -598.55639648 37.5390625 -596.87109375 41.125 C-596.55990097 41.77543274 -596.24870819 42.42586548 -595.92808533 43.0960083 C-594.91514049 45.22347697 -593.92633644 47.36123357 -592.9375 49.5 C-592.23073507 50.99643292 -591.52254548 52.49219374 -590.81298828 53.98730469 C-588.68662962 58.4813905 -586.59140739 62.98957043 -584.5 67.5 C-583.90636667 68.77552071 -583.31246898 70.05091843 -582.71826172 71.32617188 C-580.5779502 75.92289859 -578.44057305 80.52084494 -576.32104492 85.12719727 C-573.48247543 91.28711029 -570.58944258 97.41547623 -567.6171875 103.51171875 C-567.13135696 104.50955887 -567.13135696 104.50955887 -566.63571167 105.52755737 C-565.0666016 108.74741435 -563.49048149 111.96356694 -561.90380859 115.17480469 C-561.06197021 116.89618652 -561.06197021 116.89618652 -560.203125 118.65234375 C-559.70458008 119.66288818 -559.20603516 120.67343262 -558.69238281 121.71459961 C-557.56956692 124.33749203 -556.9358753 126.68963292 -556.5 129.5 C-555.84 129.5 -555.18 129.5 -554.5 129.5 C-554.29117187 128.37464844 -554.08234375 127.24929687 -553.8671875 126.08984375 C-552.11012844 118.22600788 -549.29298672 110.65356765 -546.625 103.0625 C-546.19482071 101.83404861 -546.19482071 101.83404861 -545.75595093 100.58078003 C-540.90736851 86.80290252 -535.32212856 73.61666576 -528.91992188 60.47998047 C-527.4514747 57.39816029 -526.0673863 54.28939453 -524.703125 51.16015625 C-524.25735107 50.1436499 -523.81157715 49.12714355 -523.35229492 48.07983398 C-522.52008225 46.17329036 -521.69665614 44.26287571 -520.8840332 42.34790039 C-518.41420682 36.75570979 -516.13290288 33.31645144 -510.5 30.5 C-507.42516251 30.37501761 -504.3721673 30.31102349 -501.29614258 30.29125977 C-500.34149109 30.28147598 -499.3868396 30.2716922 -498.40325928 30.26161194 C-495.23369753 30.23161914 -492.06417815 30.21026021 -488.89453125 30.19140625 C-487.27205255 30.18154851 -487.27205255 30.18154851 -485.61679649 30.17149162 C-479.88997073 30.13887892 -474.16316372 30.11443428 -468.4362793 30.0949707 C-463.69576937 30.07716269 -458.95585484 30.04235253 -454.21557617 29.99243164 C-448.49439477 29.93224695 -442.77376524 29.90149674 -437.05228233 29.89179802 C-434.87258171 29.88323807 -432.69289603 29.8644068 -430.51337624 29.8350544 C-427.45854132 29.79613357 -424.40585417 29.79510655 -421.35083008 29.80297852 C-420.45341599 29.78297791 -419.55600189 29.76297729 -418.63139343 29.74237061 C-412.89790037 29.80855301 -409.93330837 31.03084684 -405.78258801 35.01669216 C-403.43286523 37.73413705 -403.2509558 39.99725585 -402.9375 43.5 C-402.85371094 44.386875 -402.76992187 45.27375 -402.68359375 46.1875 C-402.62300781 47.280625 -402.56242187 48.37375 -402.5 49.5 C-402.40485107 50.16257813 -402.30970215 50.82515625 -402.21166992 51.5078125 C-401.39837687 60.70240704 -406.07184782 68.45171041 -409.9375 76.5 C-410.65343479 78.02652793 -411.36764299 79.55386688 -412.08007812 81.08203125 C-414.18033041 85.57338803 -416.28253303 90.06506606 -418.5 94.5 C-419.06697701 106.63011088 -418.19119076 118.87376146 -417.66015625 130.9921875 C-417.57267864 133.03426301 -417.48539697 135.07634693 -417.39830017 137.11843872 C-417.21626236 141.36941651 -417.03194492 145.62028743 -416.84594727 149.87109375 C-416.60853881 155.30085484 -416.37679836 160.73084052 -416.1467371 166.16091728 C-415.96794803 170.366462 -415.78621758 174.57187572 -415.60360527 178.77725601 C-415.51700589 180.77936105 -415.43129399 182.7815047 -415.34651375 184.78368759 C-415.22755614 187.58233024 -415.10463804 190.38077269 -414.98071289 193.17919922 C-414.94690521 193.99289474 -414.91309753 194.80659027 -414.87826538 195.64494324 C-414.63721613 200.96538553 -414.13441702 206.21163286 -413.5 211.5 C-411.47593699 207.76173433 -409.51941284 203.99694301 -407.61621094 200.19628906 C-406.9618207 198.91136321 -406.29048369 197.63491133 -405.6015625 196.36816406 C-401.2512379 188.6984527 -401.2512379 188.6984527 -401.43188477 180.234375 C-402.52193185 178.20173778 -403.67884338 176.2035056 -404.90039062 174.24707031 C-407.28690785 170.14861308 -407.35872672 166.64303144 -407.1875 162 C-407.20973633 160.87271484 -407.20973633 160.87271484 -407.23242188 159.72265625 C-407.1304143 152.60612751 -404.46555424 146.87075969 -401.5 140.5 C-400.92105607 139.23619127 -400.34254211 137.97218551 -399.7644043 136.70800781 C-398.19137782 133.28708041 -396.59472296 129.87774563 -394.98876953 126.47216797 C-393.99865673 124.37215094 -393.0126985 122.27022188 -392.02734375 120.16796875 C-380.5051106 95.62394838 -368.05520424 80.22418277 -342.1875 70.21875 C-328.17807015 65.59563815 -313.96059093 63.98981104 -299.28833008 64.10888672 C-296.93447196 64.12502076 -294.58232366 64.10889501 -292.22851562 64.08984375 C-270.78765529 64.05983135 -248.16680345 69.07445374 -231.5 83.5 C-231.5 84.16 -231.5 84.82 -231.5 85.5 C-230.90832031 85.768125 -230.31664062 86.03625 -229.70703125 86.3125 C-223.26140003 89.78059184 -219.07391288 96.2396386 -215.078125 102.16796875 C-213.61337678 104.33246055 -212.07537688 106.41550743 -210.5 108.5 C-209.97212891 107.27482666 -209.97212891 107.27482666 -209.43359375 106.02490234 C-208.10187359 102.96377144 -206.75045638 99.91296271 -205.38525391 96.86669922 C-204.80142362 95.55316158 -204.22538038 94.23613129 -203.65771484 92.91552734 C-199.64597373 83.60180148 -196.02897824 77.20055061 -186.2890625 73.171875 C-185.24492188 72.86765625 -184.20078125 72.5634375 -183.125 72.25 C-168.36796642 67.28353854 -155.80391552 59.0994222 -144.5 48.5 C-143.75492188 47.81164062 -143.00984375 47.12328125 -142.2421875 46.4140625 C-135.6932005 40.12189852 -129.82619295 33.02676885 -124.75 25.5 C-122.38874763 22.35166351 -121.01789352 21.16176738 -117.5 19.5 C-113.90625 19.1015625 -113.90625 19.1015625 -110 19.125 C-108.7109375 19.11726563 -107.421875 19.10953125 -106.09375 19.1015625 C-101.13472963 19.65136693 -97.68743689 21.67507574 -94.5 25.5 C-93.1841191 29.4476427 -93.37699727 33.21089356 -93.40234375 37.32421875 C-93.4037587 38.18561966 -93.40517365 39.04702057 -93.40663147 39.93452454 C-93.4122286 42.68555169 -93.42478054 45.43649744 -93.4375 48.1875 C-93.44251537 50.0527332 -93.44707821 51.91796767 -93.45117188 53.78320312 C-93.46219708 58.35550011 -93.47945973 62.92773625 -93.5 67.5 C-81.06823201 63.88968732 -81.06823201 63.88968732 -69.25 58.6875 C-68.26652588 58.17884399 -68.26652588 58.17884399 -67.26318359 57.65991211 C-56.90704912 52.1943846 -47.93087954 45.61472156 -39.5 37.5 C-38.13875 36.21609375 -38.13875 36.21609375 -36.75 34.90625 C-28.04338733 26.48985775 -20.72280835 17.40058734 -15.08203125 6.65625 C-11.05206338 1.16355305 -6.58735034 -0.05355569 0 0 Z M-715.5 122.5 C-715.5 123.16 -715.5 123.82 -715.5 124.5 C-710.13560356 127.18219822 -706.48993047 127.8152595 -700.5 127.5 C-700.84444881 125.02733235 -700.84444881 125.02733235 -701.5 122.5 C-705.83063912 120.33468044 -710.91631971 121.62691804 -715.5 122.5 Z M-93.5 153.5 C-93.5 173.63 -93.5 193.76 -93.5 214.5 C-92.51 214.5 -91.52 214.5 -90.5 214.5 C-88.24667686 212.67112957 -88.24667686 212.67112957 -88.25949097 209.98165894 C-88.26393219 208.9202066 -88.26837341 207.85875427 -88.27294922 206.76513672 C-88.27310028 205.56404266 -88.27325134 204.36294861 -88.27340698 203.12545776 C-88.28889084 201.17230148 -88.28889084 201.17230148 -88.3046875 199.1796875 C-88.30841724 197.83733327 -88.31126439 196.49497633 -88.31326294 195.15261841 C-88.32090256 191.617986 -88.3405537 188.08351772 -88.3626709 184.5489502 C-88.38312235 180.9428123 -88.39226315 177.33664791 -88.40234375 173.73046875 C-88.4237994 166.65357865 -88.45793921 159.57680003 -88.5 152.5 C-90.19967317 152.5 -91.85107482 153.08776871 -93.5 153.5 Z M-200.5 157.5 C-200.5462955 164.76692328 -200.58185493 172.03381488 -200.60362434 179.30085564 C-200.61407142 182.67506994 -200.62824725 186.04918352 -200.65087891 189.42333984 C-200.67504885 193.30048318 -200.68646511 197.17748277 -200.6953125 201.0546875 C-200.70563507 202.26929657 -200.71595764 203.48390564 -200.72659302 204.73532104 C-200.72674408 205.85633209 -200.72689514 206.97734314 -200.72705078 208.13232422 C-200.731492 209.12271698 -200.73593323 210.11310974 -200.74050903 211.1335144 C-200.7326657 213.68865903 -200.7326657 213.68865903 -198.5 215.5 C-197.24282395 214.46580854 -197.24282395 214.46580854 -197.37974548 212.21580505 C-197.38196609 211.20542679 -197.38418671 210.19504852 -197.38647461 209.15405273 C-197.38655014 208.0129454 -197.38662567 206.87183807 -197.38670349 205.69615173 C-197.39186478 204.4545076 -197.39702606 203.21286346 -197.40234375 201.93359375 C-197.4037587 200.66983414 -197.40517365 199.40607452 -197.40663147 198.10401917 C-197.41129418 194.73875111 -197.4202852 191.3735501 -197.43133545 188.00830078 C-197.44155154 184.5765033 -197.44612951 181.14469891 -197.45117188 177.71289062 C-197.4622262 170.97524176 -197.4789829 164.23762475 -197.5 157.5 C-198.49 157.5 -199.48 157.5 -200.5 157.5 Z " fill="#205121" transform="translate(1990.5,16.5)"/>
<path d="M0 0 C7.63294909 6.43852337 14.16372229 14.63173148 15.18359375 24.8984375 C15.32517854 29.57073564 15.30171886 34.22593314 15.18359375 38.8984375 C16.16457031 38.5375 17.14554688 38.1765625 18.15625 37.8046875 C30.69521554 33.406809 43.57081175 31.15603269 56.18359375 36.8984375 C66.33500597 41.98120301 72.75230708 48.95908858 76.5859375 59.66088867 C77.68585858 63.77885299 77.6960732 67.846046 77.68359375 72.0859375 C77.71195313 72.94251953 77.7403125 73.79910156 77.76953125 74.68164062 C77.79269531 82.49372011 75.31247639 88.84009538 72.18359375 95.8984375 C71.72231079 96.94857529 71.72231079 96.94857529 71.25170898 98.01992798 C69.15082288 102.78292324 66.99768556 107.52046582 64.81787109 112.24780273 C63.67882893 114.72128453 62.55006351 117.19928647 61.421875 119.67773438 C60.68681121 121.27892752 59.9511548 122.87984877 59.21484375 124.48046875 C58.8844812 125.20772659 58.55411865 125.93498444 58.21374512 126.6842804 C56.18930831 131.04903943 53.91105889 135.03798345 51.19093323 139.01026917 C49.33443513 142.49010988 49.56015577 146.16189414 49.62109375 150.0234375 C49.7883839 165.05381446 43.6753194 177.95543791 37.43359375 191.2734375 C36.74783027 192.76001672 36.06293145 194.24699513 35.37890625 195.734375 C31.98232566 203.08958789 28.48690823 210.39257743 24.875 217.64453125 C24.55311707 218.29195282 24.23123413 218.93937439 23.89959717 219.60641479 C11.23260232 244.81977829 -8.61159061 261.96030517 -35.19140625 271.2734375 C-37.04845983 271.87375391 -38.92736766 272.40796733 -40.81640625 272.8984375 C-41.44579102 273.07431396 -42.07517578 273.25019043 -42.72363281 273.43139648 C-50.8058974 275.39775445 -58.97851468 275.23535491 -67.24462891 275.21411133 C-69.78332612 275.21097832 -72.32082339 275.23437518 -74.859375 275.25976562 C-105.68267931 275.37820525 -134.75139763 265.86126765 -157.12890625 244.1484375 C-171.45980795 229.61502881 -179.21612014 211.51568359 -179.11914062 191.09179688 C-178.6608571 173.11689859 -171.01080837 158.06516264 -163.50390625 142.1484375 C-163.1724762 141.44454895 -162.84104614 140.7406604 -162.49957275 140.01544189 C-160.28089655 135.30546065 -158.05163646 130.6005818 -155.81640625 125.8984375 C-155.12683838 124.4448584 -155.12683838 124.4448584 -154.42333984 122.96191406 C-153.35736853 120.72665757 -152.27923111 118.4981206 -151.19140625 116.2734375 C-150.64226563 115.14679688 -150.093125 114.02015625 -149.52734375 112.859375 C-147.81640625 109.8984375 -147.81640625 109.8984375 -145.14453125 107.234375 C-141.42245986 102.94183892 -142.15164459 97.54276974 -142.19140625 92.1484375 C-142.19140625 76.85599212 -137.13619944 65.82436229 -130.62890625 52.2734375 C-129.89065981 50.72034485 -129.15302588 49.1669609 -128.41601562 47.61328125 C-124.83243798 40.0769374 -121.19349687 32.56710549 -117.49609375 25.0859375 C-117.17949295 24.43877777 -116.86289215 23.79161804 -116.53669739 23.12484741 C-107.94149377 5.86430201 -92.49379438 -3.79105224 -74.890625 -10.16015625 C-50.68290352 -17.83756716 -20.54523674 -15.330565 0 0 Z " fill="#205122" transform="translate(1102.81640625,55.1015625)"/>
<path d="M0 0 C1.63336796 0.00561787 3.26674108 0.00987755 4.90011597 0.01286316 C9.13164033 0.02413998 13.36283954 0.05345169 17.59423828 0.0869751 C21.9390829 0.11805366 26.28398175 0.13144792 30.62890625 0.14648438 C39.10431337 0.17834412 47.57945963 0.229323 56.0546875 0.29296875 C64.61479858 17.8221694 73.14962291 35.35104239 81.30932617 53.07128906 C85.69110053 62.56683741 90.23033001 71.98076327 94.80078125 81.38623047 C99.61838744 91.32524368 104.28401492 101.33011971 108.88085938 111.37304688 C109.38552734 112.47068359 109.89019531 113.56832031 110.41015625 114.69921875 C110.84996826 115.66150391 111.28978027 116.62378906 111.74291992 117.61523438 C113.04539643 120.27400273 114.49401802 122.77854094 116.0546875 125.29296875 C116.48064209 124.05998047 116.90659668 122.82699219 117.34545898 121.55664062 C125.48522827 98.00439639 133.66531236 74.46730062 141.9921875 50.98046875 C142.32596405 50.03880859 142.6597406 49.09714844 143.00363159 48.12695312 C148.66096713 32.17286512 154.3613643 16.23427372 160.0546875 0.29296875 C190.0846875 0.29296875 220.1146875 0.29296875 251.0546875 0.29296875 C251.3846875 4.91296875 251.7146875 9.53296875 252.0546875 14.29296875 C250.8584375 14.54046875 249.6621875 14.78796875 248.4296875 15.04296875 C244.296561 16.1109979 241.30590183 17.4198026 238.0546875 20.29296875 C235.26863471 25.47150221 234.65366799 30.54075352 234.91015625 36.36425781 C234.93108337 37.13226967 234.9520105 37.90028152 234.97357178 38.69156647 C235.04718901 41.23135322 235.1443526 43.7696334 235.2421875 46.30859375 C235.30069008 48.12539123 235.35803635 49.94222625 235.41430664 51.75909424 C235.60229483 57.60475282 235.82636893 63.44876725 236.0546875 69.29296875 C236.12960102 71.2530094 236.20447095 73.21305171 236.27929688 75.1730957 C236.77868517 88.11691922 237.34021547 101.05770012 237.91931152 113.99816895 C238.10256734 118.11985511 238.28117133 122.24173788 238.45976257 126.36362839 C238.63478718 130.39426205 238.81204008 134.42479525 238.99002075 138.45529938 C239.07346382 140.34805227 239.15638737 142.24082815 239.23873901 144.13362885 C238.90982478 169.27267188 238.90982478 169.27267188 249.546875 190.92578125 C253.31560843 194.34302659 256.01462043 195.28495534 261.0546875 196.29296875 C261.3846875 200.91296875 261.7146875 205.53296875 262.0546875 210.29296875 C228.7246875 210.29296875 195.3946875 210.29296875 161.0546875 210.29296875 C161.3846875 205.67296875 161.7146875 201.05296875 162.0546875 196.29296875 C163.4365625 195.79796875 164.8184375 195.30296875 166.2421875 194.79296875 C171.54948139 192.385107 173.86661145 189.64731956 176.0546875 184.29296875 C178.40966377 177.42826058 179.25426192 170.72642755 179.18359375 163.4921875 C179.17967621 162.75683777 179.17575867 162.02148804 179.17172241 161.26385498 C179.10061105 153.66006934 178.73262166 146.07543194 178.31417847 138.48403931 C178.07647064 134.16953704 177.85335443 129.85427153 177.62890625 125.5390625 C177.58159866 124.63568649 177.53429108 123.73231049 177.48554993 122.80155945 C177.12860863 115.9159115 176.81131727 109.02899144 176.51171875 102.140625 C176.46787048 101.13335358 176.42402222 100.12608215 176.37884521 99.08828735 C176.20750648 95.13303901 176.03729151 91.17775028 175.87091064 87.22229004 C175.4362769 76.89453244 174.9606826 66.59226396 174.0546875 56.29296875 C164.90343393 81.99779208 155.83711955 107.72924477 146.94049072 133.52337646 C140.50894072 152.16435216 133.96540097 170.76392899 127.359375 189.34375 C127.01692749 190.30717316 126.67447998 191.27059631 126.32165527 192.26321411 C125.68633307 194.04980702 125.05039389 195.83618072 124.41369629 197.62228394 C124.13086792 198.4170816 123.84803955 199.21187927 123.55664062 200.03076172 C123.31337036 200.71331024 123.0701001 201.39585876 122.81945801 202.09909058 C121.87060793 204.82103325 120.96624048 207.5583098 120.0546875 210.29296875 C108.5046875 210.29296875 96.9546875 210.29296875 85.0546875 210.29296875 C78.87141953 197.97682032 72.78551029 185.61581056 66.7421875 173.23046875 C66.27803436 172.27976501 65.81388123 171.32906128 65.33566284 170.34954834 C59.39139335 158.17238676 53.47789643 145.98241771 47.65625 133.74609375 C45.6646844 129.56239576 43.65633667 125.38694997 41.640625 121.21484375 C41.19345123 120.28908287 41.19345123 120.28908287 40.73724365 119.34461975 C39.22386315 116.21279809 37.70821415 113.08209682 36.18945312 109.95288086 C33.47107946 104.34549989 30.77925387 98.72978961 28.1875 93.0625 C27.53019897 91.63768311 27.53019897 91.63768311 26.85961914 90.18408203 C26.06605131 88.45722603 25.28289594 86.72552144 24.51342773 84.98779297 C20.15485155 75.54536091 14.45694258 69.79077711 5.1171875 65.29296875 C4.33794922 64.89980469 3.55871094 64.50664063 2.75585938 64.1015625 C0.86336239 63.1495088 -1.03989232 62.21888722 -2.9453125 61.29296875 C-2.92960205 60.56706543 -2.9138916 59.84116211 -2.89770508 59.09326172 C-2.83510895 55.78491087 -2.79624338 52.47668494 -2.7578125 49.16796875 C-2.73267578 48.02585938 -2.70753906 46.88375 -2.68164062 45.70703125 C-2.54596387 37.56114507 -2.54596387 37.56114507 -5.9453125 30.29296875 C-11.81550365 24.86304194 -17.27373928 24.86497755 -24.96484375 25.01953125 C-37.7899279 25.90054783 -51.60010424 32.72941262 -60.29296875 42.17578125 C-67.66087135 51.61645077 -68.97356074 60.5432108 -67.9453125 72.29296875 C-65.23463602 82.20212219 -60.6937134 88.90132383 -52.0078125 94.3125 C-45.16417506 97.56582007 -35.26378507 97.61433727 -28.13671875 95.43359375 C-26.01187172 94.47060889 -23.9882801 93.41592445 -21.9453125 92.29296875 C-20.9553125 91.96296875 -19.9653125 91.63296875 -18.9453125 91.29296875 C-17.81862873 89.45172576 -17.81862873 89.45172576 -16.9453125 87.29296875 C-16.62691406 86.66777344 -16.30851562 86.04257813 -15.98046875 85.3984375 C-13.79601509 81.09094052 -11.80292946 76.75124946 -9.9453125 72.29296875 C-1.89214469 72.92874516 4.93156201 76.68487005 10.4296875 82.48046875 C17.81931724 91.62027395 19.25581523 100.78409456 18.32958984 112.25683594 C17.63368823 117.41120493 15.57041115 121.7991827 13.0546875 126.29296875 C12.59707031 127.11410156 12.13945313 127.93523437 11.66796875 128.78125 C5.49345526 138.84655281 -3.38356416 144.97748692 -14.59375 148.41015625 C-19.56993626 149.58544521 -24.47703981 149.63556456 -29.5703125 149.60546875 C-31.0229248 149.59918457 -31.0229248 149.59918457 -32.50488281 149.59277344 C-51.42052693 149.2967244 -67.77220204 143.14190952 -81.6953125 130.10546875 C-97.31997818 113.5467198 -100.56695985 93.8010397 -100.28515625 71.8828125 C-99.63339963 52.86287772 -89.71490281 35.70615535 -76.23046875 22.66796875 C-64.18262488 12.0593975 -51.58181757 6.40858807 -35.9453125 3.29296875 C-35.26597279 3.15709539 -34.58663307 3.02122204 -33.88670731 2.88123131 C-22.50109673 0.66252452 -11.58126023 -0.11999734 0 0 Z " fill="#FDC3DC" transform="translate(1324.9453125,56.70703125)"/>
<path d="M0 0 C2.31 0 4.62 0 7 0 C7 22.77 7 45.54 7 69 C17.56 69 28.12 69 39 69 C39 75.93 39 82.86 39 90 C28.44 90 17.88 90 7 90 C7.06297182 104.447684 7.1384283 118.89515592 7.23571491 133.34265041 C7.28059136 140.05157839 7.32002453 146.76045424 7.34643555 153.46948242 C7.37249106 159.94702064 7.41291013 166.42432612 7.46318626 172.90172005 C7.47983963 175.36994591 7.4913634 177.83821201 7.49761391 180.30648613 C7.50727128 183.77024468 7.53535168 187.23340983 7.56762695 190.69702148 C7.56619186 191.71194672 7.56475677 192.72687195 7.5632782 193.77255249 C7.66292308 201.36033025 8.66178554 207.90344571 13.3125 214.0625 C15.85048188 216.16102771 15.85048188 216.16102771 18.8125 216.625 C22.56070552 215.89005774 24.95100444 214.43123791 28.0703125 212.2890625 C30 211 30 211 34 209 C37.63 212.63 41.26 216.26 45 220 C37.49892522 232.5017913 24.70711083 239.89418339 11 244 C-3.67338286 247.37349232 -21.94351749 246.56769325 -35.25 239.375 C-44.30724095 233.44847738 -49.1152999 226.34906534 -52 216 C-52.17678 215.40290096 -52.35356001 214.80580193 -52.53569698 214.19060898 C-53.09175824 211.56707921 -53.12278558 209.15271628 -53.12025452 206.4697876 C-53.12231651 204.78291588 -53.12231651 204.78291588 -53.12442017 203.06196594 C-53.12082489 201.83269882 -53.11722961 200.6034317 -53.11352539 199.33691406 C-53.11367142 198.03910507 -53.11381744 196.74129608 -53.1139679 195.40415955 C-53.11425478 191.84871082 -53.10837566 188.29329584 -53.10139394 184.73785496 C-53.09514225 181.02093743 -53.09455516 177.30401914 -53.09336853 173.58709717 C-53.09026057 166.55007022 -53.08205439 159.5130588 -53.07201904 152.47603869 C-53.06084129 144.46400862 -53.05534326 136.45197781 -53.05032361 128.43994188 C-53.03987134 111.95995216 -53.02228225 95.47997806 -53 79 C-53.95116699 79.41282227 -54.90233398 79.82564453 -55.88232422 80.25097656 C-57.14806806 80.79762775 -58.41385828 81.34417154 -59.6796875 81.890625 C-60.30447998 82.16213379 -60.92927246 82.43364258 -61.57299805 82.71337891 C-72.625424 87.47598289 -83.8076432 90.15111862 -95.88671875 90.05078125 C-97.03744873 90.04344971 -98.18817871 90.03611816 -99.3737793 90.02856445 C-100.24043213 90.01913818 -101.10708496 90.00971191 -102 90 C-101.96277706 104.98649683 -101.9028338 119.97277586 -101.81609726 134.9590683 C-101.77634616 141.91802845 -101.74393384 148.87687617 -101.72900391 155.8359375 C-101.71457137 162.55342784 -101.67941547 169.27051941 -101.63169098 175.98786926 C-101.61686824 178.54902617 -101.60895848 181.11023283 -101.60811615 183.6714325 C-101.60574759 187.2624516 -101.57867404 190.85250667 -101.54589844 194.44335938 C-101.5509288 195.49928284 -101.55595917 196.5552063 -101.56114197 197.64312744 C-101.47407823 203.81983156 -100.78000267 208.93590477 -97 214 C-93.41123098 216.39251268 -92.23750792 216.55967086 -88 216 C-85.86432366 214.89306949 -83.91195317 213.65037748 -81.9296875 212.2890625 C-80 211 -80 211 -76 209 C-70.555 214.445 -70.555 214.445 -65 220 C-70.8308502 231.6617004 -84.39795975 239.23448384 -96.40234375 243.34375 C-103.33440875 245.09500853 -110.20691548 245.21311183 -117.3125 245.25 C-118.29412109 245.270625 -119.27574219 245.29125 -120.28710938 245.3125 C-131.98494943 245.3744343 -143.0156193 241.87950692 -152.07421875 234.25390625 C-160.48852421 225.474555 -162.75429078 214.85746274 -162.56762695 203.07128906 C-162.56835709 201.84058685 -162.56908722 200.60988464 -162.56983948 199.34188843 C-162.56697819 196.00736724 -162.54212344 192.67444569 -162.50696969 189.3402071 C-162.47544717 185.84092861 -162.47275528 182.3416227 -162.46684265 178.84222412 C-162.45137943 172.23380307 -162.4104547 165.62580178 -162.3600952 159.01756454 C-162.30396542 151.48665479 -162.27665623 143.95572367 -162.25161803 136.42465639 C-162.19953062 120.94952221 -162.11071527 105.47483206 -162 90 C-168.93 90 -175.86 90 -183 90 C-183 85.05 -183 80.1 -183 75 C-180.525 74.01 -180.525 74.01 -178 73 C-152.92786458 62.48207715 -129.51631957 47.83765934 -114.40625 24.54296875 C-113.9215625 23.80691406 -113.436875 23.07085937 -112.9375 22.3125 C-112.55464844 21.66925781 -112.17179687 21.02601562 -111.77734375 20.36328125 C-110 19 -110 19 -102 19 C-102 35.5 -102 52 -102 69 C-88.56589844 66.98488477 -78.00215563 65.35630872 -66 60 C-65.04262939 59.58886963 -65.04262939 59.58886963 -64.06591797 59.16943359 C-37.16183827 47.47700026 -14.10485365 25.63317666 0 0 Z " fill="#FDC3DB" transform="translate(1988,27)"/>
<path d="M0 0 C1.42012445 1.20101954 2.81470267 2.43265783 4.1875 3.6875 C5.50814453 4.87085938 5.50814453 4.87085938 6.85546875 6.078125 C21.77543914 20.15434534 32.46072146 39.98424526 33.31347656 60.75610352 C33.39468609 64.44214249 33.42248215 68.12561734 33.4375 71.8125 C33.4684375 73.67648438 33.4684375 73.67648438 33.5 75.578125 C33.59791177 99.02799457 23.99114553 120.20484793 8.125 137.1875 C-9.03802783 153.91194961 -32.52643759 160.94780876 -56.0534668 160.9362793 C-80.62636402 160.61150677 -102.83647884 152.96802034 -120.8125 135.6875 C-139.55276561 114.99512339 -145.87923243 89.80864734 -144.96044922 62.39599609 C-143.74498278 40.14453626 -132.54943127 19.79554413 -116.6875 4.5625 C-85.46850514 -22.90504106 -33.36366952 -24.58065404 0 0 Z M-72.8125 64.6875 C-73.37569113 85.38693999 -72.62578486 107.74880817 -60.8125 125.6875 C-60.4825 125.6875 -60.1525 125.6875 -59.8125 125.6875 C-58.93414017 119.00137201 -58.76535294 112.76322983 -59.5 106.0625 C-59.59176514 105.20076172 -59.68353027 104.33902344 -59.77807617 103.45117188 C-61.23426819 90.93323258 -63.36400396 73.67533117 -72.8125 64.6875 Z " fill="#FDC3DB" transform="translate(398.8125,109.3125)"/>
<path d="M0 0 C15.08233047 14.15561277 24.05168252 34.01740342 24.76485443 54.73675156 C24.81703026 57.54073723 24.83475605 60.34324654 24.82865906 63.14769745 C24.82408718 65.43697248 24.83843444 67.72551174 24.85705566 70.01470947 C24.89954724 75.69000738 24.9110603 81.36528141 24.92327881 87.04071045 C24.93487398 91.86585778 24.95859488 96.69066018 24.99797058 101.51566315 C25.01138156 103.75235771 25.00740254 105.98856296 25.00256348 108.22528076 C24.93690838 121.24471224 24.93690838 121.24471224 30.73046875 132.44921875 C34.10524223 134.17584704 35.66479936 134.48654276 39.41796875 133.82421875 C41.54593782 132.70878429 43.50818071 131.47310933 45.48828125 130.11328125 C47.41796875 128.82421875 47.41796875 128.82421875 51.41796875 126.82421875 C55.04796875 130.45421875 58.67796875 134.08421875 62.41796875 137.82421875 C54.25898575 150.06269325 40.53469833 159.01053867 26.10498047 162.36132812 C21.36038977 163.1786772 16.59647688 163.05070096 11.79296875 163.07421875 C10.76300781 163.09484375 9.73304688 163.11546875 8.671875 163.13671875 C-4.51908039 163.20308834 -16.15270828 159.43017447 -26.01171875 150.48828125 C-30.7330598 145.48506909 -33.15371791 140.67723218 -33.58203125 133.82421875 C-34.24203125 133.82421875 -34.90203125 133.82421875 -35.58203125 133.82421875 C-35.86046875 134.81421875 -35.86046875 134.81421875 -36.14453125 135.82421875 C-41.83688406 147.70391157 -53.90748234 154.0360397 -65.58203125 158.82421875 C-66.4121875 159.17613281 -67.24234375 159.52804687 -68.09765625 159.890625 C-76.3465457 162.99044352 -85.0684178 163.00445754 -93.76953125 163.01171875 C-95.15869751 163.01292725 -95.15869751 163.01292725 -96.57592773 163.01416016 C-113.76658309 162.87613188 -129.41017383 158.61054822 -142.33203125 146.69921875 C-151.81889487 136.79258241 -156.03503117 123.58207673 -155.8515625 110.10546875 C-154.7987409 97.2885102 -148.66052486 87.49997641 -139.58203125 78.69921875 C-130.7145094 71.23021421 -119.52573438 65.52911825 -108.58203125 61.82421875 C-107.88078125 61.56253906 -107.17953125 61.30085938 -106.45703125 61.03125 C-88.94472267 55.04179724 -69.20414452 54.65332944 -50.89453125 54.76171875 C-49.40299631 54.76674731 -47.91145971 54.7713078 -46.41992188 54.77539062 C-42.80725663 54.78628071 -39.19465493 54.80346939 -35.58203125 54.82421875 C-35.63443535 50.53160014 -35.72963606 46.24091291 -35.83203125 41.94921875 C-35.84621094 40.74523437 -35.86039063 39.54125 -35.875 38.30078125 C-36.16127385 27.76590339 -38.21100634 19.29158323 -45.60546875 11.51953125 C-51.10917525 6.79896085 -56.97726168 5.16205205 -64.16015625 5.5078125 C-69.57861782 6.21570829 -73.80641222 7.5576531 -77.45703125 11.76171875 C-80.68844083 16.41875021 -81.77222 19.46529764 -82.33203125 25.13671875 C-83.2294707 31.29453404 -84.61158483 34.99489027 -89.58203125 38.82421875 C-98.50664312 44.70758358 -109.20612287 44.60485136 -119.58203125 43.82421875 C-127.21155214 42.00813616 -132.11989694 38.64477199 -136.39453125 32.01171875 C-138.89510892 25.29964186 -137.82575857 19.81069493 -135.0390625 13.41015625 C-126.83404227 -1.15210486 -111.1593221 -9.76180476 -95.64453125 -14.48828125 C-64.31034948 -22.52003521 -25.81084487 -21.74983448 0 0 Z " fill="#FDC3DB" transform="translate(717.58203125,109.17578125)"/>
<path d="M0 0 C0.70737305 0.28939453 1.41474609 0.57878906 2.14355469 0.87695312 C21.72391895 9.21165856 34.94951987 23.19790991 43 43 C48.08029139 57.73618489 48.12335905 73.02962931 48.17578125 88.45703125 C48.19304172 90.45751446 48.21032612 92.45799778 48.22898388 94.45846844 C48.27396697 99.30814705 48.31237744 104.1576911 48.32592773 109.00756836 C48.33410089 111.75684866 48.35275448 114.50567875 48.38285828 117.25480652 C48.4107197 119.82020634 48.42396062 122.38582219 48.41999817 124.95137024 C48.52189858 132.19395385 49.17909092 138.68197056 53 145 C56.65142731 147.43428487 57.67711789 147.62878285 62 147 C64.64489012 145.56265055 67.13562793 143.99284849 69.6328125 142.3125 C72 141 72 141 76 141 C77.8515625 142.609375 77.8515625 142.609375 79.625 144.75 C80.21539063 145.44609375 80.80578125 146.1421875 81.4140625 146.859375 C82.88535946 148.84526351 83.97899762 150.75581655 85 153 C75.98731989 162.71649027 66.65626085 169.80114617 54 174 C52.453125 174.53947266 52.453125 174.53947266 50.875 175.08984375 C45.93513572 176.25011429 41.3055417 176.300736 36.25 176.25 C34.77684326 176.23767334 34.77684326 176.23767334 33.27392578 176.22509766 C19.69938492 176.01528674 7.76792808 173.80237934 -2.5 164.125 C-5.9094645 160.43259239 -8.04985283 156.5953963 -10 152 C-10.65917616 150.66294764 -11.32394392 149.32859716 -12 148 C-12.5775 148.886875 -13.155 149.77375 -13.75 150.6875 C-22.95958157 164.83078599 -38.12308381 171.65660601 -54.125 175.375 C-75.9889204 178.5786258 -97.03249766 175.63681309 -115.5390625 163.30859375 C-124.30654382 156.28445331 -130.49911828 145.06737128 -132 134 C-132.82206996 120.48301353 -131.90415088 109.80082163 -122.828125 99.046875 C-122.22484375 98.37140625 -121.6215625 97.6959375 -121 97 C-120.24976563 96.11054688 -120.24976563 96.11054688 -119.484375 95.203125 C-107.07494223 81.54021417 -87.63925812 74.56834347 -70 71 C-69.09121094 70.80792969 -68.18242188 70.61585938 -67.24609375 70.41796875 C-54.47219913 67.8922627 -41.71068605 67.86736355 -28.75 67.9375 C-27.11849097 67.94252851 -25.48698042 67.94708901 -23.85546875 67.95117188 C-19.9036077 67.96206243 -15.95182108 67.97925134 -12 68 C-12.05260435 64.06147625 -12.14784198 60.12502539 -12.25 56.1875 C-12.26417969 55.08728516 -12.27835938 53.98707031 -12.29296875 52.85351562 C-12.58763212 42.86442724 -14.69077868 32.36962811 -22 25 C-29.15824579 19.76707549 -36.28063761 18.01082864 -45 19 C-50.34313973 20.64199477 -53.97620712 23.23171122 -57 28 C-58.80517301 31.8351661 -59.24523038 35.1074185 -59.5625 39.3125 C-60.48616538 45.63495373 -62.37930046 48.6438013 -67.44921875 52.4765625 C-77.47755247 58.46591954 -89.277692 58.11353719 -100.453125 55.8203125 C-105.9060637 54.06399789 -109.62056994 50.85360914 -113 46.3125 C-115.24878221 38.86340892 -114.74430757 32.80570172 -111.4375 25.75 C-103.28493673 11.10558079 -87.78113602 3.58030417 -72.1953125 -1.15625 C-50.26296142 -7.33939252 -21.47168405 -8.79562961 0 0 Z " fill="#FDC3DB" transform="translate(1731,96)"/>
<path d="M0 0 C1.15442345 -0.01210762 1.15442345 -0.01210762 2.33216858 -0.02445984 C3.95490333 -0.0382041 5.57766581 -0.0489688 7.20043945 -0.05688477 C8.82422655 -0.06832783 10.44797837 -0.08865591 12.0715332 -0.1184082 C35.11893309 -0.53890403 57.35762799 5.17368557 74.75390625 21.1796875 C88.33213782 35.37756059 94.16917596 50.95741202 94.01904297 70.38598633 C93.54682916 86.99481724 84.05220024 105.29009301 72.28515625 116.86328125 C61.75259909 125.79476415 51.53523584 129.47879543 37.828125 128.65625 C28.28162187 127.79587276 20.92529298 124.69581763 13.72265625 118.23828125 C6.45827666 109.47299678 4.69165705 101.53017724 5.72265625 90.23828125 C7.04036906 85.41495513 8.95608413 81.38813943 11.72265625 77.23828125 C12.27953125 77.52703125 12.83640625 77.81578125 13.41015625 78.11328125 C19.95193473 81.29576808 25.44863313 82.27346624 32.72265625 81.23828125 C39.42045004 78.50694705 43.74565964 73.74224171 46.72265625 67.23828125 C49.53641405 59.8884655 50.11834685 52.52797735 47.66015625 44.97265625 C44.54403805 38.2323571 40.89714545 33.36510821 34.72265625 29.23828125 C33.8821875 28.65949219 33.04171875 28.08070312 32.17578125 27.484375 C23.53948281 22.34315314 14.50691938 21.66348732 4.72265625 23.23828125 C-11.33853567 27.95248775 -21.57507462 42.12471485 -29.30908203 56.10302734 C-41.48406093 79.07710858 -47.02136265 107.90549356 -39.671875 133.234375 C-33.34516342 152.4696572 -21.63675885 166.88069055 -3.765625 176.48046875 C17.58496413 187.23944423 40.08789019 185.9448094 62.421875 179.10546875 C72.8317438 175.3850186 81.58318586 169.65424316 89.72265625 162.23828125 C93.79641656 163.84838652 96.48772694 166.77650396 99.47265625 169.86328125 C99.97925781 170.37890625 100.48585937 170.89453125 101.0078125 171.42578125 C102.25069527 172.69211464 103.48730901 173.96459565 104.72265625 175.23828125 C97.17196505 192.19829534 75.3563974 203.99370656 58.84765625 210.55078125 C56.47764131 211.45972105 54.10256776 212.35557884 51.72265625 213.23828125 C51.10487305 213.48795654 50.48708984 213.73763184 49.85058594 213.99487305 C35.37981602 219.7487268 19.63307152 220.62984148 4.22265625 220.67578125 C2.258125 220.69064575 2.258125 220.69064575 0.25390625 220.70581055 C-11.79464106 220.60029467 -23.4327402 218.7211625 -34.77734375 214.55078125 C-35.47891602 214.29586914 -36.18048828 214.04095703 -36.90332031 213.77832031 C-63.08725342 203.91959246 -86.23428241 184.08624727 -98.15234375 158.55078125 C-99.23081943 156.12651802 -100.2569523 153.68831207 -101.27734375 151.23828125 C-101.67695312 150.32820312 -102.0765625 149.418125 -102.48828125 148.48046875 C-112.44686629 123.99582733 -110.88273771 93.44726203 -101.07421875 69.296875 C-96.33811235 58.26110563 -90.17796134 48.28391588 -82.27734375 39.23828125 C-81.72691406 38.55636719 -81.17648438 37.87445313 -80.609375 37.171875 C-63.72041233 16.67244525 -36.50593987 3.55458393 -10.41548157 0.4432373 C-6.94469973 0.11053763 -3.48494016 0.03601885 0 0 Z " fill="#FDC3DB" transform="translate(143.27734375,51.76171875)"/>
<path d="M0 0 C5.75459363 5.34888944 9.56680437 11.54107653 9.91796875 19.51953125 C9.56973003 25.56622178 8.72516523 31.54739481 4.60546875 36.19921875 C-1.43579849 41.55195921 -5.3646666 43.53422646 -13.49609375 43.40625 C-17.83581932 42.94087891 -20.0605506 41.71386436 -23.51953125 39.08203125 C-25.51953125 36.08203125 -25.51953125 36.08203125 -25.51953125 34.20703125 C-24.25310758 31.51588095 -22.3155503 30.23899575 -20.0234375 28.421875 C-17.11015128 25.82640182 -15.64423511 23.00171498 -15.390625 19.09765625 C-15.63031757 15.23352147 -16.28524243 13.38325973 -18.70703125 10.26953125 C-24.97170439 5.3970077 -31.01863843 3.57565878 -38.85546875 3.6796875 C-44.39913742 4.51692778 -48.53443656 7.72070914 -52.0859375 11.9453125 C-55.23208248 16.63165979 -56.94784226 21.69793452 -58.51953125 27.08203125 C-58.84953125 28.07203125 -59.17953125 29.06203125 -59.51953125 30.08203125 C-60.7167223 43.46329321 -58.92215998 57.77430718 -50.1328125 68.625 C-45.08568322 73.1833032 -39.33036695 77.11963055 -32.51953125 78.08203125 C-32.51953125 80.72203125 -32.51953125 83.36203125 -32.51953125 86.08203125 C-33.0928418 86.22713135 -33.66615234 86.37223145 -34.25683594 86.52172852 C-55.91078367 91.89292951 -55.91078367 91.89292951 -72.51953125 106.08203125 C-79.77588322 118.97410126 -82.71343473 130.63672757 -79.87109375 145.46484375 C-76.50592651 155.56034548 -69.51330856 163.52827015 -60.51953125 169.08203125 C-51.32868138 173.50004874 -44.13014386 175.26344052 -34.01953125 175.26953125 C-32.98054688 175.28177734 -31.9415625 175.29402344 -30.87109375 175.30664062 C-20.97942397 175.32514125 -12.05282712 174.37097754 -3.20703125 169.76953125 C-2.07652344 169.19589844 -0.94601562 168.62226563 0.21875 168.03125 C10.37587228 161.96130507 15.88451186 153.22027721 19.48046875 142.08203125 C21.73911777 132.67099365 21.31168738 123.56854139 16.48046875 115.08203125 C13.50798781 110.57093532 13.50798781 110.57093532 9.48046875 107.08203125 C2.16966762 107.38995901 -5.04804482 111.55026466 -10.08203125 116.70703125 C-13.01454156 121.55204828 -13.9058209 124.29451186 -13.1328125 129.95703125 C-12.18971719 133.22482647 -10.40042907 134.43580393 -7.51953125 136.08203125 C-6.52953125 136.41203125 -5.53953125 136.74203125 -4.51953125 137.08203125 C-5.87235294 141.50944769 -7.75252013 143.44512346 -11.51953125 146.08203125 C-15.86056901 148.25255013 -22.02910442 147.86205173 -26.58984375 146.43359375 C-32.1019527 143.5415904 -36.13681603 138.8474617 -38.89453125 133.33203125 C-40.86239049 123.0991632 -39.25761312 115.8492293 -33.51953125 107.08203125 C-31.11415657 104.04591388 -28.48681663 101.56496592 -25.51953125 99.08203125 C-24.74867187 98.42332031 -23.9778125 97.76460938 -23.18359375 97.0859375 C-15.47360102 90.9247263 -6.99637988 86.13652521 1.58789062 81.30615234 C16.7572055 72.70551623 16.7572055 72.70551623 28.48046875 60.08203125 C29.25226175 53.69719825 28.83057074 48.66553456 25.48046875 43.08203125 C25.48046875 42.09203125 25.48046875 41.10203125 25.48046875 40.08203125 C34.98015311 35.81686684 43.87340492 33.18291586 54.16796875 36.26953125 C62.03616591 39.26693969 66.67443433 43.5643269 70.48046875 51.08203125 C73.09962782 58.93950845 72.51753231 67.99919732 69.04296875 75.45703125 C61.60886603 88.3071624 50.35232556 95.01587335 36.29296875 99.01953125 C33.51357655 99.71542105 31.3591575 100.08203125 28.48046875 100.08203125 C28.48046875 100.74203125 28.48046875 101.40203125 28.48046875 102.08203125 C29.06699219 102.30632812 29.65351562 102.530625 30.2578125 102.76171875 C36.71214876 106.5957533 40.42358731 116.11148859 42.48046875 123.08203125 C43.01519999 125.85291133 43.32868401 128.28740641 43.48046875 131.08203125 C43.54492188 132.19835937 43.609375 133.3146875 43.67578125 134.46484375 C44.22416958 152.26918473 37.06774267 168.39571976 25.16796875 181.51953125 C11.41283438 195.94395102 -9.44218864 208.24701524 -29.81494141 209.24316406 C-64.60146365 209.63336113 -95.57651977 206.85013323 -121.97119141 181.64208984 C-133.05750433 170.47186916 -140.18289765 156.18146039 -140.83203125 140.39453125 C-140.31306939 122.88639702 -133.90130449 107.05870935 -121.4140625 94.7578125 C-111.89181634 85.95519628 -102.34784038 80.75059823 -90.43554688 75.90063477 C-88.41915431 75.03914595 -86.47126986 74.08042479 -84.51953125 73.08203125 C-85.08800781 72.70433594 -85.65648437 72.32664062 -86.2421875 71.9375 C-94.60565653 65.97556131 -100.53424486 58.00102582 -103.078125 47.9375 C-104.80852678 36.74348496 -104.07735442 27.15374785 -98.51953125 17.08203125 C-98.07351563 16.27121094 -97.6275 15.46039063 -97.16796875 14.625 C-88.9267399 1.11214711 -74.85132873 -6.68821227 -59.89453125 -10.60546875 C-39.56605371 -14.76356643 -16.88608484 -12.85436846 0 0 Z " fill="#FDC3DB" transform="translate(1097.51953125,63.91796875)"/>
<path d="M0 0 C6.08728719 4.86982975 10.77033738 10.61208105 12.8125 18.25 C13.92680916 28.3413841 12.6155768 36.62332156 6.75 44.9375 C-0.59198337 53.70199265 -10.03569198 56.99446343 -21.1875 58.25 C-25.21545756 58.54108455 -29.24819167 58.68925166 -33.28320312 58.84594727 C-56.3443859 59.86897265 -77.20823548 72.32463345 -92.75 88.875 C-102.79147374 99.95837904 -109.95027409 112.73902019 -116.1875 126.25 C-116.67089844 127.27738281 -117.15429688 128.30476562 -117.65234375 129.36328125 C-124.84428799 145.51783078 -125.78107438 160.45537501 -125.59912109 177.92407227 C-125.56239722 181.57271117 -125.55810447 185.22033516 -125.55859375 188.86914062 C-125.54876693 191.22136283 -125.53711184 193.57357826 -125.5234375 195.92578125 C-125.52121185 196.99999832 -125.51898621 198.07421539 -125.51669312 199.1809845 C-125.37216137 210.83267265 -124.26437743 223.0173052 -115.75 231.75 C-112.74728147 233.62601277 -112.74728147 233.62601277 -107.1875 235.25 C-106.6925 242.18 -106.6925 242.18 -106.1875 249.25 C-138.5275 249.25 -170.8675 249.25 -204.1875 249.25 C-204.1875 244.96 -204.1875 240.67 -204.1875 236.25 C-202.640625 235.569375 -201.09375 234.88875 -199.5 234.1875 C-193.21158361 230.97677118 -190.60197762 228.0056085 -188.12365723 221.42536926 C-185.01851901 211.52895342 -184.59795307 202.49206666 -184.65625 192.19921875 C-184.65354535 190.48875204 -184.64965492 188.77828685 -184.64465332 187.06782532 C-184.63879912 183.50348095 -184.64718465 179.93954099 -184.66601562 176.37524414 C-184.68875043 171.85710842 -184.67569087 167.3399265 -184.65172577 162.82182598 C-184.63711134 159.29453143 -184.64194525 155.7674543 -184.65223694 152.24015236 C-184.65486404 150.57675876 -184.65177995 148.91334397 -184.64231873 147.2499752 C-184.57251552 131.53015438 -185.7758361 112.91649235 -197.3515625 101.02734375 C-199.24480577 99.3448325 -201.15589074 97.76081602 -203.1875 96.25 C-193.50539603 83.83704619 -179.4341696 78.05247344 -164.1875 75.25 C-159.6143931 74.88064776 -155.08542305 74.87306179 -150.5 74.9375 C-149.34177734 74.93427734 -148.18355469 74.93105469 -146.99023438 74.92773438 C-139.93931341 74.97177761 -132.63476952 75.02636524 -126.1875 78.25 C-125.8575 89.47 -125.5275 100.69 -125.1875 112.25 C-123.970625 109.300625 -122.75375 106.35125 -121.5 103.3125 C-104.54131485 63.43017629 -78.76801709 17.94002527 -37.78515625 -1.3515625 C-24.95930984 -6.51652652 -12.16838688 -6.68068299 0 0 Z " fill="#FDC3DB" transform="translate(640.1875,17.75)"/>
<path d="M0 0 C1.19302734 -0.00322266 2.38605469 -0.00644531 3.61523438 -0.00976562 C21.59898714 0.09898714 21.59898714 0.09898714 24.8125 3.3125 C24.91813334 5.72651199 24.95854752 8.11234287 24.95726013 10.5271759 C24.96078698 11.29135493 24.96431382 12.05553397 24.96794754 12.84286994 C24.97868844 15.42365428 24.98232495 18.0044018 24.98608398 20.58520508 C24.99238556 22.42792926 24.99915091 24.2706519 25.00634766 26.1133728 C25.02105157 30.09340408 25.03276292 34.07342935 25.04229546 38.05347633 C25.05772341 44.35360609 25.08167606 50.65368521 25.10719299 56.95378113 C25.17844898 74.87337033 25.23803553 92.7929894 25.28930664 110.71264648 C25.31767399 120.60075811 25.35309688 130.48882023 25.39596039 140.37687987 C25.42264835 146.63149705 25.44060632 152.88605817 25.45199764 159.14072096 C25.46117064 163.04839252 25.47855559 166.95599664 25.49817657 170.86362839 C25.50560553 172.66625461 25.5097303 174.46889821 25.51017189 176.27153969 C25.25835191 196.23317487 25.25835191 196.23317487 32.8125 214.3125 C36.45469859 217.85468398 40.07645821 219.41808328 44.8125 221.3125 C44.8125 225.6025 44.8125 229.8925 44.8125 234.3125 C12.4725 234.3125 -19.8675 234.3125 -53.1875 234.3125 C-53.1875 230.0225 -53.1875 225.7325 -53.1875 221.3125 C-51.66125 220.69375 -50.135 220.075 -48.5625 219.4375 C-42.39553509 216.30604257 -39.84545438 212.58132142 -37.1875 206.3125 C-34.44786475 196.8156062 -33.75221265 187.62181495 -33.79931641 177.78662109 C-33.79523757 176.39517305 -33.78988843 175.00372826 -33.78338623 173.61228943 C-33.76986495 169.87887786 -33.77494672 166.14571868 -33.78452349 162.41230345 C-33.79219684 158.47950349 -33.7850537 154.54672305 -33.78036499 150.61392212 C-33.77493082 144.01568783 -33.78203855 137.4175548 -33.79638672 130.81933594 C-33.81272232 123.21999809 -33.80740872 115.62090166 -33.7909075 108.02156961 C-33.77724178 101.46232218 -33.7753973 94.90314691 -33.78322351 88.34388983 C-33.78787047 84.44134102 -33.78860756 80.53890527 -33.77861404 76.63636398 C-33.76987154 72.96715949 -33.77609718 69.29826291 -33.79329681 65.62909126 C-33.79907711 63.66106195 -33.79030974 61.69300622 -33.78091431 59.72499084 C-33.86015722 48.48895959 -35.07159197 36.78408528 -43.1875 28.3125 C-46.70796327 25.6939736 -50.35059831 23.43576766 -54.1875 21.3125 C-49.07540454 11.3317422 -37.26177099 6.85834097 -27.1875 3.3125 C-18.0644084 0.63119651 -9.47647328 -0.12924814 0 0 Z " fill="#FEC3DC" transform="translate(831.1875,32.6875)"/>
<path d="M0 0 C9.15342768 3.63231257 13.87239801 12.05699489 17.6875 20.6875 C23.80402695 36.37245524 25.23407072 51.36954788 25.25 68.0625 C25.25100708 68.79577515 25.25201416 69.52905029 25.25305176 70.2845459 C25.24296678 81.1413174 24.78725007 91.44912205 22 102 C21.70996094 103.15757812 21.41992188 104.31515625 21.12109375 105.5078125 C18.04338328 116.60817412 12.96906646 128.30345521 3.125 134.9375 C-2.08798996 136.70991659 -6.02795613 136.92565325 -11.0625 134.5625 C-25.16107231 122.26374543 -30.49717418 102.76342286 -31.859375 84.65234375 C-33.25815055 58.26988262 -33.61209405 26.23052554 -15 5 C-10.35543909 1.12155223 -6.16017898 -1.10003196 0 0 Z M-21 61 C-21.56319113 81.69943999 -20.81328486 104.06130817 -9 122 C-8.67 122 -8.34 122 -8 122 C-7.12164017 115.31387201 -6.95285294 109.07572983 -7.6875 102.375 C-7.77926514 101.51326172 -7.87103027 100.65152344 -7.96557617 99.76367188 C-9.42176819 87.24573258 -11.55150396 69.98783117 -21 61 Z " fill="#205122" transform="translate(347,113)"/>
<path d="M0 0 C0.80285183 15.93214846 -0.11745787 33.65434481 -10 47 C-10.52464844 47.71414062 -11.04929687 48.42828125 -11.58984375 49.1640625 C-16.20844931 54.92422817 -21.08138139 57.6937938 -28 60 C-36.36642648 60.71578123 -43.63111006 60.25605045 -51 56 C-53.9375 53.5 -53.9375 53.5 -56 51 C-56.556875 50.38125 -57.11375 49.7625 -57.6875 49.125 C-61.65065436 42.70846438 -61.75618645 35.32847361 -61 28 C-58.82336654 19.61113699 -54.76684183 13.58923267 -47.4375 8.875 C-36.81555373 2.83475891 -25.89844754 1.04565116 -13.875 0.4375 C-13.08996094 0.39431641 -12.30492187 0.35113281 -11.49609375 0.30664062 C-7.65954556 0.10284422 -3.8435281 -0.0540255 0 0 Z " fill="#215222" transform="translate(682,180)"/>
<path d="M0 0 C0.64635671 16.87709191 -1.22827174 35.77283369 -12.40625 49.2890625 C-17.98143673 55.27418943 -23.27494354 59.38107498 -31.6015625 60.28125 C-39.64824151 60.55325042 -47.35431281 59.36956891 -53.875 54.375 C-59.85829001 48.54730382 -61.40287302 42.28759062 -61.5625 34.0625 C-61.47134989 25.95389892 -59.64371117 20.0166283 -54.16796875 13.98046875 C-49.91624411 9.99709754 -45.36926354 7.20965846 -40 5 C-39.05640625 4.58621094 -39.05640625 4.58621094 -38.09375 4.1640625 C-26.31030098 -0.41335423 -12.46175369 -0.35548584 0 0 Z " fill="#215222" transform="translate(1719,180)"/>
<path d="M0 0 C0.33 0 0.66 0 1 0 C0.98952637 1.21993652 0.97905273 2.43987305 0.96826172 3.69677734 C0.93180884 8.26282772 0.90900824 12.82886546 0.89013672 17.39501953 C0.8801364 19.3637916 0.86653177 21.33254905 0.84912109 23.30126953 C0.8246083 26.14619581 0.81345694 28.99092415 0.8046875 31.8359375 C0.79436493 32.70302338 0.78404236 33.57010925 0.77340698 34.46347046 C0.77189917 42.84902164 1.58277384 51.24935407 6.359375 58.37109375 C9.31617505 61.3067738 13.00804811 62.16508196 17 63 C18.27138808 67.92662882 18 71.53685423 18 77 C-5.1 77 -28.2 77 -52 77 C-52 72.38 -52 67.76 -52 63 C-50.205625 62.4121875 -50.205625 62.4121875 -48.375 61.8125 C-41.94337186 59.35802707 -37.70665666 55.69082161 -34.875 49.42578125 C-31.7946219 40.88598302 -30.5245447 32.02578637 -30 23 C-29.41734375 22.81566406 -28.8346875 22.63132813 -28.234375 22.44140625 C-16.97384064 18.45772664 -8.45827144 11.43702761 -1.42578125 1.87109375 C-0.95527344 1.25363281 -0.48476562 0.63617188 0 0 Z " fill="#FCC2DA" transform="translate(1348,190)"/>
</svg>
