<?xml version="1.0" encoding="UTF-8"?>
<svg version="1.1" xmlns="http://www.w3.org/2000/svg" width="1431" height="298">
<path d="M0 0 C7.44669142 7.31885122 11.06287422 14.63048706 11.25 25.1875 C11.17232188 33.43247709 8.38444869 40.58644573 5 48 C5.93005859 47.94779297 5.93005859 47.94779297 6.87890625 47.89453125 C20.74868997 47.47056406 33.74788835 50.86384076 45.7890625 57.6328125 C46.97943115 58.30014404 46.97943115 58.30014404 48.19384766 58.98095703 C48.78987793 59.31724121 49.3859082 59.65352539 50 60 C50.61258667 58.72938721 50.61258667 58.72938721 51.23754883 57.43310547 C52.76357238 54.26838873 54.28998307 51.10385933 55.81665039 47.93945312 C56.47533259 46.57396729 57.1338637 45.20840856 57.79223633 43.84277344 C58.74259658 41.87154929 59.69351316 39.90059434 60.64453125 37.9296875 C61.21534424 36.74616699 61.78615723 35.56264648 62.37426758 34.34326172 C68.0708443 22.62845144 74.8786168 15.18943689 87.5078125 10.7734375 C97.0453117 7.95876152 105.96699428 6.80377479 115.875 6.75 C116.81730469 6.729375 117.75960937 6.70875 118.73046875 6.6875 C126.16952054 6.64634342 132.67071817 7.30075262 138.58916759 12.09919262 C141.52844729 15.63584835 141.70657831 18.14798406 141.63923645 22.54866028 C141.65176996 23.67600359 141.65176996 23.67600359 141.66455668 24.82612151 C141.68647336 27.34004002 141.67288465 29.85249578 141.65942383 32.36645508 C141.66787712 34.1701366 141.67852126 35.973809 141.69119263 37.77746582 C141.71936471 42.67176881 141.71686279 47.56563392 141.70889878 52.4599936 C141.70577619 57.57566449 141.73080083 62.69119532 141.75285339 67.80680847 C141.79032493 77.49293404 141.80244323 87.17891921 141.8054778 96.8651101 C141.81016525 107.89289535 141.84307852 118.92053966 141.87837565 129.94826281 C141.95034839 152.63215813 141.98683305 175.31599973 142 198 C142.38961914 197.45730469 142.77923828 196.91460937 143.18066406 196.35546875 C143.70370117 195.64003906 144.22673828 194.92460937 144.765625 194.1875 C145.27899414 193.47980469 145.79236328 192.77210938 146.32128906 192.04296875 C149.79477227 187.81578616 153.59186945 185.35039793 159.11816406 184.78222656 C172.35677646 184.11892549 172.35677646 184.11892549 178 186 C177.75987183 185.1646875 177.75987183 185.1646875 177.51489258 184.3125 C176.54093604 179.93823907 176.73025985 175.46412811 176.6875 171 C176.65849609 170.02160156 176.62949219 169.04320312 176.59960938 168.03515625 C176.49040272 155.24957744 181.81521826 144.7604796 187.375 133.5 C187.92671875 132.36691406 188.4784375 131.23382813 189.046875 130.06640625 C190.68694938 126.70540874 192.34091422 123.35164867 194 120 C194.5662207 118.85144531 195.13244141 117.70289062 195.71582031 116.51953125 C196.25561523 115.43027344 196.79541016 114.34101562 197.3515625 113.21875 C198.07980225 111.74825195 198.07980225 111.74825195 198.82275391 110.24804688 C200 108 200 108 201 107 C201.25018637 103.40936221 201.38440536 99.81919811 201.5234375 96.22265625 C202.38301583 86.17678095 206.9737367 77.4115669 211.375 68.5 C211.93960938 67.34113281 212.50421875 66.18226562 213.0859375 64.98828125 C214.71367388 61.65368242 216.35527218 58.32624359 218 55 C218.47099121 54.03610352 218.94198242 53.07220703 219.42724609 52.07910156 C219.85859863 51.2022168 220.28995117 50.32533203 220.734375 49.421875 C221.10530273 48.66487305 221.47623047 47.90787109 221.85839844 47.12792969 C228.27229041 35.17252284 239.33118784 27.07239512 252 22.625 C259.00496302 20.79293275 265.90423436 20.57666441 273.125 20.5 C274.75115234 20.47220459 274.75115234 20.47220459 276.41015625 20.44384766 C288.68301134 20.53868335 300.48258736 24.40606262 309.8125 32.58984375 C315.92842334 39.0880123 318.35330105 47.26956423 319 56 C320.50626953 55.51853516 320.50626953 55.51853516 322.04296875 55.02734375 C330.04182206 52.75775205 339.07198442 52.56974503 346.625 56.25 C348.1052619 57.130817 349.56764787 58.0432444 351 59 C351.928125 59.5775 352.85625 60.155 353.8125 60.75 C359.92520999 67.03735885 362.11334659 74.14083525 362.25 82.75 C362.27578125 83.71421875 362.3015625 84.6784375 362.328125 85.671875 C361.39650464 95.12116723 356.4378539 103.82330264 352.41992188 112.29589844 C351.36543968 114.52016602 350.31888321 116.74803537 349.2734375 118.9765625 C348.60722425 120.39083868 347.94057379 121.804909 347.2734375 123.21875 C346.80313614 124.21859924 346.80313614 124.21859924 346.32333374 125.23864746 C344.11647275 129.88352725 344.11647275 129.88352725 343 131 C342.7897511 134.23316087 342.68044747 137.46498071 342.57421875 140.703125 C341.4968496 151.72148877 336.47039361 162.00089849 331.78393555 171.88354492 C330.81796305 173.92594921 329.87216503 175.97685852 328.92773438 178.02929688 C318.39518326 200.61081585 305.47106368 217.14360807 282 227 C261.28998245 234.43305085 235.19282635 232.51781258 215 224 C207.68726163 220.52121288 201.12281975 216.29541167 195 211 C194.92523437 211.92039063 194.85046875 212.84078125 194.7734375 213.7890625 C193.76919849 223.45732436 191.32256157 231.20684394 187 240 C186.70899414 240.59731934 186.41798828 241.19463867 186.11816406 241.81005859 C184.65695176 244.8037033 183.16734943 247.77906949 181.65234375 250.74609375 C180.63724986 252.74508478 179.64479212 254.7560096 178.69140625 256.78515625 C172.44192831 270.04224553 163.54524509 278.85041567 149.625 283.9375 C141.34911214 286.69301571 134.05525571 287.21512163 125.35473633 287.24023438 C123.33567284 287.24988919 121.31765113 287.28092891 119.29882812 287.3125 C109.86221456 287.34996546 101.99572851 286.56695456 93.875 281.5625 C91.12309339 280.09322045 91.12309339 280.09322045 88.1484375 280.53125 C86.85817506 281.2321333 85.58836468 281.97174153 84.33959961 282.74414062 C75.37969487 287.55367313 64.96702035 287.49272034 55.0625 287.4375 C53.79470703 287.45748047 52.52691406 287.47746094 51.22070312 287.49804688 C36.37838104 287.49043933 24.14875409 283.40906759 13.1640625 273.3125 C11.62359958 271.61717573 10.31200136 269.87751919 9 268 C8.42765625 267.23429687 7.8553125 266.46859375 7.265625 265.6796875 C-0.46834658 254.60754871 -3.2475761 242.14802702 -4.640625 228.9140625 C-4.82676786 226.06781781 -4.82676786 226.06781781 -6 224 C-6.60585938 224.26554688 -7.21171875 224.53109375 -7.8359375 224.8046875 C-24.98101091 232.03199537 -44.74598447 232.35168814 -62.24609375 225.78125 C-70.44990232 222.01899384 -77.9492968 216.57605479 -83 209 C-83.53109375 209.97582031 -84.0621875 210.95164063 -84.609375 211.95703125 C-85.32245158 213.24244561 -86.03601917 214.52758768 -86.75 215.8125 C-87.09804688 216.45509766 -87.44609375 217.09769531 -87.8046875 217.75976562 C-89.81592162 221.3539155 -91.39915997 223.96816289 -95 226 C-97.5627258 226.29476074 -99.88182672 226.42057682 -102.44311523 226.40405273 C-103.18669281 226.41091599 -103.93027039 226.41777924 -104.69638062 226.42485046 C-107.15064675 226.44312895 -109.60427425 226.43927957 -112.05859375 226.43359375 C-113.76725981 226.43815519 -115.47592402 226.44346065 -117.18458557 226.44947815 C-120.76481583 226.45841138 -124.34482305 226.45598392 -127.92504883 226.44604492 C-132.5096337 226.43455703 -137.09344814 226.45476246 -141.67793179 226.48396206 C-145.20645526 226.50232248 -148.73479408 226.50203191 -152.26335335 226.49632454 C-153.95342146 226.49617129 -155.64350206 226.50221843 -157.3335247 226.51461601 C-159.69866909 226.52952116 -162.06238992 226.51885388 -164.42749023 226.50170898 C-165.12323654 226.51137695 -165.81898285 226.52104492 -166.53581238 226.53100586 C-171.27606336 226.45917607 -173.66612134 225.34093995 -177 222 C-178.41634833 219.16730334 -178.3463005 216.52533562 -178.5625 213.375 C-178.64628906 212.18648437 -178.73007812 210.99796875 -178.81640625 209.7734375 C-178.87699219 208.85820312 -178.93757813 207.94296875 -179 207 C-179.59425781 207.58007812 -180.18851562 208.16015625 -180.80078125 208.7578125 C-198.20668501 225.16213237 -217.23396532 228.65602853 -240.390625 228.3125 C-258.00666436 227.71635654 -272.89614141 220.39893823 -285.6875 208.5 C-288.54837785 205.40715908 -291.2930529 202.22787163 -294 199 C-295.3921875 200.2065625 -295.3921875 200.2065625 -296.8125 201.4375 C-297.46089844 201.98664063 -298.10929688 202.53578125 -298.77734375 203.1015625 C-300.30818854 204.40910304 -301.82035078 205.73873072 -303.31640625 207.0859375 C-324.59826081 225.60602467 -352.28313576 231.87097829 -380 230 C-404.08818505 227.60692541 -425.94772341 216.20926645 -441.8046875 197.8515625 C-458.45375876 176.22554467 -462.76154795 151.34461054 -459.71142578 124.45605469 C-458.96507654 120.10619104 -457.63024343 116.09025148 -456 112 C-455.54882812 110.85789062 -455.09765625 109.71578125 -454.6328125 108.5390625 C-453.24559385 105.18371062 -451.73708458 101.89247994 -450.203125 98.60205078 C-448.7565448 95.47346885 -447.3483947 92.32842642 -445.9375 89.18359375 C-445.09513772 87.32318506 -444.25054344 85.46381424 -443.4045105 83.60507202 C-442.58766196 81.80543548 -441.77916861 80.00201384 -440.97094727 78.19848633 C-436.12063602 67.64472675 -430.2746691 57.77649122 -422.25 49.3125 C-421.74251221 48.77343018 -421.23502441 48.23436035 -420.7121582 47.67895508 C-405.72727296 32.15798759 -385.07084927 21.2016038 -363.21620178 20.78410339 C-362.50676926 20.77671646 -361.79733673 20.76932953 -361.06640625 20.76171875 C-360.31141342 20.753647 -359.55642059 20.74557526 -358.77854919 20.73725891 C-357.1825485 20.72348142 -355.58651913 20.71273119 -353.99047852 20.70483398 C-352.38784908 20.69339239 -350.78525535 20.67306671 -349.18286133 20.64331055 C-328.8387135 20.26668396 -311.34485091 25.01159008 -296.25 39.4609375 C-284.78965213 52.39362173 -281.42368708 66.30672895 -281 83 C-280.05640625 81.71416016 -280.05640625 81.71416016 -279.09375 80.40234375 C-267.14651619 64.33561725 -252.15172201 53.43970898 -232 50 C-227.82257537 49.78502142 -223.64722184 49.77191117 -219.46459961 49.75976562 C-217.46781407 49.75014604 -215.4711698 49.71898839 -213.47460938 49.6875 C-194.63291669 49.61232118 -180.23197659 55.74024489 -166 68 C-164.6749079 69.010895 -163.34420167 70.0146576 -162 71 C-161.484375 70.13375 -160.96875 69.2675 -160.4375 68.375 C-154.2632446 59.31518194 -143.14212632 53.43809222 -132.6875 50.625 C-120.87015283 48.6220598 -108.70300973 47.68497721 -96.953125 50.5625 C-94.8456784 51.10929165 -94.8456784 51.10929165 -92 51 C-90.46662336 48.73169136 -89.13075165 46.51418882 -87.8125 44.125 C-84.0455156 37.58424304 -79.96775814 31.70620868 -75 26 C-74.29101562 25.18144531 -73.58203125 24.36289062 -72.8515625 23.51953125 C-70.60445924 20.97675651 -68.31062834 18.48508854 -66 16 C-65.25234375 15.16339844 -64.5046875 14.32679687 -63.734375 13.46484375 C-48.08821323 -3.2952004 -20.47885948 -16.12165533 0 0 Z M-366 90 C-367.91873395 90.65748515 -367.91873395 90.65748515 -369.9375 91.75 C-370.62714844 92.09546875 -371.31679688 92.4409375 -372.02734375 92.796875 C-374.69254561 94.42238425 -376.54433134 95.804199 -377.67578125 98.7734375 C-378.10759481 101.73890413 -378.17059009 104.62856362 -378.1875 107.625 C-378.20167969 108.77226563 -378.21585937 109.91953125 -378.23046875 111.1015625 C-378.30529658 114.12725901 -378.30529658 114.12725901 -376 116 C-372.04 107.75 -368.08 99.5 -364 91 C-364.66 90.67 -365.32 90.34 -366 90 Z M-71 100 C-81.41600511 107.22853729 -81.41600511 107.22853729 -87 118 C-87.1065976 120.60940185 -87.16395217 123.19129178 -87.16796875 125.80078125 C-87.17129715 126.55538132 -87.17462555 127.30998138 -87.17805481 128.08744812 C-87.18310862 129.6819091 -87.18546361 131.27638062 -87.18530273 132.87084961 C-87.18748303 135.29363738 -87.2056377 137.71596495 -87.22460938 140.13867188 C-87.22754498 141.69270679 -87.22952866 143.24674385 -87.23046875 144.80078125 C-87.23765427 145.51768631 -87.24483978 146.23459137 -87.25224304 146.97322083 C-87.23098222 151.72266626 -86.61168647 155.57379665 -85 160 C-84.34 160.33 -83.68 160.66 -83 161 C-81.09586656 157.28502049 -79.23202525 153.55122113 -77.375 149.8125 C-76.56289063 148.22985352 -76.56289063 148.22985352 -75.734375 146.61523438 C-75.23164063 145.59365234 -74.72890625 144.57207031 -74.2109375 143.51953125 C-73.73962402 142.58214111 -73.26831055 141.64475098 -72.78271484 140.67895508 C-71.80261194 137.32441072 -72.41774392 136.04656217 -74 133 C-77.55018562 124.32176849 -76.24486466 116.57051698 -73 108 C-72 106 -71 104 -70 102 C-70.33 101.34 -70.66 100.68 -71 100 Z M-226 135 C-225 138 -225 138 -225 138 Z M-225 139 C-224 143 -224 143 -224 143 Z " fill="#205122" transform="translate(466,9)"/>
<path d="M0 0 C3.07816591 1.25639425 4.41036102 2.01983147 6.10690308 4.84002686 C7.07668155 7.18545589 7.24226893 8.78335824 7.22705078 11.30957031 C7.22689972 12.15013977 7.22674866 12.99070923 7.22659302 13.85675049 C7.21627045 14.75480408 7.20594788 15.65285767 7.1953125 16.578125 C7.19106766 17.96798615 7.19106766 17.96798615 7.18673706 19.38592529 C7.17555611 22.34074909 7.15045527 25.29526805 7.125 28.25 C7.11496751 30.25520395 7.10584213 32.26041266 7.09765625 34.265625 C7.07562358 39.17720051 7.04110795 44.08854859 7 49 C8.09699219 48.95359375 9.19398438 48.9071875 10.32421875 48.859375 C11.7786185 48.8218421 13.23304783 48.78544357 14.6875 48.75 C15.40873047 48.71648438 16.12996094 48.68296875 16.87304688 48.6484375 C20.77954343 48.57708596 22.56934334 48.72465281 25.95703125 50.890625 C30.52305277 55.60506404 29.74127583 61.89466036 29.8815918 68.13549805 C29.62007327 80.21987171 24.29653123 89.8524753 18.52587891 100.21337891 C16.60388819 103.72339523 14.87419975 107.3129627 13.16479492 110.93041992 C11.98147823 113.03290905 10.85867882 114.46779203 9 116 C8.34 116 7.68 116 7 116 C7 126.89 7 137.78 7 149 C8.32 148.34 9.64 147.68 11 147 C15.45660729 146.56871542 17.93549409 146.51210146 22 148.375 C32.2760653 157.36655714 32.2760653 157.36655714 33.42358398 163.12597656 C33.92882572 170.87042155 30.79420852 176.76515937 27.3125 183.5 C26.78205078 184.56347656 26.25160156 185.62695312 25.70507812 186.72265625 C24.65361482 188.82558285 23.59121029 190.92307844 22.51733398 193.01464844 C21.54284593 194.93195172 20.59218851 196.86166016 19.67211914 198.80566406 C13.7536049 211.26838732 3.33914445 220.16170139 -9.6875 224.8125 C-23.4495499 229.22170045 -39.8583081 228.34334535 -52.89453125 222.13671875 C-57.73827183 219.52163803 -62.01881704 216.73481999 -65 212 C-67.89121554 213.34326386 -70.26115693 214.89009623 -72.75 216.875 C-82.07536765 224 -82.07536765 224 -87 224 C-87.27763184 224.86931152 -87.55526367 225.73862305 -87.84130859 226.63427734 C-95.17971987 247.95061487 -104.7401741 269.09071712 -125.484375 279.640625 C-135.60577189 283.5542318 -145.13712751 284.49771495 -155.9375 284.4375 C-157.20529297 284.45748047 -158.47308594 284.47746094 -159.77929688 284.49804688 C-174.62161896 284.49043933 -186.85124591 280.40906759 -197.8359375 270.3125 C-199.37640042 268.61717573 -200.68799864 266.87751919 -202 265 C-202.57234375 264.23429687 -203.1446875 263.46859375 -203.734375 262.6796875 C-211.46834658 251.60754871 -214.2475761 239.14802702 -215.640625 225.9140625 C-215.82676786 223.06781781 -215.82676786 223.06781781 -217 221 C-217.94101563 221.34933594 -218.88203125 221.69867188 -219.8515625 222.05859375 C-221.10927474 222.51850345 -222.36709293 222.97812347 -223.625 223.4375 C-224.85476563 223.88996094 -226.08453125 224.34242188 -227.3515625 224.80859375 C-240.57597591 229.12705852 -260.12536256 228.94325785 -273.00439453 223.08886719 C-276.16865579 221.45226027 -279.20199172 219.65334235 -282.20703125 217.7421875 C-284.92670218 215.89455232 -284.92670218 215.89455232 -288 215 C-288.598125 215.94875 -289.19625 216.8975 -289.8125 217.875 C-292 221 -292 221 -295 223 C-297.50458154 223.20924211 -299.89965024 223.30404777 -302.40551758 223.30639648 C-303.53288582 223.31888176 -303.53288582 223.31888176 -304.68302917 223.33161926 C-307.17024911 223.35573442 -309.65720677 223.36449373 -312.14453125 223.37109375 C-313.87464985 223.38005994 -315.60476765 223.38918178 -317.33488464 223.39845276 C-320.96391687 223.41495012 -324.59285678 223.42264404 -328.22192383 223.42553711 C-332.86593387 223.43091741 -337.50907262 223.46857903 -342.1528368 223.51428127 C-345.72770837 223.54406786 -349.30237071 223.55126103 -352.87735558 223.55226326 C-354.58895541 223.5564635 -356.30055597 223.56889004 -358.01203346 223.58978081 C-360.41076722 223.6167259 -362.80748954 223.61186178 -365.20629883 223.59936523 C-366.26090805 223.62161667 -366.26090805 223.62161667 -367.33682251 223.64431763 C-372.92878464 223.56162065 -375.20745178 221.81043452 -379 218 C-381.66820518 212.66358964 -380.32118579 204.62290984 -379 199 C-376.99563546 193.73259573 -374.48500388 188.74028984 -371.86230469 183.75708008 C-371.37020508 182.8214624 -370.87810547 181.88584473 -370.37109375 180.921875 C-369.6893811 179.67809082 -369.6893811 179.67809082 -368.99389648 178.40917969 C-367.89949963 175.75638967 -367.80793151 173.84147455 -368 171 C-368.29390625 171.85335937 -368.5878125 172.70671875 -368.890625 173.5859375 C-372.14584065 182.7588137 -375.96553595 191.64388982 -380 200.5 C-380.74685059 202.16361572 -380.74685059 202.16361572 -381.50878906 203.86083984 C-388.26623501 218.51082334 -388.26623501 218.51082334 -395 223 C-399.53251685 223.4116696 -404.07461075 223.37160195 -408.62353516 223.37060547 C-410.86047902 223.37497166 -413.09543738 223.41127697 -415.33203125 223.44921875 C-416.76040995 223.45508877 -418.18879798 223.45905693 -419.6171875 223.4609375 C-421.56020752 223.47326416 -421.56020752 223.47326416 -423.54248047 223.48583984 C-427.57120524 222.91973602 -429.15786193 221.85342792 -432 219 C-433.80078125 215.984375 -433.80078125 215.984375 -435.3125 212.75 C-435.82425781 211.67234375 -436.33601562 210.5946875 -436.86328125 209.484375 C-437.42595703 208.25460938 -437.42595703 208.25460938 -438 207 C-440.74990782 209.74990782 -441.90570642 212.96951263 -443.48828125 216.4921875 C-445.45705712 219.75821878 -446.65595965 221.03809161 -450 223 C-454.24430496 223.6207393 -458.46272972 223.5840783 -462.74609375 223.56640625 C-463.98996353 223.57260483 -465.23383331 223.57880341 -466.51539612 223.58518982 C-469.81607397 223.59410396 -473.11600748 223.58298889 -476.41662598 223.56610107 C-478.43442535 223.56250548 -480.45130448 223.57642507 -482.46899414 223.59692383 C-486.35346376 223.63380095 -490.23648263 223.63643301 -494.12109375 223.62890625 C-495.32124619 223.64216446 -496.52139862 223.65542267 -497.75791931 223.66908264 C-507.04894025 223.56553799 -507.04894025 223.56553799 -510.74243164 220.58569336 C-514.72329406 216.02623473 -514.25929007 212.07891048 -514.03930664 206.31860352 C-513.27961384 196.64033913 -508.60434093 188.37770861 -504 180 C-504.78761719 180.04640625 -505.57523438 180.0928125 -506.38671875 180.140625 C-522.62295619 180.6786305 -536.16109814 174.87008829 -548 164 C-559.56219211 151.75365451 -564.43805041 136.23153862 -564.1484375 119.63671875 C-563.21204518 103.00343405 -557.13160783 89.99242067 -550.17138672 75.11767578 C-549.47306081 73.62098382 -548.77905376 72.12226926 -548.08935547 70.62158203 C-538.81928226 50.45225647 -527.2112199 34.59554005 -506 25.6875 C-489.48151659 20.50966883 -471.810294 20.49198171 -454.67407227 20.55395508 C-451.01459035 20.56261335 -447.35660025 20.53332927 -443.69726562 20.50195312 C-441.35156296 20.50034421 -439.00585756 20.50091269 -436.66015625 20.50390625 C-435.57581802 20.49267227 -434.4914798 20.48143829 -433.37428284 20.46986389 C-427.28311565 20.52627789 -423.59997005 20.8635125 -419 25 C-417.19140625 27.80078125 -417.19140625 27.80078125 -415.5625 31.3125 C-414.88947961 32.73184515 -414.2162858 34.15110806 -413.54296875 35.5703125 C-413.1567334 36.39950195 -412.77049805 37.22869141 -412.37255859 38.08300781 C-410.7329515 41.56753744 -409.05047278 45.03054644 -407.36328125 48.4921875 C-401.46288272 60.6114489 -395.60148409 72.7388006 -390 85 C-387.80958734 82.80958734 -387.41273251 81.63212359 -386.51171875 78.72265625 C-381.36884184 62.75683899 -374.64667934 47.91064705 -367 33 C-366.56091309 32.11538086 -366.12182617 31.23076172 -365.66943359 30.31933594 C-365.2564502 29.52043945 -364.8434668 28.72154297 -364.41796875 27.8984375 C-364.06887451 27.21185059 -363.71978027 26.52526367 -363.36010742 25.81787109 C-361.51919051 23.35736717 -359.75715376 22.36882683 -357 21 C-353.81286621 20.61904907 -353.81286621 20.61904907 -350.17773438 20.61181641 C-349.17919182 20.60393097 -349.17919182 20.60393097 -348.16047668 20.59588623 C-345.97132544 20.58273817 -343.78290797 20.59140519 -341.59375 20.6015625 C-340.06587587 20.59954025 -338.53800268 20.59662756 -337.01013184 20.59286499 C-333.81248763 20.5884487 -330.61509533 20.59485008 -327.41748047 20.60888672 C-323.3251312 20.62597844 -319.23337224 20.6161335 -315.14104462 20.59816933 C-311.98740211 20.58731255 -308.83389884 20.59078646 -305.68025208 20.5985527 C-304.17161488 20.60054949 -302.66296492 20.59811379 -301.15434265 20.59111404 C-299.04331122 20.58346804 -296.93322678 20.59514626 -294.82226562 20.61181641 C-293.62267212 20.61420319 -292.42307861 20.61658997 -291.18713379 20.61904907 C-286.68288345 21.15743198 -284.04490755 22.68401888 -281.23828125 26.21875 C-278.52230558 32.31898558 -278.63386179 39.52841542 -280 46 C-281.41540707 49.47424417 -283.19911477 52.71263034 -285 56 C-290.71230052 66.87789871 -291.01479127 75.52456689 -290.25146484 87.61572266 C-289.91241565 93.1496951 -289.74292185 98.6898292 -289.55078125 104.23046875 C-289.23856871 112.91519556 -288.9141983 121.59915653 -288.53515625 130.28125 C-288.49650955 131.24673264 -288.45786285 132.21221527 -288.41804504 133.20695496 C-288.35818672 134.52860405 -288.35818672 134.52860405 -288.29711914 135.87695312 C-288.24715538 137.03958679 -288.24715538 137.03958679 -288.19618225 138.22570801 C-288.18447306 140.02389791 -288.18447306 140.02389791 -287 141 C-285.26638076 138.28441679 -285.26638076 138.28441679 -284 135 C-284.61141128 132.42885788 -284.61141128 132.42885788 -286 130 C-289.58147635 121.24528004 -288.13827738 113.64098047 -285 105 C-283.00931472 100.43241107 -280.83109233 95.96684011 -278.625 91.5 C-278.06039063 90.34113281 -277.49578125 89.18226562 -276.9140625 87.98828125 C-275.804429 85.71507372 -274.6891069 83.44463263 -273.56762695 81.17724609 C-272.56977325 79.15480908 -271.58270012 77.12699077 -270.61010742 75.09228516 C-264.39844916 62.22756714 -253.69632927 54.71325337 -240.5625 49.68359375 C-237.38428286 48.66791351 -234.24666994 47.76975038 -231 47 C-230.28416748 46.82412354 -229.56833496 46.64824707 -228.83081055 46.46704102 C-221.97032274 44.91589624 -215.33015055 44.65245298 -208.3125 44.6875 C-207.1678125 44.69168945 -206.023125 44.69587891 -204.84375 44.70019531 C-183.29333207 44.98696475 -166.2235418 51.55454068 -151 67 C-150.69707031 66.32453125 -150.39414063 65.6490625 -150.08203125 64.953125 C-149.66308594 64.06109375 -149.24414062 63.1690625 -148.8125 62.25 C-148.20341797 60.92742187 -148.20341797 60.92742187 -147.58203125 59.578125 C-143.7996791 53.41429187 -137.69790658 51.41800868 -131.3125 48.75 C-123.45321634 45.35079789 -117.30877139 41.83405196 -111 36 C-110.20464844 35.40832031 -109.40929688 34.81664062 -108.58984375 34.20703125 C-105.37190331 31.46474415 -103.02043866 28.37470498 -100.5 25 C-92.58836851 14.40683515 -92.58836851 14.40683515 -86.84375 13.50390625 C-85.7403125 13.52324219 -84.636875 13.54257812 -83.5 13.5625 C-81.84484375 13.56443359 -81.84484375 13.56443359 -80.15625 13.56640625 C-76.65525648 14.04735957 -74.78114531 14.84069528 -72 17 C-69.81316747 20.35418592 -69.76596623 23.12855594 -69.8046875 27.078125 C-69.81113281 28.23828125 -69.81757812 29.3984375 -69.82421875 30.59375 C-69.84097656 31.8003125 -69.85773438 33.006875 -69.875 34.25 C-69.88402344 35.47203125 -69.89304687 36.6940625 -69.90234375 37.953125 C-69.92590487 40.96894782 -69.95880294 43.98437492 -70 47 C-48.21162959 38.80757273 -31.30078438 26.94552191 -19.01953125 6.6640625 C-13.78783066 -0.23732976 -8.12999589 -1.02864277 0 0 Z " fill="#205122" transform="translate(1394,12)"/>
<path d="M0 0 C0.6688623 -0.01305176 1.33772461 -0.02610352 2.02685547 -0.03955078 C6.64448977 -0.04751811 10.4789379 0.85774556 14.875 2.1875 C14.87738835 3.20479659 14.87977671 4.22209318 14.88223743 5.27021694 C14.94105568 30.03365422 15.01695297 54.79699438 15.11071491 79.56032467 C15.15566306 91.53573158 15.19508006 103.51110881 15.22143555 115.48657227 C15.24442348 125.92548618 15.27783056 136.36430611 15.32370156 146.80314547 C15.34762289 152.32942474 15.36635887 157.85561099 15.37261391 163.38194084 C15.3786696 168.58661714 15.3986873 173.79105547 15.42927551 178.99564362 C15.43804791 180.90272684 15.44177998 182.80984117 15.44000816 184.71694374 C15.43834846 187.32836859 15.45511365 189.93907395 15.47627258 192.55039978 C15.47142501 193.29848292 15.46657743 194.04656606 15.46158296 194.81731838 C15.54047037 200.74951247 16.40575846 207.26065836 20.3441456 211.92890781 C22.45116093 213.6611908 23.69598742 213.5045062 26.375 213.25 C27.1484375 213.19972656 27.921875 213.14945313 28.71875 213.09765625 C31.114806 212.30918239 31.114806 212.30918239 32.62890625 209.71484375 C34.45667996 204.54092631 34.31022291 199.61583629 34.31445312 194.17578125 C34.44030134 188.71657233 35.13057221 185.45216562 38.875 181.1875 C44.09708482 177.13159504 49.52874807 177.41251673 55.875 178.1875 C61.12976991 180.72104978 64.31361266 184.37700279 67.125 189.4375 C69.25932096 197.26334352 67.78823903 204.16463353 63.875 211.1875 C59.3278981 217.55097141 53.08489106 220.56572143 45.875 223.1875 C45.1725415 223.44861572 44.47008301 223.70973145 43.74633789 223.97875977 C36.77612268 226.34814034 30.25970107 226.67190985 22.9375 226.625 C21.83470703 226.64498047 20.73191406 226.66496094 19.59570312 226.68554688 C10.44564525 226.68014861 2.3101851 225.06383091 -5 219.3125 C-7.83841192 216.84707021 -7.83841192 216.84707021 -10.5 217.625 C-11.36625 218.140625 -12.2325 218.65625 -13.125 219.1875 C-14.51206264 219.85196115 -15.9090901 220.49580047 -17.3125 221.125 C-17.98667969 221.44339844 -18.66085937 221.76179687 -19.35546875 222.08984375 C-28.05088292 225.53612214 -35.69940489 226.68498488 -45.0625 226.625 C-46.16529297 226.64498047 -47.26808594 226.66496094 -48.40429688 226.68554688 C-60.657239 226.678318 -71.00721647 222.71691836 -80.0625 214.41015625 C-95.74702645 197.88055833 -95.41370431 172.47432482 -96.125 151.1875 C-96.59188232 151.73889648 -97.05876465 152.29029297 -97.53979492 152.85839844 C-98.46949097 153.94169434 -98.46949097 153.94169434 -99.41796875 155.046875 C-100.02922607 155.76327148 -100.6404834 156.47966797 -101.27026367 157.21777344 C-108.91463225 165.33607878 -123.26258432 169.2930049 -134.06054688 169.61889648 C-146.42171835 169.65544205 -158.72297849 167.52578427 -168.296875 159.06640625 C-175.66522646 151.49337836 -179.17520041 144.39449194 -179.5625 133.75 C-179.33384677 125.23018193 -176.81722308 118.09854589 -170.94140625 111.83984375 C-150.52204363 93.26481066 -121.38462276 91.83317226 -95.125 92.1875 C-95.18552416 89.18550175 -95.27275611 86.18813578 -95.375 83.1875 C-95.38917969 82.34832031 -95.40335937 81.50914063 -95.41796875 80.64453125 C-95.69812474 73.41650668 -97.68318635 66.82424513 -103.0625 61.6875 C-107.31920902 58.30798698 -111.79269663 58.54855247 -117.0390625 58.5859375 C-120.77102332 59.31343366 -122.44354299 60.52486023 -125.125 63.1875 C-127.02027343 66.09164206 -127.40379403 68.65484766 -127.8125 72.0625 C-128.72353424 76.85072646 -130.22018671 79.20594556 -134.14453125 82.0703125 C-137.41424316 83.91476537 -140.40834067 84.75064131 -144.125 85.1875 C-144.91003906 85.28160156 -145.69507813 85.37570313 -146.50390625 85.47265625 C-153.18452364 85.88039346 -158.69628284 84.15463946 -164.125 80.1875 C-167.17667839 75.68627438 -166.9346892 70.39264486 -166.125 65.1875 C-164.61610069 61.9921838 -162.60144082 59.6851523 -160.125 57.1875 C-159.53332031 56.57003906 -158.94164062 55.95257813 -158.33203125 55.31640625 C-145.75738049 43.26029779 -127.71468305 40.60471105 -110.99682617 40.85571289 C-94.33644268 41.34345461 -79.40156641 45.20593426 -67.125 57.1875 C-56.7858556 68.50806429 -52.65562529 82.60428823 -52.72436523 97.66650391 C-52.71389664 99.3004586 -52.71389664 99.3004586 -52.70321655 100.96742249 C-52.68338003 104.53304994 -52.68374049 108.09838503 -52.68359375 111.6640625 C-52.67180886 114.16027598 -52.65844194 116.65648245 -52.64356995 119.15267944 C-52.60381635 126.37029426 -52.58404296 133.58786517 -52.56739807 140.80556488 C-52.54343163 150.62557053 -52.50374904 160.44547219 -52.45012093 170.26536179 C-52.43385727 173.91738903 -52.43002063 177.56928509 -52.42710876 181.22134399 C-52.41732853 183.46999332 -52.40706461 185.71864061 -52.39624023 187.96728516 C-52.39879318 188.97427963 -52.40134613 189.98127411 -52.40397644 191.01878357 C-52.3524112 198.17262402 -51.79653838 204.84442324 -48.5625 211.3125 C-45.29189822 213.82834752 -43.2358402 213.52455654 -39.24609375 213.16796875 C-36.8902625 212.29344149 -36.8902625 212.29344149 -35.375 209.70703125 C-33.53901838 204.5375955 -33.6897756 199.61392795 -33.68554688 194.17578125 C-33.5594499 188.70578142 -32.80352329 185.51360362 -29.125 181.1875 C-28.135 180.5275 -27.145 179.8675 -26.125 179.1875 C-25.66801374 176.63345641 -25.66801374 176.63345641 -25.74404907 173.59217834 C-25.73135986 171.80706345 -25.73135986 171.80706345 -25.71841431 169.98588562 C-25.724487 168.67320206 -25.73055969 167.36051849 -25.73681641 166.00805664 C-25.73275272 164.61675606 -25.72741198 163.2254587 -25.72088623 161.83416748 C-25.70717109 158.04639809 -25.71253142 154.25887299 -25.72202349 150.47109914 C-25.72961203 146.50305978 -25.72257546 142.53504152 -25.71786499 138.56700134 C-25.71239934 131.89285531 -25.71961419 125.21880868 -25.73388672 118.54467773 C-25.75015472 110.84900475 -25.74497083 103.15357093 -25.7284075 95.45790392 C-25.71474358 88.84286373 -25.71289864 82.22789513 -25.72072351 75.61284536 C-25.72538094 71.66599618 -25.72607965 67.71925888 -25.71611404 63.77241707 C-25.70737725 60.0516673 -25.71358722 56.33122146 -25.73079681 52.61050415 C-25.7365892 50.60996405 -25.72779933 48.60939793 -25.71841431 46.60887146 C-25.77735813 38.13983731 -26.02408568 28.73397645 -31.4375 21.75 C-34.21750276 19.0992997 -36.84932699 17.16813949 -40.125 15.1875 C-34.8393557 7.25903356 -26.01010291 3.87848615 -17.125 1.1875 C-11.42029077 0.26738561 -5.77288335 0.06501294 0 0 Z " fill="#FDC3DB" transform="translate(583.125,23.8125)"/>
<path d="M0 0 C1.15799606 0.0028299 2.31599213 0.00565979 3.50907898 0.00857544 C7.15590382 0.01964282 10.80246994 0.04472128 14.44921875 0.0703125 C16.94335579 0.0803597 19.43749674 0.08948248 21.93164062 0.09765625 C28.00008614 0.11953788 34.06838395 0.15287827 40.13671875 0.1953125 C40.6174585 1.23981567 40.6174585 1.23981567 41.10791016 2.30541992 C47.89370339 17.0303752 54.78675016 31.69206529 61.87646484 46.2734375 C64.91994965 52.54950692 67.91915309 58.84154062 70.83984375 65.17578125 C71.13991333 65.82616364 71.43998291 66.47654602 71.74914551 67.14663696 C73.1902536 70.27419518 74.62465545 73.40464538 76.05078125 76.5390625 C76.55867187 77.64636719 77.0665625 78.75367187 77.58984375 79.89453125 C78.03489258 80.87252686 78.47994141 81.85052246 78.93847656 82.8581543 C80.04225897 85.30527156 80.04225897 85.30527156 82.13671875 87.1953125 C84.86717344 79.37842086 87.5974606 71.56147073 90.3275528 63.74445248 C91.84330558 59.40444658 93.35917548 55.06448161 94.87515259 50.72455406 C95.61167456 48.61592801 96.34808271 46.50726225 97.08447266 44.39859009 C98.05376433 41.62302694 99.02354828 38.84763647 99.99365234 36.07235718 C102.20917557 29.73203137 104.41783748 23.38957296 106.60546875 17.03955078 C106.97812866 15.95992569 107.35078857 14.8803006 107.73474121 13.76795959 C108.42220877 11.774381 109.10732118 9.77998813 109.78967285 7.78465271 C110.23699768 6.4885482 110.23699768 6.4885482 110.69335938 5.16625977 C110.95008423 4.41756119 111.20680908 3.66886261 111.47131348 2.8974762 C112.13671875 1.1953125 112.13671875 1.1953125 113.13671875 0.1953125 C115.13103605 0.10126108 117.12871418 0.07788001 119.12524414 0.08178711 C120.40649673 0.08186264 121.68774933 0.08193817 123.00782776 0.08201599 C124.41667723 0.08712341 125.82552631 0.09233941 127.234375 0.09765625 C128.66784109 0.09952048 130.10130782 0.10094436 131.53477478 0.10194397 C135.31431832 0.10576878 139.09382365 0.11559873 142.87335205 0.12664795 C146.72741173 0.13686287 150.58147757 0.14144176 154.43554688 0.14648438 C162.00262162 0.15722104 169.56966484 0.17429701 177.13671875 0.1953125 C177.13671875 3.4953125 177.13671875 6.7953125 177.13671875 10.1953125 C175.15104167 10.81380208 173.16536458 11.43229167 171.1796875 12.05078125 C168.26456923 13.68391634 167.45565488 15.11916023 166.13671875 18.1953125 C165.85425825 21.19607563 165.76256903 23.94805644 165.82421875 26.9453125 C165.83332275 27.87649902 165.84242676 28.80768555 165.85180664 29.76708984 C166.04268458 41.56463771 166.72871009 53.35369105 167.35644531 65.13452148 C167.81781916 73.89787714 168.21132652 82.65157226 168.38671875 91.42578125 C168.40392471 92.24067017 168.42113068 93.05555908 168.43885803 93.8951416 C168.51756686 97.73758303 168.5804455 101.57931365 168.61889648 105.42236328 C168.83739172 121.46034918 168.83739172 121.46034918 176.13671875 135.1953125 C178.7845792 136.52178386 181.27887509 137.3379594 184.13671875 138.1953125 C184.13671875 141.4953125 184.13671875 144.7953125 184.13671875 148.1953125 C161.03671875 148.1953125 137.93671875 148.1953125 114.13671875 148.1953125 C114.13671875 144.8953125 114.13671875 141.5953125 114.13671875 138.1953125 C115.04421875 137.8240625 115.95171875 137.4528125 116.88671875 137.0703125 C120.96057991 134.72000799 123.17660098 131.95865516 124.73168945 127.48291016 C125.31781975 124.17245753 125.29911796 120.88223944 125.3046875 117.53125 C125.30878632 116.76218323 125.31288513 115.99311646 125.31710815 115.20074463 C125.32676261 112.65722317 125.32661636 110.11384986 125.32421875 107.5703125 C125.32480789 106.26522736 125.32480789 106.26522736 125.32540894 104.93377686 C125.3177033 90.544568 124.89001264 76.19213804 124.19921875 61.8203125 C124.1557431 60.89482605 124.11226746 59.9693396 124.06747437 59.01580811 C123.94212594 56.40078158 123.80903986 53.78630589 123.671875 51.171875 C123.63327362 50.390401 123.59467224 49.608927 123.55490112 48.80377197 C123.39775589 44.87030225 123.39775589 44.87030225 122.13671875 41.1953125 C121.92390762 41.81535156 121.7110965 42.43539062 121.49183655 43.07421875 C111.9043605 71.0015518 102.28925632 98.91825825 92.44921875 126.7578125 C92.08232941 127.79881104 91.71544006 128.83980957 91.33743286 129.91235352 C90.31144114 132.8216031 89.28148746 135.72941389 88.25 138.63671875 C87.94676819 139.49745499 87.64353638 140.35819122 87.33111572 141.24501038 C85.25188699 147.08014426 85.25188699 147.08014426 84.13671875 148.1953125 C82.35600629 148.28257473 80.57188735 148.30230291 78.7890625 148.29296875 C77.70947266 148.28974609 76.62988281 148.28652344 75.51757812 148.28320312 C74.38126953 148.27482422 73.24496094 148.26644531 72.07421875 148.2578125 C70.93404297 148.25330078 69.79386719 148.24878906 68.61914062 148.24414062 C65.79161524 148.23230997 62.96419235 148.2158266 60.13671875 148.1953125 C54.11395454 136.2157153 48.19795118 124.18609807 42.32421875 112.1328125 C41.88606842 111.23444672 41.44791809 110.33608093 40.99649048 109.41049194 C35.90053401 98.96109251 30.82593621 88.5026984 25.82421875 78.0078125 C25.39737793 77.11763428 24.97053711 76.22745605 24.53076172 75.31030273 C22.72314114 71.53988386 20.9350628 67.76463458 19.20703125 63.95703125 C14.48554266 53.73035121 9.49665763 48.41648952 -0.86328125 44.1953125 C-0.91935547 42.35066406 -0.91935547 42.35066406 -0.9765625 40.46875 C-1.04225153 38.83590849 -1.10869784 37.20309732 -1.17578125 35.5703125 C-1.19833984 34.76207031 -1.22089844 33.95382813 -1.24414062 33.12109375 C-1.46726226 28.13128267 -2.11895285 24.52134741 -4.86328125 20.1953125 C-9.23781029 17.2789598 -14.80612385 17.61981806 -19.86328125 18.1953125 C-30.66973123 20.87032684 -40.07169215 26.40686378 -45.96875 35.9921875 C-48.55764184 42.36832286 -47.49252142 50.44539901 -45.17578125 56.7578125 C-43.38190517 60.64769115 -41.61234438 62.96372731 -37.86328125 65.1953125 C-36.97640625 65.7728125 -36.08953125 66.3503125 -35.17578125 66.9453125 C-29.27329977 69.172664 -23.39712788 69.18194386 -17.55078125 66.6953125 C-11.75230808 63.40365399 -8.96618187 57.31284158 -6.86328125 51.1953125 C-1.25362872 51.61603644 2.88170708 53.61444877 7.13671875 57.1953125 C12.83483413 64.39514794 14.05055339 71.13134798 13.13671875 80.1953125 C10.94909455 88.50623995 7.07184696 95.04669317 0.13671875 100.1953125 C-10.70095228 106.40119091 -24.65177736 107.14323571 -36.68359375 104.2890625 C-50.13459015 99.32841135 -60.09603603 91.51959707 -66.30078125 78.4453125 C-71.89803639 65.81717284 -71.96810403 48.97336181 -67.1796875 36.04296875 C-59.89803007 20.29125282 -48.75259329 10.54937395 -32.86328125 4.1953125 C-22.25793599 0.54279507 -11.12457183 -0.10513894 0 0 Z " fill="#FDC3DB" transform="translate(927.86328125,40.8046875)"/>
<path d="M0 0 C11.61788963 8.86169359 18.1745277 20.89592399 21.1015625 35.109375 C21.48155449 38.9331327 21.5099445 42.71622344 21.48632812 46.55664062 C21.4917009 47.64273117 21.49707367 48.72882172 21.50260925 49.8478241 C21.51232965 52.18630708 21.51534894 54.52482589 21.51225281 56.86332703 C21.50774354 60.57234689 21.52186271 64.2808975 21.54064941 67.98986816 C21.58039262 76.53047381 21.59301765 85.07106751 21.60417938 93.61174774 C21.61556863 102.07376603 21.63870295 110.53556218 21.68156433 118.9974823 C21.69506825 122.63729091 21.69097628 126.27680244 21.68615723 129.91662598 C21.69550358 132.16512421 21.70567384 134.41361923 21.71679688 136.66210938 C21.71064865 137.6619133 21.70450043 138.66171722 21.69816589 139.69181824 C21.75803096 146.62532523 21.98875665 155.31067887 26.57076263 160.9023056 C28.68371397 162.56841425 29.95594319 162.42320883 32.6015625 162.171875 C33.375 162.12160156 34.1484375 162.07132813 34.9453125 162.01953125 C37.3413685 161.23105739 37.3413685 161.23105739 38.85546875 158.63671875 C40.68324246 153.46280131 40.53678541 148.53771129 40.54101562 143.09765625 C40.66686384 137.63844733 41.35713471 134.37404062 45.1015625 130.109375 C50.32364732 126.05347004 55.75531057 126.33439173 62.1015625 127.109375 C67.81074695 129.8620175 71.61355452 134.30402304 74.1015625 140.109375 C75.31423554 148.1468591 73.37767816 155.53349606 68.6640625 162.1171875 C64.09278051 167.19394778 58.44332486 169.8032796 52.1015625 172.109375 C51.399104 172.37049072 50.69664551 172.63160645 49.97290039 172.90063477 C43.00268518 175.27001534 36.48626357 175.59378485 29.1640625 175.546875 C28.06126953 175.56685547 26.95847656 175.58683594 25.82226562 175.60742188 C13.5693235 175.600193 3.21934603 171.63879336 -5.8359375 163.33203125 C-10.66539031 158.24237085 -13.36181097 152.59602512 -15.8984375 146.109375 C-16.19621094 145.39136719 -16.49398438 144.67335937 -16.80078125 143.93359375 C-21.97255733 130.27084201 -21.41278667 114.51504212 -21.8984375 100.109375 C-22.36531982 100.66077148 -22.83220215 101.21216797 -23.31323242 101.78027344 C-24.24292847 102.86356934 -24.24292847 102.86356934 -25.19140625 103.96875 C-25.80266357 104.68514648 -26.4139209 105.40154297 -27.04370117 106.13964844 C-34.23252912 113.77417047 -47.7018647 117.86462578 -57.90625 118.4453125 C-72.93018032 118.77612459 -85.38157901 115.84346158 -96.703125 105.453125 C-102.75752221 99.06739262 -105.11494506 91.81259301 -105.3984375 83.109375 C-105.08650113 73.83178376 -102.40962791 66.74857807 -96 59.984375 C-76.12024556 42.24779112 -46.35860598 40.33915142 -20.8984375 41.109375 C-20.95896166 38.10737675 -21.04619361 35.11001078 -21.1484375 32.109375 C-21.16261719 31.27019531 -21.17679688 30.43101563 -21.19140625 29.56640625 C-21.47156224 22.33838168 -23.45662385 15.74612013 -28.8359375 10.609375 C-33.09264652 7.22986198 -37.56613413 7.47042747 -42.8125 7.5078125 C-46.54446082 8.23530866 -48.21698049 9.44673523 -50.8984375 12.109375 C-52.79371093 15.01351706 -53.17723153 17.57672266 -53.5859375 20.984375 C-54.49697174 25.77260146 -55.99362421 28.12782056 -59.91796875 30.9921875 C-63.18768066 32.83664037 -66.18177817 33.67251631 -69.8984375 34.109375 C-70.68347656 34.20347656 -71.46851563 34.29757813 -72.27734375 34.39453125 C-79.0465899 34.80767773 -84.30719604 32.92647253 -89.8984375 29.109375 C-93.04114347 24.39531604 -92.68332788 19.61762354 -91.8984375 14.109375 C-90.41468972 10.86913169 -88.41870035 8.60265431 -85.8984375 6.109375 C-85.30675781 5.49320313 -84.71507812 4.87703125 -84.10546875 4.2421875 C-63.46708685 -15.58768047 -22.90706841 -14.94207697 0 0 Z " fill="#FDC3DB" transform="translate(1225.8984375,74.890625)"/>
<path d="M0 0 C1.65 0 3.3 0 5 0 C5 16.17 5 32.34 5 49 C12.26 49 19.52 49 27 49 C27 53.95 27 58.9 27 64 C19.74 64 12.48 64 5 64 C5.06295598 74.45764945 5.13839828 84.91500539 5.23571491 95.37239265 C5.28040797 100.22838806 5.3196665 105.08429977 5.34643555 109.94042969 C5.37247907 114.62845843 5.41288902 119.31616493 5.46318626 124.00399399 C5.47984786 125.7908718 5.49136655 127.57780534 5.49761391 129.36474991 C5.50726273 131.8712757 5.53533075 134.37697841 5.56762695 136.88330078 C5.56619186 137.61913895 5.56475677 138.35497711 5.5632782 139.1131134 C5.64811546 143.78049147 6.46769595 147.06349559 9 151 C11.80166093 152.34223614 11.80166093 152.34223614 15 152 C17.04291182 150.73339467 19.04690112 149.40113616 21 148 C25 148 25 148 26.703125 149.3125 C27.21359375 149.869375 27.7240625 150.42625 28.25 151 C28.77078125 151.556875 29.2915625 152.11375 29.828125 152.6875 C30.21484375 153.120625 30.6015625 153.55375 31 154 C28.68137612 161.21906679 22.55563796 165.02302644 16.140625 168.58984375 C11.12462561 170.98006445 6.60179085 172.69444777 1 173 C0.27683594 173.05027344 -0.44632813 173.10054687 -1.19140625 173.15234375 C-12.02813803 173.58720458 -22.75711505 171.35079784 -31 164 C-36.3522615 157.27536376 -37.29367328 151.76017299 -37.22705078 143.4362793 C-37.22734283 142.47969925 -37.22763489 141.5231192 -37.22793579 140.53755188 C-37.22654503 137.3830145 -37.21099559 134.22871476 -37.1953125 131.07421875 C-37.19158147 128.88418202 -37.18873492 126.69414361 -37.18673706 124.50410461 C-37.17910768 118.74522274 -37.15946507 112.98644205 -37.1373291 107.2276001 C-37.11685575 101.34901295 -37.10773215 95.47040942 -37.09765625 89.59179688 C-37.0762186 78.06115351 -37.04209096 66.53058517 -37 55 C-37.81549316 55.41717285 -38.63098633 55.8343457 -39.47119141 56.26416016 C-40.54546387 56.80862793 -41.61973633 57.3530957 -42.7265625 57.9140625 C-43.78955566 58.45498535 -44.85254883 58.9959082 -45.94775391 59.55322266 C-52.46908024 62.64435846 -58.10517111 63.08087793 -65.2890625 63.0390625 C-66.5467041 63.03342285 -67.8043457 63.0277832 -69.10009766 63.02197266 C-70.05706543 63.01472168 -71.0140332 63.0074707 -72 63 C-71.93878062 73.73567139 -71.8616683 84.47109984 -71.76428509 95.20650768 C-71.71956461 100.19144765 -71.68031212 105.17630558 -71.65356445 110.16137695 C-71.6275483 114.97259059 -71.58715773 119.78348879 -71.53681374 124.59450722 C-71.52013362 126.42966093 -71.50862647 128.26486921 -71.50238609 130.10008812 C-71.49275744 132.67147232 -71.46471339 135.24204742 -71.43237305 137.81323242 C-71.43380814 138.57136734 -71.43524323 139.32950226 -71.4367218 140.11061096 C-71.35768291 144.55640552 -70.80176005 147.49341394 -68 151 C-65.2431282 152.34927662 -65.2431282 152.34927662 -62 152 C-60.03371393 150.82273318 -58.34650324 149.52939131 -56.61328125 148.03125 C-56.08089844 147.6909375 -55.54851562 147.350625 -55 147 C-51.51127585 148.16290805 -50.90023136 149.13967609 -48.8125 152.0625 C-48.28269531 152.79597656 -47.75289062 153.52945313 -47.20703125 154.28515625 C-46.80871094 154.85105469 -46.41039062 155.41695312 -46 156 C-54.41807157 165.56599042 -64.5683984 172.09505033 -77.4765625 173.21484375 C-88.4278253 173.60934169 -99.74786677 171.64915898 -108 164 C-113.85852238 156.91795328 -115.31060458 149.34582821 -115.22705078 140.40258789 C-115.22734283 139.57251221 -115.22763489 138.74243652 -115.22793579 137.88720703 C-115.22655144 135.16558076 -115.21103267 132.44423422 -115.1953125 129.72265625 C-115.19157919 127.82694142 -115.18873372 125.93122466 -115.18673706 124.0355072 C-115.17912568 119.06247568 -115.15949872 114.08956224 -115.1373291 109.11657715 C-115.1168168 104.03541664 -115.10772385 98.95423692 -115.09765625 93.87304688 C-115.07625039 83.9153129 -115.04214471 73.95766629 -115 64 C-119.62 64 -124.24 64 -129 64 C-129 60.37 -129 56.74 -129 53 C-125.04074048 51.00714332 -121.08125133 49.02740958 -117.0703125 47.140625 C-101.31300425 39.64970379 -89.03384225 29.14316153 -78.88671875 14.8359375 C-77 13 -77 13 -72 13 C-72 24.55 -72 36.1 -72 48 C-46.07783083 44.54371078 -24.99757286 34.08511254 -8.91015625 13.09765625 C-6.49335701 9.80209708 -4.2222444 6.42927398 -2 3 C-1.34 2.01 -0.68 1.02 0 0 Z " fill="#FCC2DA" transform="translate(1387,20)"/>
<path d="M0 0 C1.46953125 0.77150391 1.46953125 0.77150391 2.96875 1.55859375 C17.55326217 9.81600138 26.71712832 23.11920868 31.3737793 39.12524414 C32.5335897 44.44951994 32.53019008 49.75748887 32.5 55.1875 C32.49427979 56.38060791 32.48855957 57.57371582 32.48266602 58.80297852 C32.29519734 68.07857528 31.11992655 75.58283361 27 84 C26.48050781 85.07121094 25.96101563 86.14242187 25.42578125 87.24609375 C18.11459829 100.89704375 5.72872561 111.06704587 -9 116 C-15.47438769 117.82528343 -21.6047791 118.32374498 -28.3125 118.25 C-29.23893311 118.24033203 -30.16536621 118.23066406 -31.11987305 118.22070312 C-48.41928384 117.91755039 -64.62738876 112.7821576 -77 100 C-89.72155066 84.43553047 -94.41052889 67.19481961 -93.24267578 47.28271484 C-91.59064734 31.74301065 -83.40343765 17.40840085 -72 7 C-67.86813787 3.85012588 -63.63776794 1.33473056 -59 -1 C-57.95070312 -1.52851562 -56.90140625 -2.05703125 -55.8203125 -2.6015625 C-38.66333631 -9.69416928 -16.33605655 -8.70331168 0 0 Z M-40 71 C-39 74 -39 74 -39 74 Z M-39 75 C-38 79 -38 79 -38 79 Z " fill="#FDC2DB" transform="translate(280,73)"/>
<path d="M0 0 C1.16789062 0.87978516 1.16789062 0.87978516 2.359375 1.77734375 C10.3415819 8.32650343 17.2709326 17.60987678 19 28 C20.02840908 43.34319992 16.90103942 56.92574201 7 69.0625 C0.18212718 76.20417681 -7.5030408 80.01714206 -17.4375 80.4375 C-24.45219213 80.22136103 -30.68562729 77.91911489 -36.375 73.8125 C-40.98412551 68.87415124 -43.18759208 63.70633829 -43.5 56.9375 C-43.30786433 51.82188791 -41.58688469 48.36536792 -39 44 C-34.25 45.875 -34.25 45.875 -32 47 C-26.55935724 47.65287713 -23.19778322 46.65348759 -18.80078125 43.60546875 C-15.01495367 40.23025154 -13.34065577 36.49814229 -12.66015625 31.5078125 C-12.3990599 24.63575644 -14.01840843 20.20103254 -17.625 14.375 C-22.86741236 9.13258764 -29.65176151 5.90223626 -37.0625 5.625 C-45.19221001 5.73225211 -51.17762486 9.04660441 -57.125 14.4375 C-71.87951726 30.29488017 -76.68632877 51.4751431 -76.30859375 72.4453125 C-76.05009855 78.87444196 -74.89683661 84.23203835 -72 90 C-71.25363281 91.53333984 -71.25363281 91.53333984 -70.4921875 93.09765625 C-64.19342679 104.91881878 -54.63052014 112.78173034 -41.90234375 117.03515625 C-24.69765611 121.52969798 -7.97438831 118.77895497 7.57421875 110.53125 C9.71625389 109.17911187 11.29702172 107.91468182 13 106.0625 C13.66 105.381875 14.32 104.70125 15 104 C18.84937968 104.24260796 20.68456278 106.36879092 23.25 109.0625 C23.95640625 109.79597656 24.6628125 110.52945313 25.390625 111.28515625 C25.92171875 111.85105469 26.4528125 112.41695313 27 113 C17.41053655 128.67592656 -1.6089045 137.87540767 -18.84765625 142.2578125 C-19.88792969 142.50273437 -20.92820312 142.74765625 -22 143 C-23.23556641 143.33644531 -23.23556641 143.33644531 -24.49609375 143.6796875 C-45.16152685 148.76763562 -68.72565489 143.9140573 -86.80957031 133.42407227 C-104.26599008 122.64750509 -115.55112485 106.07155646 -121.421875 86.58203125 C-126.09650073 65.70414203 -123.20496496 44.84462064 -112.06445312 26.65283203 C-109.3708752 22.47037273 -106.32869895 18.68838155 -103 15 C-102.37480469 14.29359375 -101.74960938 13.5871875 -101.10546875 12.859375 C-78.01384326 -11.78423346 -28.11413316 -21.18390103 0 0 Z " fill="#FDC3DB" transform="translate(156,48)"/>
<path d="M0 0 C4.40071628 3.66573235 7.95061782 7.78462883 8.96875 13.55078125 C9.23303942 20.10295648 7.37146608 24.2204283 3 29.125 C-0.47865093 31.82095447 -3.80968073 31.84164382 -8.09375 31.609375 C-11.17658818 31.13667315 -13.11640599 30.34647201 -15.4375 28.25 C-16.25 26.0625 -16.25 26.0625 -16.4375 24.25 C-15.468125 23.569375 -14.49875 22.88875 -13.5 22.1875 C-10.85664078 19.9763488 -10.4366378 19.24715981 -9.375 15.75 C-9.44654806 11.74330876 -9.7827097 10.23663909 -12.4375 7.25 C-17.2856271 4.49322184 -21.93796141 3.11328435 -27.4375 4.25 C-33.06634389 6.82416641 -35.88687 10.75633538 -38.4375 16.25 C-41.36765368 27.85262197 -39.6322345 38.82854665 -33.8125 49.125 C-30.16284054 52.39048478 -25.88066833 54.25735771 -21.4375 56.25 C-21.4375 58.23 -21.4375 60.21 -21.4375 62.25 C-22.33210937 62.46914062 -23.22671875 62.68828125 -24.1484375 62.9140625 C-34.64610081 65.66718102 -44.07410271 68.9941494 -50.4375 78.25 C-55.02245319 86.4374164 -56.15511055 95.78095593 -53.71875 104.95703125 C-49.70623968 114.45438431 -43.75823524 119.13869868 -34.4375 123.25 C-30.06101576 124.4857132 -25.64152783 124.43352768 -21.125 124.4375 C-20.40376953 124.44974609 -19.68253906 124.46199219 -18.93945312 124.47460938 C-9.18299109 124.50085995 0.73067871 121.63405001 8.109375 114.96484375 C14.27402219 107.6898972 16.50417951 99.89175068 16.09765625 90.46875 C15.15713235 84.81187635 12.5327078 81.2202078 8.5625 77.25 C2.82223076 77.41883145 -2.43950945 81.31444666 -6.4375 85.1875 C-7.85148964 88.10385364 -7.90388958 90.05190003 -7.4375 93.25 C-5.64558968 95.54215045 -5.64558968 95.54215045 -3.4375 97.25 C-2.7775 97.91 -2.1175 98.57 -1.4375 99.25 C-4.25210214 102.79095108 -6.43769859 104.60792849 -10.875 105.3125 C-16.39615791 105.6524049 -19.20202283 103.17713549 -23.25 99.6875 C-26.34512977 95.94076396 -25.83036088 90.91180863 -25.76953125 86.31640625 C-24.93668742 78.62484851 -19.6099577 74.21581385 -14.05688477 69.34570312 C-9.61748242 65.79385022 -4.78037678 62.98032069 0.125 60.125 C12.84386779 53.71202483 12.84386779 53.71202483 21.5625 43.25 C21.90178653 37.99105883 21.54428668 34.2044667 19.5625 29.25 C26.91143089 26.62314811 34.52789233 24.092311 42.05078125 27.31640625 C47.43339634 30.54949911 50.82432753 34.16064083 52.5625 40.25 C53.58086591 48.26963158 50.78927774 54.64582518 45.9375 61 C40.16581703 67.28052151 31.53441004 69.88153397 23.5625 72.25 C24.04460937 73.04664062 24.52671875 73.84328125 25.0234375 74.6640625 C25.65507813 75.72367187 26.28671875 76.78328125 26.9375 77.875 C27.56398438 78.91914062 28.19046875 79.96328125 28.8359375 81.0390625 C33.46695371 89.65149536 33.98374592 98.9433435 31.4375 108.375 C25.78933584 124.53502524 15.31188911 135.20189236 0.5625 143.25 C-15.27030616 150.39647859 -39.06732488 151.65073279 -55.6875 146.0625 C-57.96151462 145.18485328 -60.21640248 144.25405779 -62.4375 143.25 C-63.37980469 142.85425781 -64.32210937 142.45851562 -65.29296875 142.05078125 C-71.33830337 139.29791329 -76.41257493 135.56110394 -81.4375 131.25 C-82.05496094 130.75113281 -82.67242188 130.25226563 -83.30859375 129.73828125 C-90.59839083 123.29273684 -96.01577091 112.45149166 -96.67578125 102.74609375 C-97.05752298 88.94033603 -93.91302465 78.7352117 -84.4375 68.25 C-76.65957528 61.09205478 -68.20647947 56.93504403 -58.4375 53.25 C-59.19675781 52.51652344 -59.95601562 51.78304687 -60.73828125 51.02734375 C-67.21553275 44.36261753 -71.39183033 37.38619207 -71.8125 28 C-71.58648886 18.73354341 -68.04700307 11.92166343 -61.69140625 5.28515625 C-45.6594362 -9.19085137 -18.14812753 -12.27766114 0 0 Z " fill="#FCC2DA" transform="translate(766.4375,44.75)"/>
<path d="M0 0 C5.56908783 2.82432311 9.33008488 6.73837152 12.125 12.3125 C12.5234375 15.65234375 12.5234375 15.65234375 12.5 19.25 C12.50773438 20.43464844 12.51546875 21.61929688 12.5234375 22.83984375 C11.63738357 30.56241185 7.22874748 34.66295947 1.5625 39.5 C-5.5061811 43.22712276 -13.33087475 43.30720086 -21.1875 43.5625 C-37.82526565 44.56723713 -51.12718245 53.72720603 -62.46484375 65.49609375 C-77.97479688 83.62036637 -84.42617985 104.04196489 -84.26611328 127.61279297 C-84.24999165 130.43896452 -84.26605085 133.26371477 -84.28515625 136.08984375 C-84.62683287 151.08250379 -84.62683287 151.08250379 -78.5 164.3125 C-75.99074322 166.22431469 -73.87265171 167.37038089 -70.875 168.3125 C-70.875 171.2825 -70.875 174.2525 -70.875 177.3125 C-93.645 177.3125 -116.415 177.3125 -139.875 177.3125 C-139.875 174.0125 -139.875 170.7125 -139.875 167.3125 C-138.8025 166.94125 -137.73 166.57 -136.625 166.1875 C-132.53694021 164.39536066 -130.87357721 162.3836758 -128.875 158.3125 C-126.73627048 150.79953417 -126.55431438 143.30399988 -126.5390625 135.54296875 C-126.5324057 134.34497147 -126.5257489 133.14697418 -126.51889038 131.91267395 C-126.50881431 129.39060998 -126.50407179 126.86851962 -126.50439453 124.34643555 C-126.50002458 120.52151866 -126.463657 116.69775997 -126.42578125 112.87304688 C-126.41991115 110.40885806 -126.41594305 107.94466384 -126.4140625 105.48046875 C-126.39969147 104.35400436 -126.38532043 103.22753998 -126.37051392 102.06694031 C-126.4274383 92.00264433 -128.21344082 81.22310152 -134.875 73.3125 C-136.98075643 71.47949091 -136.98075643 71.47949091 -138.875 70.3125 C-136.15610478 64.0046631 -130.29798533 60.7339683 -124.1875 58.0625 C-112.27320063 53.67686833 -98.08854826 52.42120672 -85.875 56.3125 C-84.22420558 57.96329442 -84.64950553 59.94986179 -84.55859375 62.22265625 C-84.51669922 63.21201172 -84.47480469 64.20136719 -84.43164062 65.22070312 C-84.39232422 66.26162109 -84.35300781 67.30253906 -84.3125 68.375 C-84.26931641 69.41978516 -84.22613281 70.46457031 -84.18164062 71.54101562 C-84.07518775 74.13136884 -83.9731724 76.72182186 -83.875 79.3125 C-83.41351563 78.22195312 -82.95203125 77.13140625 -82.4765625 76.0078125 C-75.32479621 59.36383738 -67.05879638 43.61726047 -55.875 29.3125 C-55.41367676 28.71953125 -54.95235352 28.1265625 -54.47705078 27.515625 C-42.44674108 12.26283816 -21.20483833 -8.82348978 0 0 Z " fill="#FCC2DA" transform="translate(454.875,11.6875)"/>
<path d="M0 0 C7.24072288 3.2509368 10.51700344 10.11125347 13.23046875 17.2265625 C16.56016038 27.49210999 17.18071404 37.13961257 17.1875 47.875 C17.19974609 48.88691406 17.21199219 49.89882812 17.22460938 50.94140625 C17.25215283 65.28236486 14.54157379 80.76479686 5 92 C1.48972943 95.11706308 -1.064219 95.77979397 -5.69140625 95.58984375 C-10.34848874 94.39996311 -12.56092007 90.92691869 -15 87 C-24.85343235 68.89967318 -26.24842395 43.34166834 -21.375 23.5625 C-12.99209293 -2.08801494 -12.99209293 -2.08801494 0 0 Z M-13 63 C-12 66 -12 66 -12 66 Z M-12 67 C-11 71 -11 71 -11 71 Z " fill="#205122" transform="translate(253,81)"/>
<path d="M0 0 C0.82602551 12.94106635 -0.5043273 26.17366429 -9.3515625 36.48046875 C-13.9290067 40.69996116 -18.29985587 42.22558145 -24.5 42.5 C-29.70812003 42.28329598 -33.83847036 41.20948159 -38 38 C-42.84571147 31.91179841 -43.7888234 26.58397354 -43 19 C-41.20194167 12.83677596 -37.41386457 8.35998593 -32 5 C-21.41000431 0.11830832 -11.49786253 -0.14352394 0 0 Z " fill="#225223" transform="translate(1205,128)"/>
<path d="M0 0 C0.37928725 12.26362096 -0.62876689 25.16203442 -8.25 35.375 C-13.1986894 40.09874897 -17.60812492 42.213634 -24.5 42.5 C-29.70812003 42.28329598 -33.83847036 41.20948159 -38 38 C-42.84571147 31.91179841 -43.7888234 26.58397354 -43 19 C-41.20194167 12.83677596 -37.41386457 8.35998593 -32 5 C-21.41000431 0.11830832 -11.49786253 -0.14352394 0 0 Z " fill="#225223" transform="translate(488,128)"/>
<path d="M0 0 C0.33 0 0.66 0 1 0 C0.97905273 0.88671387 0.95810547 1.77342773 0.93652344 2.68701172 C0.86775357 6.02322079 0.81791617 9.35866095 0.78027344 12.6953125 C0.76033811 14.13065587 0.73317926 15.56591997 0.69824219 17.00097656 C0.306671 29.56764303 0.306671 29.56764303 5 41 C7.63844369 42.93063043 9.88769876 43.85882288 13 45 C13 47.97 13 50.94 13 54 C-3.17 54 -19.34 54 -36 54 C-36 50.7 -36 47.4 -36 44 C-34.39125 43.4121875 -34.39125 43.4121875 -32.75 42.8125 C-27.63439658 40.58473722 -25.67956037 37.43462745 -23.3125 32.4375 C-21.96009942 28.80119845 -22.00516001 25.73111446 -22.0625 21.875 C-21.88671875 18.76171875 -21.88671875 18.76171875 -21 16 C-18.16253225 13.87748475 -15.37608604 12.687937 -12.09375 11.3671875 C-6.62542051 8.95062775 -3.25989669 4.88984503 0 0 Z " fill="#FCC2DA" transform="translate(944,135)"/>
</svg>
