<?xml version="1.0" encoding="UTF-8"?>
<svg version="1.1" xmlns="http://www.w3.org/2000/svg" width="606" height="212">
<path d="M0 0 C2.31934142 0.00852609 4.63622076 -0.0204079 6.95532227 -0.05200195 C26.1769978 -0.1444206 43.00637916 5.38066708 57.13696289 18.90698242 C67.21627609 30.28120739 71.67446391 42.41881006 71.88696289 57.38354492 C71.9056543 58.27678467 71.9243457 59.17002441 71.94360352 60.09033203 C71.81362802 73.88898033 65.56822052 85.91701031 59.69946289 98.07104492 C58.66456293 100.23437878 57.63216956 102.39888501 56.60112 104.5640564 C55.96507799 105.89760143 55.32638074 107.22988427 54.68464661 108.56069946 C53.4324024 111.16903498 52.30328449 113.69708013 51.38696289 116.44604492 C52.37696289 115.78604492 53.36696289 115.12604492 54.38696289 114.44604492 C57.57446289 114.32104492 57.57446289 114.32104492 60.38696289 114.44604492 C60.63704102 113.63135742 60.88711914 112.81666992 61.14477539 111.97729492 C62.60361769 107.83014574 64.38462095 103.91707676 66.26196289 99.94604492 C66.77049805 98.84583008 66.77049805 98.84583008 67.28930664 97.72338867 C68.8750891 94.35284725 70.40602454 91.41992711 72.61352539 88.39526367 C74.85638358 84.66540038 74.85306832 82.08433955 74.88696289 77.75854492 C74.98278797 65.64865036 80.71863461 55.14816916 85.76782227 44.38378906 C86.76308931 42.25613689 87.74319251 40.1219135 88.72290039 37.98706055 C91.9827121 30.96484957 95.26394174 24.32938301 100.38696289 18.44604492 C100.90137939 17.83704346 101.4157959 17.22804199 101.94580078 16.60058594 C110.5332217 6.74170883 123.70189638 1.37628788 136.48291016 0.14868164 C139.60381964 0.01098357 142.70076198 -0.02193729 145.82446289 0.00854492 C146.91758789 0.01611816 148.01071289 0.02369141 149.13696289 0.03149414 C162.79081276 0.31018565 172.80954647 3.87895069 183.19946289 12.88354492 C187.62375377 18.06628567 190.3958889 23.26999305 190.94946289 30.07104492 C191.07514648 31.57538086 191.07514648 31.57538086 191.20336914 33.11010742 C191.26395508 33.8809668 191.32454102 34.65182617 191.38696289 35.44604492 C192.88743164 34.96071289 192.88743164 34.96071289 194.41821289 34.46557617 C201.37229892 32.48743953 210.60238084 31.87427557 217.38696289 34.69604492 C218.37696289 35.27354492 219.36696289 35.85104492 220.38696289 36.44604492 C221.03536133 36.80569336 221.68375977 37.1653418 222.35180664 37.53588867 C224.04577152 38.47847111 225.7186914 39.45870057 227.38696289 40.44604492 C227.95350586 39.44637695 227.95350586 39.44637695 228.53149414 38.42651367 C237.99932275 22.57288966 251.66020348 11.57391079 269.38696289 6.44604492 C284.25732365 3.04085472 299.5386258 2.94512207 314.71289062 3 C318.37237254 3.00865828 322.03036264 2.9793742 325.68969727 2.94799805 C328.03539993 2.94638914 330.38110534 2.94695761 332.72680664 2.94995117 C333.81114487 2.93871719 334.89548309 2.92748322 336.01268005 2.91590881 C342.10344739 2.97231911 345.78920136 3.30688364 350.38696289 7.44604492 C352.23071289 10.31713867 352.23071289 10.31713867 353.88696289 13.88354492 C354.3634729 14.88792603 354.3634729 14.88792603 354.84960938 15.91259766 C355.59459355 17.48302635 356.33290094 19.05663188 357.06616211 20.63256836 C358.60463067 23.90970545 360.18236981 27.16708514 361.76586914 30.42260742 C367.74043809 42.71608408 373.68066008 55.02518278 379.38696289 67.44604492 C381.09530989 64.88352443 381.93513252 63.14237471 382.87524414 60.28979492 C388.18779796 44.69559831 395.02116092 30.15975519 402.38696289 15.44604492 C402.88800537 14.39610352 403.38904785 13.34616211 403.90527344 12.2644043 C405.90857842 8.45386669 408.49448486 5.39228394 412.38696289 3.44604492 C414.54553036 3.33878604 416.7074563 3.29714555 418.86865234 3.28491211 C419.5339093 3.2799472 420.19916626 3.2749823 420.88458252 3.26986694 C423.08981352 3.2552387 425.29497255 3.24844166 427.50024414 3.24291992 C429.0324046 3.23716825 430.56456504 3.23141052 432.09672546 3.22564697 C435.31220841 3.21513458 438.52766634 3.20929373 441.74316406 3.20581055 C445.85908179 3.2003305 449.97466792 3.17631425 454.09048176 3.14783859 C457.25696266 3.12919241 460.42336409 3.12400553 463.58989525 3.12247467 C465.10692339 3.1194512 466.62395024 3.11143294 468.14092445 3.09828949 C470.26656739 3.08118973 472.39140559 3.08311848 474.51708984 3.08959961 C475.72573196 3.08595398 476.93437408 3.08230835 478.17964172 3.07855225 C481.70676971 3.48268817 483.55562654 4.34655139 486.38696289 6.44604492 C490.85705543 12.10816214 490.59975784 18.96880874 489.93927002 25.84515381 C489.14586104 29.58142707 487.33904785 32.34520442 485.36174011 35.57621765 C475.71627218 51.81423577 477.60331896 68.07651073 478.90576172 86.16589355 C479.18814294 90.29638295 479.3925661 94.43075351 479.60766602 98.56518555 C479.38800296 120.37934248 479.38800296 120.37934248 485.38696289 140.44604492 C487.36942687 141.48037396 489.37109605 142.47842884 491.38696289 143.44604492 C495.25886635 146.89936422 496.59937004 149.19333925 497.08544922 154.39697266 C497.78222015 167.30140907 491.87474149 177.4586368 485.9050293 188.56665039 C484.0519332 192.08151295 482.38249989 195.67124999 480.74707031 199.29199219 C478.94836802 202.14066394 477.21452938 203.5896544 474.38696289 205.44604492 C471.70395366 205.83809952 469.43206587 206.00438575 466.75439453 205.97949219 C466.00252365 205.98810776 465.25065277 205.99672333 464.47599792 206.00559998 C461.99935123 206.02823693 459.52383826 206.02152552 457.04711914 206.01245117 C455.31985641 206.01768805 453.59259655 206.02396477 451.86534119 206.03123474 C448.2481438 206.04163491 444.6313399 206.03708355 441.01416016 206.02246094 C436.38581376 206.00527938 431.75870954 206.0287618 427.13050175 206.06395054 C423.5641614 206.08594524 419.99811729 206.08447802 416.43173027 206.07618523 C414.7257393 206.07536672 413.01972635 206.08221088 411.3137989 206.09695625 C408.92473884 206.11444027 406.53789787 206.09983062 404.14892578 206.07714844 C403.44899506 206.08884064 402.74906433 206.10053284 402.02792358 206.11257935 C396.45531697 206.00530301 394.17078444 204.24187355 390.38696289 200.44604492 C387.37982445 194.43176804 389.66930468 185.61372352 391.38696289 179.44604492 C392.90282464 175.73985866 394.68206112 172.19339584 396.51196289 168.63354492 C397.44026881 166.8191288 398.35990065 165.00024219 399.26977539 163.17651367 C399.67599121 162.38656006 400.08220703 161.59660645 400.50073242 160.78271484 C401.48589157 158.18520569 401.55233972 156.20100314 401.38696289 153.44604492 C401.10651123 154.2068335 400.82605957 154.96762207 400.53710938 155.75146484 C397.46301415 163.93239536 394.05056086 171.88703145 390.35791016 179.8046875 C389.44418885 181.76988814 388.54536986 183.74148938 387.64672852 185.71362305 C379.78844136 202.74530569 379.78844136 202.74530569 374.38696289 205.44604492 C369.87435984 205.70493843 365.35795732 205.71709206 360.83886719 205.74121094 C358.59320716 205.75840143 356.34902856 205.80228492 354.10375977 205.84643555 C352.67082786 205.85656493 351.23788346 205.86508027 349.80493164 205.87182617 C348.50322021 205.88640869 347.20150879 205.90099121 345.86035156 205.91601562 C341.8122111 205.36827749 340.23725271 204.31349736 337.38696289 201.44604492 C335.58618164 198.43041992 335.58618164 198.43041992 334.07446289 195.19604492 C333.56270508 194.11838867 333.05094727 193.04073242 332.52368164 191.93041992 C332.14856445 191.11057617 331.77344727 190.29073242 331.38696289 189.44604492 C328.63705507 192.19595275 327.48125647 195.41555755 325.89868164 198.93823242 C323.92990577 202.20426371 322.73100324 203.48413653 319.38696289 205.44604492 C315.14265793 206.06678422 310.92423317 206.03012322 306.64086914 206.01245117 C305.39699936 206.01864975 304.15312958 206.02484833 302.87156677 206.03123474 C299.57088892 206.04014888 296.27095541 206.02903381 292.97033691 206.012146 C290.95253754 206.0085504 288.93565841 206.02246999 286.91796875 206.04296875 C283.03349913 206.07984587 279.15048026 206.08247793 275.26586914 206.07495117 C274.06571671 206.08820938 272.86556427 206.10146759 271.62904358 206.11512756 C262.33802264 206.01158292 262.33802264 206.01158292 258.64453125 203.03173828 C254.72765731 198.5455685 255.07672623 195.18985513 255.38696289 189.44604492 C256.12916446 179.64208003 261.07341876 171.09319618 265.38696289 162.44604492 C264.61094727 162.49245117 263.83493164 162.53885742 263.03540039 162.58666992 C249.40106357 163.04223249 238.30119484 159.62305679 227.38696289 151.44604492 C226.65735352 150.89948242 225.92774414 150.35291992 225.17602539 149.78979492 C221.3214541 146.65887878 218.45874118 143.3140369 215.65258789 139.21557617 C215.03673828 138.3207251 214.42088867 137.42587402 213.78637695 136.50390625 C213.32457031 135.82481201 212.86276367 135.14571777 212.38696289 134.44604492 C211.94416992 135.40792725 211.50137695 136.36980957 211.04516602 137.36083984 C209.36853251 140.99718638 207.68100621 144.62839551 205.99047852 148.25830078 C205.26623647 149.81718371 204.54478707 151.37736773 203.82641602 152.93896484 C193.07800993 176.28972694 180.39138597 196.35995468 155.38696289 206.44604492 C131.29404386 214.17396235 103.97693154 211.60989728 81.57446289 200.13354492 C72.00859755 194.69919443 64.69722387 188.47264341 58.38696289 179.44604492 C57.05665039 180.62166992 57.05665039 180.62166992 55.69946289 181.82104492 C54.26601497 183.03418249 52.82783464 184.24173421 51.38696289 185.44604492 C50.4755957 186.21948242 49.56422852 186.99291992 48.62524414 187.78979492 C27.48950074 205.21011144 0.37626624 211.26791049 -26.61303711 209.44604492 C-50.67955248 207.05512313 -72.61078756 195.66668394 -88.42163086 177.28198242 C-105.09091849 155.70996313 -109.30768651 130.73492939 -106.32885742 103.88452148 C-105.58217984 99.54258135 -104.24036524 95.52898197 -102.61303711 91.44604492 C-102.16186523 90.30393555 -101.71069336 89.16182617 -101.24584961 87.98510742 C-99.85863096 84.62975554 -98.35012169 81.33852486 -96.81616211 78.0480957 C-95.36958191 74.91951377 -93.96143181 71.77447134 -92.55053711 68.62963867 C-91.70817482 66.76922998 -90.86358055 64.90985916 -90.01754761 63.05111694 C-89.20069907 61.2514804 -88.39220571 59.44805876 -87.58398438 57.64453125 C-76.54084044 33.61582871 -58.97171611 15.67027613 -34.61303711 5.13354492 C-23.1581033 1.03410569 -12.04774569 -0.06724913 0 0 Z M-12.61303711 69.44604492 C-14.53177106 70.10353007 -14.53177106 70.10353007 -16.55053711 71.19604492 C-17.24018555 71.54151367 -17.92983398 71.88698242 -18.64038086 72.24291992 C-21.62002387 74.06020714 -23.28464045 75.32797768 -24.28881836 78.74682617 C-24.6469605 81.72846739 -24.78188285 84.63020866 -24.80053711 87.63354492 C-24.8147168 88.67897461 -24.82889648 89.7244043 -24.84350586 90.80151367 C-24.884952 93.60282713 -24.884952 93.60282713 -22.61303711 95.44604492 C-18.65303711 87.19604492 -14.69303711 78.94604492 -10.61303711 70.44604492 C-11.27303711 70.11604492 -11.93303711 69.78604492 -12.61303711 69.44604492 Z " fill="#205122" transform="translate(108.613037109375,0.553955078125)"/>
<path d="M0 0 C1.70370003 0.00424484 1.70370003 0.00424484 3.44181824 0.00857544 C7.0173157 0.01963922 10.59254889 0.04471687 14.16796875 0.0703125 C16.61392864 0.08036017 19.05989251 0.08948287 21.50585938 0.09765625 C27.4558171 0.11953308 33.40562404 0.15286964 39.35546875 0.1953125 C44.36323579 9.39783024 49.08368159 18.65168819 53.41796875 28.1953125 C54.53298388 30.62473175 55.64946921 33.05338105 56.76953125 35.48046875 C57.05668503 36.10292984 57.34383881 36.72539093 57.63969421 37.36671448 C61.69132917 46.11880781 65.92764043 54.7827645 70.15454102 63.45117188 C73.98886983 71.32193934 77.72039429 79.23050494 81.35546875 87.1953125 C83.07303721 84.61895981 83.96733674 82.76605503 84.95263672 79.89624023 C85.25450897 79.02406357 85.55638123 78.1518869 85.86740112 77.25328064 C86.19088531 76.30473709 86.51436951 75.35619354 86.84765625 74.37890625 C87.19007355 73.38633316 87.53249084 72.39376007 87.88528442 71.37110901 C88.62148765 69.23575053 89.3557849 67.09973418 90.08837891 64.96313477 C91.61558432 60.50981944 93.15248087 56.05987145 94.68902588 51.60977173 C95.46271273 49.36885949 96.23594533 47.12779036 97.00872803 44.88656616 C100.17287377 35.7117226 103.36011149 26.54525378 106.58306885 17.39089966 C107.0970814 15.92979206 107.60990342 14.46826508 108.121521 13.00631714 C108.82170573 11.00581815 109.52549988 9.00662968 110.23046875 7.0078125 C110.61976563 5.90050781 111.0090625 4.79320312 111.41015625 3.65234375 C112.35546875 1.1953125 112.35546875 1.1953125 113.35546875 0.1953125 C115.34978605 0.10126108 117.34746418 0.07788001 119.34399414 0.08178711 C120.62524673 0.08186264 121.90649933 0.08193817 123.22657776 0.08201599 C124.63542723 0.08712341 126.04427631 0.09233941 127.453125 0.09765625 C128.88659109 0.09952048 130.32005782 0.10094436 131.75352478 0.10194397 C135.53306832 0.10576878 139.31257365 0.11559873 143.09210205 0.12664795 C146.94616173 0.13686287 150.80022757 0.14144176 154.65429688 0.14648438 C162.22137162 0.15722104 169.78841484 0.17429701 177.35546875 0.1953125 C177.35546875 3.4953125 177.35546875 6.7953125 177.35546875 10.1953125 C175.36979167 10.81380208 173.38411458 11.43229167 171.3984375 12.05078125 C168.46706328 13.6930234 167.75860685 15.11393051 166.35546875 18.1953125 C165.92991453 21.52355232 166.00928815 24.81776211 166.078125 28.16796875 C166.08908707 29.20196304 166.10004913 30.23595734 166.11134338 31.30128479 C166.33447825 46.59399936 167.03158097 61.87976409 167.68786621 77.15869141 C167.82927596 80.48748682 167.96459114 83.81651909 168.09988308 87.14556789 C168.23215716 90.3860343 168.36759732 93.62636225 168.50404549 96.86665535 C168.56824228 98.39707101 168.63163207 99.92752078 168.69415092 101.45800591 C168.94903489 118.62641802 168.94903489 118.62641802 175.35546875 134.1953125 C178.4848757 136.71410346 180.40742113 137.2083006 184.35546875 138.1953125 C184.35546875 141.4953125 184.35546875 144.7953125 184.35546875 148.1953125 C161.25546875 148.1953125 138.15546875 148.1953125 114.35546875 148.1953125 C114.35546875 144.8953125 114.35546875 141.5953125 114.35546875 138.1953125 C115.74765625 137.5765625 115.74765625 137.5765625 117.16796875 136.9453125 C121.9593215 134.31476589 123.63011292 131.2762251 125.35546875 126.1953125 C125.66191654 123.15893148 125.66191654 123.15893148 125.62109375 119.8515625 C125.6250415 118.5634668 125.62898926 117.27537109 125.63305664 115.94824219 C125.62481065 114.53059311 125.61558557 113.11294946 125.60546875 111.6953125 C125.60336395 110.97331665 125.60125916 110.2513208 125.59909058 109.50744629 C125.55252903 95.64152986 125.03168951 81.79626831 124.41796875 67.9453125 C124.37458374 66.95442627 124.33119873 65.96354004 124.28649902 64.94262695 C124.15985852 62.1047016 124.02681687 59.26716915 123.890625 56.4296875 C123.85201859 55.58416321 123.81341217 54.73863892 123.77363586 53.86749268 C123.55700141 49.5728163 123.17061486 45.42844177 122.35546875 41.1953125 C122.16771378 41.74018311 121.9799588 42.28505371 121.78651428 42.84643555 C112.911712 68.59552901 103.99665353 94.32979565 94.91796875 120.0078125 C94.55607452 121.03382568 94.1941803 122.05983887 93.82131958 123.11694336 C92.79489615 126.02548977 91.76520979 128.9328583 90.734375 131.83984375 C90.43511108 132.6886763 90.13584717 133.53750885 89.82751465 134.4120636 C89.54484741 135.20654404 89.26218018 136.00102448 88.97094727 136.81958008 C88.72989761 137.49990799 88.48884796 138.1802359 88.24049377 138.88117981 C87.03884673 142.02320475 85.68060041 145.10333863 84.35546875 148.1953125 C76.43546875 148.1953125 68.51546875 148.1953125 60.35546875 148.1953125 C54.00485128 135.54631532 47.75604454 122.84986097 41.54296875 110.1328125 C41.05813019 109.14107025 40.57329163 108.149328 40.07376099 107.12753296 C34.19381006 95.09843438 28.32277452 83.06604244 22.58862305 70.96655273 C21.51704683 68.7064797 20.43675353 66.45075315 19.35546875 64.1953125 C18.94353271 63.31907227 18.53159668 62.44283203 18.10717773 61.54003906 C17.68122314 60.65413086 17.25526855 59.76822266 16.81640625 58.85546875 C16.43661621 58.05633057 16.05682617 57.25719238 15.66552734 56.43383789 C11.77839623 49.79181307 5.17222464 46.23850709 -1.64453125 43.1953125 C-1.62132812 42.03773437 -1.598125 40.88015625 -1.57421875 39.6875 C-1.55544977 38.14844399 -1.53725079 36.60938095 -1.51953125 35.0703125 C-1.49439453 33.92949219 -1.49439453 33.92949219 -1.46875 32.765625 C-1.4293913 28.2000162 -1.72119506 24.43450247 -3.64453125 20.1953125 C-9.2778561 17.09698384 -16.30933318 17.36855917 -22.41796875 18.8828125 C-32.21328017 22.17535415 -40.1456489 27.1279193 -45.74609375 35.92578125 C-48.0692637 41.79431056 -47.63099895 50.02892732 -45.76953125 56.00390625 C-42.64883691 62.0913133 -38.19503511 66.01181121 -31.64453125 68.1953125 C-24.95286068 68.92034253 -19.04150771 68.51048967 -13.64453125 64.1953125 C-10.46151056 60.31575294 -8.27369284 55.93469167 -6.64453125 51.1953125 C-1.00907098 51.61797202 3.00192714 53.73480506 7.35546875 57.1953125 C12.82099186 63.95530162 14.18816715 70.70178887 13.35546875 79.1953125 C11.25133694 88.76373671 6.16117918 95.42142557 -1.64453125 101.1953125 C-11.56952456 106.81130666 -25.58981037 106.86882502 -36.46484375 104.2890625 C-49.22101302 99.58465965 -59.68657778 92.06060125 -65.51953125 79.5078125 C-66.263604 77.75169674 -66.97228329 75.98015689 -67.64453125 74.1953125 C-68.00933594 73.33421875 -68.37414062 72.473125 -68.75 71.5859375 C-72.55220798 57.17407495 -70.56661066 41.36516615 -63.15234375 28.6328125 C-61.73722088 26.40381068 -60.23831249 24.29893236 -58.64453125 22.1953125 C-57.90203125 21.1640625 -57.15953125 20.1328125 -56.39453125 19.0703125 C-41.52557135 3.52549078 -20.6604873 -0.19925386 0 0 Z " fill="#FDC3DB" transform="translate(411.64453125,11.8046875)"/>
<path d="M0 0 C8.12337119 7.49434908 14.45074142 17.88366743 15.1953125 28.9921875 C15.45082524 43.3434864 11.68437142 57.29548322 1.47265625 67.9921875 C-6.08007039 74.88477865 -13.95235421 78.04848532 -24.2734375 77.73046875 C-31.56257857 76.80649312 -38.04639763 73.73656057 -43.046875 68.37890625 C-46.82611601 62.42660166 -48.20847096 56.35965121 -47.046875 49.37890625 C-45.9517958 46.46656201 -44.64324785 44.07278543 -43.046875 41.37890625 C-38.296875 43.25390625 -38.296875 43.25390625 -36.046875 44.37890625 C-30.6063602 45.03176803 -27.23835356 44.03726218 -22.84765625 40.9765625 C-18.85743529 37.43643154 -17.4109899 33.7232952 -16.6015625 28.51171875 C-16.21585362 21.92112786 -17.22694244 17.53576571 -21.26953125 12.28515625 C-26.94435393 6.19875303 -32.9531006 3.38672005 -41.296875 2.94140625 C-49.30943325 3.12622781 -55.31349646 6.50618009 -61.171875 11.81640625 C-73.3189548 24.87144959 -80.51224089 44.05589776 -80.296875 61.75390625 C-80.28793213 62.58752686 -80.27898926 63.42114746 -80.26977539 64.2800293 C-80.01120099 78.04878096 -76.52493795 91.53685567 -66.77734375 101.859375 C-54.84552817 112.33674805 -41.63462582 117.13365405 -25.72265625 116.7265625 C-14.01025315 115.61880068 0.72825426 112.38688501 8.953125 103.44140625 C9.613125 102.76078125 10.273125 102.08015625 10.953125 101.37890625 C14.80250468 101.62151421 16.63768778 103.74769717 19.203125 106.44140625 C19.90953125 107.17488281 20.6159375 107.90835938 21.34375 108.6640625 C21.87484375 109.22996094 22.4059375 109.79585938 22.953125 110.37890625 C11.95576265 127.52185345 -6.94780882 135.7211683 -26.046875 140.37890625 C-27.284375 140.71728516 -27.284375 140.71728516 -28.546875 141.0625 C-49.22510874 146.12727009 -72.75981023 141.30034188 -90.85644531 130.80297852 C-106.99075924 120.84260175 -117.62254442 106.10758774 -124.046875 88.37890625 C-124.3871875 87.48558594 -124.7275 86.59226562 -125.078125 85.671875 C-130.81801305 67.52213641 -127.92376213 46.17799595 -119.296875 29.56640625 C-115.85586453 23.30072177 -111.83926951 17.69622835 -107.046875 12.37890625 C-106.48355469 11.74597656 -105.92023438 11.11304687 -105.33984375 10.4609375 C-80.12822407 -16.28581593 -29.41993675 -23.30014075 0 0 Z " fill="#FDC2DB" transform="translate(156.046875,21.62109375)"/>
<path d="M0 0 C4.5396893 3.81144747 7.10374851 7.12067861 7.875 13.08984375 C8.11883905 19.25439968 7.85688814 23.46753785 3.5 28.1875 C-0.48299904 31.78170304 -3.6707736 31.67651651 -8.859375 31.55859375 C-12.32866965 31.07104495 -14.16777975 29.76098442 -16.5 27.1875 C-16.1394288 23.94235923 -15.46869671 23.16001418 -12.9375 20.9375 C-10.44972703 18.13078178 -10.09361873 17.63116641 -9.9375 14.125 C-10.19349233 10.25980765 -10.19349233 10.25980765 -12.125 7.8125 C-16.98655475 4.48617307 -21.66211967 3.56201282 -27.5 4.1875 C-33.7780512 7.3265256 -37.2373712 12.0609906 -39.8125 18.4375 C-41.65646746 28.49550432 -40.53096952 37.35007723 -35.8125 46.4375 C-31.96519949 51.01266817 -27.50482869 55.04819098 -21.5 56.1875 C-21.5 58.1675 -21.5 60.1475 -21.5 62.1875 C-22.47839844 62.40664062 -23.45679688 62.62578125 -24.46484375 62.8515625 C-35.81464741 65.53650903 -44.56626573 69.33312525 -51.5 79.1875 C-55.4963602 86.0777762 -56.54085696 93.31538763 -55.5 101.1875 C-52.15639285 111.09494112 -46.50647029 117.9412045 -37.1875 122.625 C-26.94983352 126.30738546 -12.33219085 125.81550666 -2.5 121.1875 C5.47654126 117.24971381 11.08350599 111.45901181 14.5 103.1875 C16.69326818 95.81014341 16.04538565 88.91937927 12.63671875 82.078125 C11.19707768 79.68367044 10.09943121 78.290289 7.5 77.1875 C3.5672628 77.62886247 0.99083061 78.90100718 -2.25 81.125 C-3.02859375 81.64964844 -3.8071875 82.17429687 -4.609375 82.71484375 C-6.61538653 84.05926427 -6.61538653 84.05926427 -7.5 86.1875 C-7.90635918 90.23226369 -7.90635918 90.23226369 -7.5 94.1875 C-5.16169042 96.7279226 -5.16169042 96.7279226 -2.5 98.1875 C-2.79950017 101.0826683 -3.30934832 102.02573494 -5.5625 103.9375 C-9.3135993 105.53371247 -12.52886642 105.98624793 -16.5 105.1875 C-20.41819802 103.36472 -22.92342976 100.98725872 -25.4375 97.5 C-27.11072462 92.2834762 -27.71776921 87.20215533 -25.62109375 82.01171875 C-24.38647657 79.91327701 -23.04264722 78.07032071 -21.5 76.1875 C-21.03851563 75.61515625 -20.57703125 75.0428125 -20.1015625 74.453125 C-13.7738804 67.45091842 -5.01516846 62.88108527 3.015625 58.08203125 C13.97617041 52.31090307 13.97617041 52.31090307 21.30859375 42.9609375 C22.12755843 37.91206249 21.30318119 34.56046265 18.5 30.1875 C24.82215137 26.76681906 30.29207133 25.04818224 37.5 26.1875 C43.45212106 28.03973348 46.91553842 31.1909778 50.5 36.1875 C52.7301213 40.64774261 51.98343892 46.3474233 51.5 51.1875 C48.9483834 58.69298689 41.7186236 64.92570783 34.90625 68.578125 C30.22085153 70.58212073 26.63514271 71.36585517 21.5 71.1875 C22.05429687 71.91195312 22.60859375 72.63640625 23.1796875 73.3828125 C24.26636719 74.83300781 24.26636719 74.83300781 25.375 76.3125 C26.45394531 77.73949219 26.45394531 77.73949219 27.5546875 79.1953125 C33.26911763 87.98497813 32.89833935 100.21350375 30.8828125 110.265625 C26.17844109 123.17142267 14.71296018 135.92920135 2.5 142.1875 C-18.36905437 150.92446978 -40.8896701 151.94907034 -62.18359375 143.6640625 C-77.61183483 136.79495163 -88.65053404 127.54652574 -95.375 111.9375 C-99.32087208 100.96823103 -98.37592166 90.70391091 -93.5 80.1875 C-87.7844156 69.98532992 -79.89009091 63.22270982 -69.75 57.6875 C-68.79287109 57.1613208 -68.79287109 57.1613208 -67.81640625 56.62451172 C-64.2425272 54.76733086 -61.54029071 53.75571321 -57.5 54.1875 C-57.5 53.5275 -57.5 52.8675 -57.5 52.1875 C-58.37978516 51.80464844 -58.37978516 51.80464844 -59.27734375 51.4140625 C-64.8427148 48.3428384 -69.16105465 42.47297009 -71.06640625 36.44921875 C-72.55516767 28.68351728 -72.38916738 20.21269441 -68.5 13.1875 C-61.2364752 3.30730167 -51.98029728 -3.81812635 -39.86328125 -6.3671875 C-26.04212374 -8.19716654 -11.86401858 -8.07532651 0 0 Z " fill="#FCC2DA" transform="translate(282.5,15.8125)"/>
<path d="M0 0 C0.33 0 0.66 0 1 0 C0.97643433 1.28463135 0.97643433 1.28463135 0.95239258 2.59521484 C0.9007957 5.8194753 0.86342454 9.043523 0.83520508 12.26806641 C0.82026053 13.65485627 0.79989722 15.04160007 0.77368164 16.42822266 C0.3783382 28.582546 0.3783382 28.582546 4 40 C6.78783626 42.43114222 9.52882136 43.74651882 13 45 C13 47.97 13 50.94 13 54 C-3.17 54 -19.34 54 -36 54 C-36 50.7 -36 47.4 -36 44 C-34.01432292 43.08854167 -32.02864583 42.17708333 -30.04296875 41.265625 C-25.6851654 38.56595333 -24.51536129 35.08713692 -23.375 30.25 C-23.11332031 29.19039062 -22.85164063 28.13078125 -22.58203125 27.0390625 C-22.079507 24.41514396 -21.99616599 22.26815526 -22.0625 19.625 C-21 16 -21 16 -18.51953125 14.42578125 C-16.39323155 13.41942077 -14.2503548 12.44747602 -12.09375 11.5078125 C-6.70191511 8.87997378 -3.28181438 4.92272158 0 0 Z " fill="#FBC2DA" transform="translate(428,106)"/>
</svg>
