<?xml version="1.0" encoding="UTF-8"?>
<svg version="1.1" xmlns="http://www.w3.org/2000/svg" width="1431" height="298">
<path d="M0 0 C7.15197863 5.32413268 13.12255563 11.02367024 15 20 C15.81012841 31.46910366 15.069744 40.46821037 10 51 C9.38979068 52.43494536 8.78437784 53.87195828 8.1875 55.3125 C7.5996875 56.6428125 7.5996875 56.6428125 7 58 C7.8971875 58.2475 7.8971875 58.2475 8.8125 58.5 C12.18527798 60.81276204 12.8331548 64.19891337 14 68 C14.44988281 67.55269531 14.89976562 67.10539062 15.36328125 66.64453125 C26.56174926 56.11931783 39.28211514 53.64141037 54.1875 53.6875 C55.24130859 53.67138672 56.29511719 53.65527344 57.38085938 53.63867188 C63.09518754 53.63507116 67.01140479 53.93546639 72 57 C74.60171412 57.99805048 75.52772827 58.1605217 78.18359375 57.2578125 C79.29927734 56.69707031 79.29927734 56.69707031 80.4375 56.125 C89.56761739 51.583759 103.12359455 51.21134927 112.9375 54 C122.55812196 57.99274824 130.47341096 64.96473743 134.625 74.5 C135.23214844 75.87671875 135.23214844 75.87671875 135.8515625 77.28125 C136.93337028 79.84226434 137.97882632 82.41427582 139 85 C139.46148438 84.29875 139.92296875 83.5975 140.3984375 82.875 C150.11206474 68.74608765 165.10320525 58.77229578 182.07421875 55.38671875 C191.34199813 54.47377332 200.70056202 54.77828703 210 55 C210.17740723 54.40614502 210.35481445 53.81229004 210.53759766 53.20043945 C214.17397017 41.58838442 221.3754655 34.60202728 232 29 C236.37516664 27.65126442 240.70930772 27.77798578 245.25 27.75 C246.48169922 27.7190625 246.48169922 27.7190625 247.73828125 27.6875 C255.81556018 27.63629696 262.67819953 29.75425067 269 35 C275.32532576 42.61702386 278.52228442 49.49942132 278.23828125 59.484375 C277.70600764 65.10378816 275.78782842 69.73486266 272.9140625 74.55859375 C267.61027474 83.68810171 266.32536437 89.02251894 269.03515625 99.25390625 C272.96010335 114.49287091 266.20697157 128.2574939 259.75 141.8125 C259.19570312 142.99392578 258.64140625 144.17535156 258.0703125 145.39257812 C256.7211305 148.26540531 255.36432426 151.13434149 254 154 C254.78318604 154.30091553 255.56637207 154.60183105 256.37329102 154.91186523 C265.24266417 158.58607252 270.81452863 167.19196298 274.640625 175.609375 C276.45136302 180.63412911 276.4956373 185.5174639 276.4375 190.8125 C276.42847656 191.79299316 276.41945313 192.77348633 276.41015625 193.78369141 C276.23859836 200.93551112 275.32425496 206.60361054 272 213 C271.40903311 214.21366584 270.82070256 215.42861735 270.234375 216.64453125 C268.55844964 220.08274816 266.82175234 223.48693823 265.07324219 226.88867188 C263.99792678 229.00407852 262.95176304 231.13154151 261.9140625 233.265625 C253.51310965 250.51411293 243.94631398 263.61382764 225.0625 270.25 C213.10760681 274.17189302 201.31833055 274.3703156 188.875 274.3125 C187.98207245 274.30934784 187.0891449 274.30619568 186.16915894 274.302948 C160.59472113 274.1706748 136.90139747 269.9336542 112.04296875 264.25390625 C97.92904831 261.03826499 83.77072802 257.8958512 69.375 256.25 C68.32868408 256.12931152 67.28236816 256.00862305 66.2043457 255.88427734 C49.38178986 254.06527498 31.68460263 253.04710266 17 263 C14.21040182 265.52635441 11.6011404 268.14181818 9.03125 270.890625 C6.31833845 273.7078793 4.62413498 274.22100438 0.8125 274.4375 C-3.81339937 274.363367 -6.10651056 273.1177524 -9.3671875 269.91015625 C-17.09778031 260.86647232 -19.32256901 253.40315276 -19.125 241.625 C-19.11597656 240.60277344 -19.10695313 239.58054687 -19.09765625 238.52734375 C-19.0742043 236.01798478 -19.04138355 233.50911664 -19 231 C-19.57353085 231.00276538 -20.14706169 231.00553076 -20.73797226 231.00837994 C-34.69251993 231.07462973 -48.64704005 231.12408417 -62.60171127 231.15543652 C-69.35009152 231.17090619 -76.09836681 231.19199747 -82.84667969 231.22631836 C-89.35648456 231.25941045 -95.86622124 231.27684259 -102.37610626 231.28463173 C-104.86246713 231.29018419 -107.34882188 231.30102648 -109.83513641 231.31719017 C-113.31177281 231.33889758 -116.78795542 231.34196967 -120.26464844 231.34057617 C-121.29755005 231.351362 -122.33045166 231.36214783 -123.39465332 231.3732605 C-124.81647919 231.36707451 -124.81647919 231.36707451 -126.26702881 231.36076355 C-127.50038782 231.36491162 -127.50038782 231.36491162 -128.75866318 231.36914349 C-131.50736327 230.91643833 -132.83659239 229.69396861 -135 228 C-137.30152621 228.61559265 -137.30152621 228.61559265 -140 230 C-151.83880301 235.22817628 -167.90974691 234.79003867 -179.953125 230.484375 C-184.79305678 228.12645952 -189.11266499 225.14274537 -193.41796875 221.92578125 C-195.81856389 220.01727643 -195.81856389 220.01727643 -198 219 C-198.38671875 219.61488281 -198.7734375 220.22976562 -199.171875 220.86328125 C-199.69265625 221.67152344 -200.2134375 222.47976562 -200.75 223.3125 C-201.26046875 224.11300781 -201.7709375 224.91351563 -202.296875 225.73828125 C-204.09178239 228.12188533 -205.45415929 229.45156271 -208 231 C-210.80786133 231.38095093 -210.80786133 231.38095093 -214.08203125 231.38818359 C-215.31010498 231.39764008 -216.53817871 231.40709656 -217.8034668 231.4168396 C-219.13981449 231.41146971 -220.47615923 231.40531671 -221.8125 231.3984375 C-223.18725743 231.40045932 -224.56201381 231.40337167 -225.93676758 231.40713501 C-228.81504549 231.41155332 -231.69304371 231.40514355 -234.57128906 231.39111328 C-238.25686406 231.37402123 -241.94178363 231.38386512 -245.62733459 231.40183067 C-248.46526001 231.41268209 -251.30303056 231.40921604 -254.14096069 231.4014473 C-255.49970579 231.39944902 -256.85846504 231.40189149 -258.2171936 231.40888596 C-260.11744917 231.41652181 -262.01775417 231.40281573 -263.91796875 231.38818359 C-265.53868286 231.38460342 -265.53868286 231.38460342 -267.19213867 231.38095093 C-270.34544822 230.95313201 -271.5856087 229.97907612 -274 228 C-276.30152621 228.61559265 -276.30152621 228.61559265 -279 230 C-285.83963326 232.52040803 -292.10435263 233.52294996 -299.375 233.4375 C-300.2932959 233.42920166 -301.2115918 233.42090332 -302.15771484 233.41235352 C-316.52839501 233.05568852 -328.5348994 227.18591112 -338.46484375 216.7734375 C-340.37549381 214.56622344 -342.1903506 212.29039859 -344 210 C-344.55945313 210.54527344 -345.11890625 211.09054688 -345.6953125 211.65234375 C-364.92768272 229.74066623 -387.083524 237.01665466 -413.3984375 236.34375 C-432.48463275 235.44071947 -450.01432532 227.01085953 -463 213 C-463.53109375 212.43925781 -464.0621875 211.87851563 -464.609375 211.30078125 C-475.3828608 199.55005448 -480.77065057 186.46676906 -484 171 C-484.33128906 172.0725 -484.66257812 173.145 -485.00390625 174.25 C-488.75465831 185.85290023 -493.50842127 196.85479277 -498.6875 207.875 C-499.01678497 208.57931152 -499.34606995 209.28362305 -499.68533325 210.00927734 C-507.84838524 227.41865154 -507.84838524 227.41865154 -511.84228516 230.35400391 C-516.52648564 231.75640201 -521.51279486 231.37179233 -526.36230469 231.37060547 C-528.3614951 231.37497051 -530.36052657 231.4119853 -532.359375 231.44921875 C-533.63039063 231.45308594 -534.90140625 231.45695313 -536.2109375 231.4609375 C-537.36899902 231.46915527 -538.52706055 231.47737305 -539.72021484 231.48583984 C-543.91306895 230.86474563 -545.83565091 229.83736088 -549 227 C-550.73007934 224.13722703 -551.86535168 221.13964408 -553 218 C-553.33857025 217.07808868 -553.6771405 216.15617737 -554.02597046 215.20632935 C-555.14458469 212.0859135 -556.22294437 208.95380354 -557.29296875 205.81640625 C-557.68446609 204.67968979 -558.07596344 203.54297333 -558.47932434 202.37181091 C-559.71916508 198.76999421 -560.95360582 195.1663577 -562.1875 191.5625 C-563.43302755 187.93397352 -564.67969121 184.30584315 -565.92781067 180.6782074 C-566.70189612 178.42738286 -567.47431554 176.17598454 -568.24491882 173.92396545 C-568.59230606 172.91208664 -568.9396933 171.90020782 -569.29760742 170.85766602 C-569.60309006 169.96547867 -569.90857269 169.07329132 -570.22331238 168.15406799 C-570.95573678 165.99076091 -570.95573678 165.99076091 -572 164 C-572.23485107 164.7621582 -572.46970215 165.52431641 -572.71166992 166.30957031 C-577.2979529 181.02348273 -582.24229816 195.38989545 -588.75 209.375 C-589.28004639 210.52516602 -589.81009277 211.67533203 -590.35620117 212.86035156 C-597.74179046 228.37089523 -597.74179046 228.37089523 -603 231 C-607.63727707 231.2829355 -612.27531639 231.31372338 -616.92041016 231.35009766 C-618.46646207 231.36662431 -620.01243861 231.39387144 -621.55810547 231.43212891 C-623.79434583 231.48716157 -626.02879685 231.50881095 -628.265625 231.5234375 C-628.9502179 231.54610687 -629.63481079 231.56877625 -630.34014893 231.59213257 C-634.14764955 231.57553436 -636.07809904 230.95023258 -639.3125 228.88916016 C-642.28825223 225.69011838 -643.39208341 223.38900997 -644.734375 219.25 C-644.96594803 218.55616714 -645.19752106 217.86233429 -645.43611145 217.1474762 C-645.9498041 215.59987396 -646.45439211 214.04922837 -646.95120239 212.49612427 C-647.7727989 209.92875682 -648.61773823 207.3700968 -649.46850586 204.81225586 C-650.8252302 200.72638355 -652.17163964 196.63726766 -653.51318359 192.54638672 C-657.91405076 179.15836116 -662.41431746 165.80324921 -666.91155052 152.44735146 C-668.67272542 147.21529392 -670.42528247 141.98045459 -672.17083454 136.74316502 C-673.28258835 133.4119678 -674.40049382 130.08285656 -675.51981163 126.75419426 C-676.04332019 125.19319499 -676.56432346 123.63135288 -677.0825901 122.06860542 C-681.25870602 107.50122024 -681.25870602 107.50122024 -689.8125 95.5625 C-692.88829577 94.05475697 -695.87702248 92.93212187 -699.16796875 92.00390625 C-701.87518141 90.52042298 -702.6347968 88.7505449 -704 86 C-705.8493165 74.62281335 -702.57362717 66.05882574 -697.3125 56.1875 C-696.67756622 54.94477191 -696.04539312 53.7006294 -695.41601562 52.45507812 C-694.19898168 50.05510226 -692.96006066 47.67170947 -691.70556641 45.29052734 C-689.78122487 41.57791996 -688.02286681 37.80270358 -686.32495117 33.98168945 C-684.52761463 31.29346747 -682.92644192 30.4043769 -680 29 C-677.25010844 28.71538458 -674.73064925 28.5893078 -671.984375 28.61181641 C-671.19188354 28.60655945 -670.39939209 28.60130249 -669.58288574 28.59588623 C-666.97172142 28.58271735 -664.36117018 28.5914131 -661.75 28.6015625 C-659.93066288 28.59954087 -658.11132654 28.59662868 -656.29199219 28.59286499 C-652.48234325 28.58844586 -648.67290559 28.59485945 -644.86328125 28.60888672 C-639.98402081 28.62597837 -635.10525546 28.61613499 -630.22601318 28.59816933 C-626.47017701 28.58732039 -622.7144579 28.59078293 -618.95861816 28.5985527 C-617.15970806 28.60055164 -615.36078727 28.59810621 -613.56188965 28.59111404 C-611.04618237 28.58348126 -608.53127297 28.59512896 -606.015625 28.61181641 C-605.27469604 28.60574371 -604.53376709 28.59967102 -603.77038574 28.59341431 C-599.33844567 28.64778123 -596.54448751 29.30766081 -593 32 C-590.21127208 35.60494097 -590.53673926 40.12167839 -590.5 44.5 C-590.48924438 45.70233276 -590.48924438 45.70233276 -590.47827148 46.92895508 C-590.60964583 53.44603751 -592.42594725 57.88803212 -595.72265625 63.52734375 C-597.54942 67.06355614 -597.15169802 69.25698144 -596 73 C-595.64038095 74.47785053 -595.28629534 75.95705754 -594.9375 77.4375 C-594.628125 78.613125 -594.31875 79.78875 -594 81 C-593.70609375 80.20722656 -593.4121875 79.41445312 -593.109375 78.59765625 C-588.49985866 66.61026461 -582.91441054 55.11387573 -577.26586914 43.58618164 C-576.2642342 41.53983277 -575.27780537 39.48604152 -574.296875 37.4296875 C-572.35360085 33.78897508 -569.71531702 30.85765851 -566 29 C-563.51681408 28.86488218 -561.06295693 28.78740616 -558.578125 28.76171875 C-557.47171661 28.74961113 -557.47171661 28.74961113 -556.34295654 28.73725891 C-554.77944284 28.72341949 -553.21589894 28.71269669 -551.65234375 28.70483398 C-549.27284555 28.68766484 -546.89475307 28.64378613 -544.515625 28.59960938 C-542.99480186 28.58947817 -541.47396693 28.5809634 -539.953125 28.57421875 C-539.24665833 28.55671066 -538.54019165 28.53920258 -537.81231689 28.52116394 C-532.74426414 28.54316898 -529.89550365 29.81043726 -526 33 C-524.53125 35.41796875 -524.53125 35.41796875 -523.5 38.1875 C-523.10425781 39.23164062 -522.70851563 40.27578125 -522.30078125 41.3515625 C-521.65689453 43.15753906 -521.65689453 43.15753906 -521 45 C-520.45241914 46.48719883 -519.9042108 47.97416673 -519.35546875 49.4609375 C-518.79754606 50.99408958 -518.24154187 52.52794123 -517.6875 54.0625 C-517.42066406 54.80072998 -517.15382813 55.53895996 -516.87890625 56.29956055 C-515.81589948 59.32248605 -515 61.77126448 -515 65 C-514.34 65 -513.68 65 -513 65 C-512.61457031 63.75863281 -512.22914063 62.51726562 -511.83203125 61.23828125 C-509.86634072 55.3573313 -507.32618441 49.79245447 -504.6875 44.1875 C-504.22666016 43.16462891 -503.76582031 42.14175781 -503.29101562 41.08789062 C-502.82759766 40.10369141 -502.36417969 39.11949219 -501.88671875 38.10546875 C-501.47639404 37.22012451 -501.06606934 36.33478027 -500.64331055 35.42260742 C-498.3769168 32.08143595 -496.67754866 30.76017923 -493 29 C-488.93409815 28.42468757 -484.9135127 28.43940073 -480.8125 28.46875 C-479.6366333 28.4649231 -478.4607666 28.46109619 -477.24926758 28.45715332 C-474.76805768 28.45443649 -472.28681902 28.46178151 -469.80566406 28.47851562 C-466.01302081 28.49992649 -462.222272 28.47870404 -458.4296875 28.453125 C-456.01562083 28.45576831 -453.60155533 28.46089336 -451.1875 28.46875 C-450.05610596 28.46065308 -448.92471191 28.45255615 -447.7590332 28.44421387 C-441.54781045 28.51800544 -437.70576158 28.7938515 -433 33 C-430.28483 36.51791592 -430.57754143 40.78368299 -430.5625 45.0625 C-430.55863281 45.8145874 -430.55476563 46.5666748 -430.55078125 47.34155273 C-430.68810666 54.03115964 -432.52812246 59.2590025 -436 65 C-435.00742187 64.46890625 -434.01484375 63.9378125 -432.9921875 63.390625 C-431.62014216 62.67640962 -430.24772553 61.96290718 -428.875 61.25 C-427.90626953 60.72792969 -427.90626953 60.72792969 -426.91796875 60.1953125 C-415.08500899 54.10979034 -403.31862175 52.29511063 -390.125 52.5 C-389.42411255 52.50553894 -388.7232251 52.51107788 -388.00109863 52.51678467 C-369.55578864 52.68770118 -352.17848219 56.19658612 -338 69 C-328 79.22177419 -328 79.22177419 -328 84 C-327.34 84 -326.68 84 -326 84 C-325.73445313 83.41863281 -325.46890625 82.83726563 -325.1953125 82.23828125 C-318.58837878 69.86647399 -304.60979207 60.71877703 -291.8203125 55.76953125 C-289 55 -289 55 -285 55 C-284.90460938 54.31808594 -284.80921875 53.63617188 -284.7109375 52.93359375 C-283.84532099 49.3617366 -282.31154048 46.29968203 -280.625 43.0625 C-280.32078125 42.46759766 -280.0165625 41.87269531 -279.703125 41.25976562 C-278.80548583 39.50476596 -277.90278871 37.75235626 -277 36 C-276.24009766 34.40478516 -276.24009766 34.40478516 -275.46484375 32.77734375 C-270.99285479 24.29845267 -262.33753339 18.86635355 -253.4921875 15.7734375 C-243.9546883 12.95876152 -235.03300572 11.80377479 -225.125 11.75 C-224.18269531 11.729375 -223.24039062 11.70875 -222.26953125 11.6875 C-214.83111237 11.64634692 -208.38215184 12.3311669 -202.41209412 17.042099 C-199.32813075 20.82389933 -199.28929226 23.7878677 -199.34057617 28.4621582 C-199.33009247 29.3016954 -199.31960876 30.1412326 -199.30880737 31.00621033 C-199.28008673 33.77144463 -199.28634523 36.53542469 -199.29296875 39.30078125 C-199.27985188 41.22179227 -199.26454769 43.14278949 -199.24714661 45.06376648 C-199.20728243 50.11247019 -199.19710523 55.16081323 -199.19311523 60.20965576 C-199.1837865 65.36449128 -199.14637456 70.51911465 -199.11132812 75.67382812 C-199.04673779 85.78254216 -199.01350953 95.89109767 -199 106 C-198.47615723 104.84967285 -197.95231445 103.6993457 -197.41259766 102.51416016 C-196.70508936 100.98063886 -195.99722532 99.44728166 -195.2890625 97.9140625 C-194.94625244 97.15875244 -194.60344238 96.40344238 -194.25024414 95.62524414 C-191.01251273 88.64847947 -186.91320016 82.92908742 -182 77 C-181.49984375 76.33742188 -180.9996875 75.67484375 -180.484375 74.9921875 C-173.5874769 66.15305947 -163.19338479 60.27904121 -153 56 C-151.27330078 55.80083984 -151.27330078 55.80083984 -149.51171875 55.59765625 C-143.71197657 52.95906387 -142.42721835 47.47697378 -140.0625 41.8125 C-134.31919097 28.17702483 -127.54782633 21.48585132 -113.85888672 15.71630859 C-104.71944171 12.19448936 -95.36219979 11.73464443 -85.6875 11.625 C-84.78064453 11.61090088 -83.87378906 11.59680176 -82.93945312 11.58227539 C-75.65502067 11.63474349 -67.78333657 12.21666343 -62.4375 17.5625 C-60.48991194 20.86493193 -59.8523728 22.76072822 -59.68359375 26.5703125 C-59.64169922 27.46621094 -59.59980469 28.36210938 -59.55664062 29.28515625 C-59.51732422 30.22230469 -59.47800781 31.15945312 -59.4375 32.125 C-59.37272461 33.54232422 -59.37272461 33.54232422 -59.30664062 34.98828125 C-59.20040928 37.32537092 -59.09836824 39.6625683 -59 42 C-58.66790527 41.25427734 -58.33581055 40.50855469 -57.99365234 39.74023438 C-56.73794459 36.93351193 -55.47324594 34.13105914 -54.20263672 31.33105469 C-53.39257504 29.53888284 -52.59265484 27.74213804 -51.79296875 25.9453125 C-46.56660471 14.46021622 -40.2080988 4.09107895 -28.375 -1.4375 C-19.66175221 -4.55225114 -8.19254392 -4.69626839 0 0 Z M-279 123 C-280.06144945 128.63095167 -279.87090349 133.57821594 -279.1875 139.25 C-279.10435547 140.05179688 -279.02121094 140.85359375 -278.93554688 141.6796875 C-278.48629205 145.60164937 -278.25164886 147.62252671 -276 151 C-275.97067428 147.81251971 -275.95309261 144.62507472 -275.9375 141.4375 C-275.92912109 140.54224609 -275.92074219 139.64699219 -275.91210938 138.72460938 C-275.89377157 133.7183886 -275.95252578 128.90797671 -277 124 C-277.66 123.67 -278.32 123.34 -279 123 Z M-140 123 C-140.20871753 132.24154826 -140.14982548 140.9400212 -138 150 C-137.67 150 -137.34 150 -137 150 C-136.91303823 146.06263877 -136.85962165 142.12552372 -136.8125 138.1875 C-136.78736328 137.06794922 -136.76222656 135.94839844 -136.73632812 134.79492188 C-136.72182617 133.18520508 -136.72182617 133.18520508 -136.70703125 131.54296875 C-136.6913208 130.55321045 -136.67561035 129.56345215 -136.65942383 128.54370117 C-137.04952877 125.6300787 -137.72008288 124.77502198 -140 123 Z " fill="#205122" transform="translate(1134,23)"/>
<path d="M0 0 C0.93199219 0.20496094 1.86398438 0.40992188 2.82421875 0.62109375 C14.1238987 3.47705682 22.97421073 10.37156986 29.3125 19.9921875 C33.94865744 29.03913361 34.05845523 42.1335815 31.1796875 51.73632812 C29.18953459 56.95858051 26.7299977 61.91773025 24.12011719 66.85449219 C22.59828849 69.7694509 21.26790639 72.74312775 19.9375 75.75 C19.29209003 77.16685959 18.64646612 78.58362198 18 80 C18.845625 80.94875 19.69125 81.8975 20.5625 82.875 C29.54028755 93.46581794 33.89259377 103.53457299 37 117 C37.44988281 116.12859375 37.89976562 115.2571875 38.36328125 114.359375 C48.7717363 94.83110448 64.9598743 80.49077432 86.390625 73.86328125 C94.24457885 71.68231535 101.76951082 71.37307728 109.875 71.5 C110.57655212 71.50587128 111.27810425 71.51174255 112.00091553 71.51779175 C131.40441728 71.70816302 149.39242393 75.60421059 163.8125 89.62109375 C173.33187769 99.97341699 176.29885879 109.39004091 176.3984375 123.34765625 C175.28874756 133.51981401 170.65114458 142.49924799 166.3125 151.625 C165.69923496 152.92808684 165.08660018 154.23147048 164.47460938 155.53515625 C162.99031176 158.69355372 161.49756585 161.84786801 160 165 C160.94399658 165.45648926 161.88799316 165.91297852 162.8605957 166.38330078 C168.58649584 169.33196792 174.57552352 174.9388088 177 181 C177.97665818 188.90454194 174.84376511 194.43666434 171.3125 201.375 C170.51682617 202.98375 170.51682617 202.98375 169.70507812 204.625 C168.65272824 206.74777695 167.5915809 208.86621768 166.52124023 210.97998047 C165.54230079 212.92340544 164.5794828 214.87507949 163.63696289 216.83642578 C155.57715307 233.54491828 140.17621986 244.46602613 123.02490234 250.72021484 C102.22228922 257.60502779 78.67967667 257.60695225 58.6875 248.25 C52.71653999 245.05243671 47.37724266 241.09518995 42 237 C41.01 236.34 40.02 235.68 39 235 C38.70867187 235.66386719 38.41734375 236.32773438 38.1171875 237.01171875 C37.50230469 238.33623047 37.50230469 238.33623047 36.875 239.6875 C36.48054688 240.55761719 36.08609375 241.42773438 35.6796875 242.32421875 C33.52862957 245.75090406 31.63594061 248.20578887 28 250 C23.28234438 250.74332267 18.5749918 250.65314199 13.81225586 250.59936523 C12.36136963 250.60123046 10.91048482 250.60526961 9.45960999 250.61131287 C5.52972672 250.62127215 1.60056687 250.60014364 -2.32921147 250.57283282 C-6.4454883 250.54896748 -10.56175164 250.5519475 -14.67808533 250.55152893 C-21.58898127 250.5469038 -28.49960134 250.52328111 -35.41040039 250.48706055 C-43.39707805 250.44531222 -51.38350744 250.42774455 -59.37028795 250.4244408 C-67.87924048 250.42083941 -76.38810386 250.40196356 -84.89701915 250.37732053 C-87.3465947 250.37109645 -89.79616347 250.36745729 -92.24574471 250.36428642 C-96.09618278 250.35837893 -99.94644411 250.3420467 -103.79680824 250.31768227 C-105.20891198 250.31025202 -106.62103795 250.30617096 -108.03316116 250.30570221 C-109.96228563 250.30444115 -111.89138701 250.28962929 -113.82044983 250.27415466 C-115.43895135 250.2671789 -115.43895135 250.2671789 -117.09014988 250.26006222 C-120 250 -120 250 -122.69872189 248.85786533 C-123.45814366 248.57476977 -124.21756544 248.29167421 -125 248 C-125.99 248.66 -126.98 249.32 -128 250 C-130.5101841 250.20414421 -132.91036663 250.29372963 -135.42138672 250.29052734 C-136.17457184 250.29724457 -136.92775696 250.30396179 -137.70376587 250.31088257 C-140.1958067 250.32989369 -142.68757864 250.33378837 -145.1796875 250.3359375 C-146.91220206 250.34236353 -148.64471552 250.34909174 -150.37722778 250.35610962 C-154.0104626 250.36809034 -157.64360229 250.37178965 -161.27685547 250.37060547 C-165.92981158 250.37040229 -170.58215682 250.39769927 -175.23496819 250.43214989 C-178.81408483 250.45440137 -182.39305409 250.45844354 -185.97223282 250.45738602 C-187.68743113 250.45974482 -189.40263333 250.46858409 -191.11776352 250.48405075 C-193.51888376 250.50367492 -195.91868213 250.49788758 -198.31982422 250.48583984 C-199.02649231 250.49707886 -199.7331604 250.50831787 -200.46124268 250.51989746 C-205.23542364 250.45910822 -207.64545845 249.37410671 -211 246 C-213.89853793 240.20292415 -213.29482259 232.1711224 -212 226 C-210.62862076 223.07122455 -209.02269024 220.3699421 -207.36540222 217.59370422 C-196.61450455 199.17860058 -197.24862707 180.84629205 -197.64379883 160.06109619 C-197.71768607 155.4139396 -197.71549273 150.76679163 -197.72070312 146.11914062 C-197.74155097 137.07794933 -197.84324456 128.03978907 -198 119 C-199.93991015 119.61139318 -201.87695951 120.23186881 -203.81274414 120.85620117 C-204.89173477 121.20075851 -205.9707254 121.54531586 -207.08241272 121.90031433 C-214.13777836 124.55959535 -216.78905416 130.79817387 -220.04882812 137.09179688 C-221.41370421 139.61884469 -222.56381931 141.67399332 -224.88671875 143.41015625 C-231.89077118 145.36507661 -240.26058765 144.52727963 -247 142 C-249.5 140.0625 -249.5 140.0625 -251 137 C-251.96783904 127.75852593 -250.29890226 118.2504431 -248.875 109.125 C-248.7538382 108.343526 -248.63267639 107.562052 -248.50784302 106.75689697 C-245.95046317 90.95052554 -240.38540882 77.89065941 -232.60888672 63.95214844 C-230.66780018 60.3904461 -228.97738304 56.73700136 -227.33813477 53.02783203 C-225.58352819 50.36887158 -223.83290558 49.43760664 -221 48 C-218.43258953 47.63085651 -218.43258953 47.63085651 -215.65324402 47.63923645 C-214.59460144 47.63511246 -213.53595886 47.63098846 -212.44523621 47.6267395 C-210.7189373 47.64291824 -210.7189373 47.64291824 -208.95776367 47.65942383 C-207.73783722 47.65898575 -206.51791077 47.65854767 -205.26101685 47.65809631 C-201.92442289 47.65982583 -198.58838867 47.67485054 -195.25189376 47.69581819 C-191.76188421 47.71459703 -188.27186686 47.71633637 -184.78181458 47.71989441 C-178.17683152 47.72921135 -171.57199778 47.75382029 -164.96708041 47.78394288 C-157.44596784 47.81749788 -149.92484807 47.83397565 -142.40367925 47.84902918 C-126.93569975 47.88037024 -111.46786915 47.93312381 -96 48 C-95.550802 46.61808472 -95.550802 46.61808472 -95.0925293 45.20825195 C-91.81018998 35.56954337 -86.80270071 26.57229917 -80 19 C-78.87271484 17.73349609 -78.87271484 17.73349609 -77.72265625 16.44140625 C-57.89961721 -4.63427348 -26.70335353 -6.44357016 0 0 Z M-120 117 C-120.0509395 124.79212637 -120.08583388 132.58420938 -120.10986328 140.37646484 C-120.11988671 143.02426763 -120.13350899 145.67205944 -120.15087891 148.31982422 C-120.17528819 152.13772296 -120.18652004 155.95547463 -120.1953125 159.7734375 C-120.20563507 160.94675629 -120.21595764 162.12007507 -120.22659302 163.32894897 C-120.33333573 175.22359401 -120.33333573 175.22359401 -116 186 C-114.68 186.33 -113.36 186.66 -112 187 C-112 163.9 -112 140.8 -112 117 C-114.64 117 -117.28 117 -120 117 Z " fill="#205122" transform="translate(251,4)"/>
<path d="M0 0 C5.65347233 2.94550659 10.1431235 6.91765174 12.19921875 13.0859375 C12.85563965 18.66551513 11.73319903 21.87531748 8.6015625 26.3515625 C5.92493722 29.66192914 3.90549857 30.87951161 -0.3515625 31.39453125 C-6.33838359 31.66187238 -10.16742779 31.24407522 -14.80078125 27.0859375 C-17.09091778 23.6507327 -16.97921098 22.1006065 -16.80078125 18.0859375 C-21.76989491 19.21290793 -21.76989491 19.21290793 -25.80078125 22.0859375 C-26.258898 24.05829083 -26.258898 24.05829083 -26.42578125 26.2109375 C-26.54953125 27.4896875 -26.67328125 28.7684375 -26.80078125 30.0859375 C-25.56328125 30.3953125 -24.32578125 30.7046875 -23.05078125 31.0234375 C-10.71598043 35.20637469 -3.33499954 44.12472906 2.35546875 55.37109375 C5.04821409 64.0352512 4.43263601 75.87374856 0.4609375 83.984375 C-8.38316849 98.7154246 -20.48467202 104.72357016 -36.80078125 109.0859375 C-41.04969783 110.1291016 -45.17339892 110.22019837 -49.5234375 110.2265625 C-51.04754079 110.24490686 -52.57162971 110.26447865 -54.09570312 110.28515625 C-56.46956528 110.31393034 -58.84250572 110.33593319 -61.21655273 110.33642578 C-73.63908258 110.3546311 -85.05759053 111.5751489 -94.59375 120.53125 C-96.4630444 122.93894958 -96.80078125 125.09088298 -96.80078125 128.0859375 C-96.47078125 128.4159375 -96.14078125 128.7459375 -95.80078125 129.0859375 C-88.21815715 129.07729239 -81.54459788 127.29468812 -74.48828125 124.7109375 C-72.63307173 124.07226947 -70.77629367 123.43813941 -68.91796875 122.80859375 C-68.03206055 122.50840332 -67.14615234 122.20821289 -66.23339844 121.89892578 C-48.19946406 115.87192844 -25.02548972 114.63810424 -7.67578125 123.2734375 C-2.12943328 126.10749509 2.43466905 129.06285799 6.19921875 134.0859375 C6.62847656 134.62089844 7.05773438 135.15585938 7.5 135.70703125 C12.22224256 142.99324056 11.24096414 153.8358167 9.609375 162.05859375 C5.93493465 172.74325672 -2.92106142 180.24502701 -12.80078125 185.0859375 C-25.51226323 191.07481044 -37.74633082 191.46222269 -51.55078125 191.3984375 C-52.86316269 191.39420776 -52.86316269 191.39420776 -54.20205688 191.38989258 C-77.42966868 191.27733692 -98.86719299 187.20295944 -121.4296875 182.0234375 C-122.15617493 181.8569722 -122.88266235 181.6905069 -123.63116455 181.51899719 C-126.80577041 180.78835792 -129.97417229 180.04313853 -133.13696289 179.26245117 C-142.38225362 177.00684707 -151.68744928 175.63491884 -161.11328125 174.3984375 C-161.94583435 174.28854492 -162.77838745 174.17865234 -163.63616943 174.06542969 C-186.97656995 171.03160831 -209.18694212 168.66361083 -229.80078125 182.0859375 C-232.98522962 184.72812588 -235.93511451 187.35460403 -237.80078125 191.0859375 C-240.36508691 190.71493157 -241.51325928 190.42588061 -243.21484375 188.4140625 C-243.61445312 187.72828125 -244.0140625 187.0425 -244.42578125 186.3359375 C-244.83054687 185.66046875 -245.2353125 184.985 -245.65234375 184.2890625 C-248.35248163 179.10920615 -249.21826636 174.74020143 -249.23828125 168.8984375 C-249.24299438 167.77211914 -249.24299438 167.77211914 -249.24780273 166.62304688 C-249.10828687 160.11137168 -247.57050064 153.85565689 -242.80078125 149.0859375 C-264.25078125 148.7559375 -285.70078125 148.4259375 -307.80078125 148.0859375 C-307.80078125 144.7859375 -307.80078125 141.4859375 -307.80078125 138.0859375 C-306.72828125 137.7353125 -305.65578125 137.3846875 -304.55078125 137.0234375 C-301.06867588 135.51804245 -299.4574406 133.70081078 -297.625 130.29296875 C-294.85949152 122.88769722 -294.49333184 116.07381049 -294.5 108.23828125 C-294.49571487 107.10878555 -294.49142975 105.97928986 -294.48701477 104.81556702 C-294.48129038 102.4311693 -294.48075721 100.04675413 -294.48510742 97.66235352 C-294.48825015 94.05909485 -294.46484309 90.45667199 -294.43945312 86.85351562 C-293.73299753 63.42614 -293.73299753 63.42614 -303.80078125 43.0859375 C-304.79078125 42.4259375 -305.78078125 41.7659375 -306.80078125 41.0859375 C-304.08188603 34.7781006 -298.22376658 31.5074058 -292.11328125 28.8359375 C-280.19898188 24.45030583 -266.01432951 23.19464422 -253.80078125 27.0859375 C-251.7151191 29.17159965 -252.63600982 33.7316834 -252.62719727 36.60961914 C-252.62051025 37.50399689 -252.61382324 38.39837463 -252.60693359 39.31985474 C-252.59284502 41.27001118 -252.58096323 43.22018448 -252.57098579 45.17036629 C-252.55461297 48.26015897 -252.53137322 51.34982813 -252.50608826 54.43955994 C-252.43523446 63.2274664 -252.37535344 72.01542544 -252.32397461 80.8034668 C-252.29209617 86.17337176 -252.25078885 91.54313868 -252.20377922 96.91293144 C-252.18780114 98.9577427 -252.17546029 101.00258583 -252.16687202 103.04744148 C-252.15465259 105.91726718 -252.13047206 108.78677179 -252.10375977 111.65649414 C-252.10317062 112.49577957 -252.10258148 113.335065 -252.10197449 114.19978333 C-252.00663249 121.97040296 -250.9671668 128.94212766 -245.80078125 135.0859375 C-244.59709121 135.81712641 -243.36569797 136.50426415 -242.11328125 137.1484375 C-238.80078125 139.0859375 -238.80078125 139.0859375 -238.09375 141.70703125 C-237.94873047 142.88458984 -237.94873047 142.88458984 -237.80078125 144.0859375 C-237.26710938 143.68761719 -236.7334375 143.28929687 -236.18359375 142.87890625 C-230.60999053 138.91566936 -225.45385714 136.61702616 -218.80078125 135.0859375 C-218.06472656 134.90289062 -217.32867188 134.71984375 -216.5703125 134.53125 C-180.16693031 128.67795583 -140.77946272 147.87698742 -108.19165039 161.62084961 C-90.21125318 169.15726641 -72.38933 174.17241578 -52.80078125 174.3984375 C-51.96289062 174.42744141 -51.125 174.45644531 -50.26171875 174.48632812 C-42.91332614 174.56026706 -37.05454701 172.62546199 -31.23828125 168.0859375 C-28.95594689 163.32280493 -29.14124012 158.27790662 -29.80078125 153.0859375 C-32.52573968 150.36097907 -34.04672374 150.75475561 -37.86328125 150.7109375 C-45.16428678 150.79364714 -51.76201906 152.24884141 -58.79296875 154.11328125 C-73.1264552 157.76613652 -92.73437881 159.13665386 -106.328125 152.71484375 C-111.51785239 149.2960186 -115.39572541 144.8338003 -117.80078125 139.0859375 C-119.31583317 130.28268847 -116.10357262 122.36844358 -111.484375 114.98046875 C-106.98858348 109.17820791 -100.02435904 104.28415779 -92.67578125 103.2109375 C-91.72703125 103.1696875 -90.77828125 103.1284375 -89.80078125 103.0859375 C-89.80078125 102.4259375 -89.80078125 101.7659375 -89.80078125 101.0859375 C-90.79078125 100.8075 -90.79078125 100.8075 -91.80078125 100.5234375 C-100.58720455 96.31327633 -106.0663519 88.82826089 -109.61328125 79.9609375 C-112.62319845 69.92788017 -111.60834888 59.3290586 -106.80078125 50.0859375 C-99.10660877 37.24837797 -85.97759558 30.47043335 -71.94873047 26.7121582 C-66.35226863 25.59885553 -60.79774529 25.73482419 -55.11328125 25.8359375 C-53.94216797 25.84109375 -52.77105469 25.84625 -51.56445312 25.8515625 C-45.56055825 25.90574316 -39.73688711 26.17832082 -33.80078125 27.0859375 C-34.13078125 26.4259375 -34.46078125 25.7659375 -34.80078125 25.0859375 C-35.62681929 18.7372451 -35.04154381 14.07884096 -31.2890625 8.8359375 C-23.25011033 -0.61668868 -11.97275112 -3.90742505 0 0 Z " fill="#FCC2DB" transform="translate(1390.80078125,59.9140625)"/>
<path d="M0 0 C4.42111499 3.56452396 7.74755094 7.68015283 9.5625 13.125 C10.26217517 23.71431459 9.84550934 31.27010478 3.25 39.6875 C-2.00237761 45.29843475 -8.49206978 48.17138135 -15.4375 51.125 C-16.20964844 51.46402344 -16.98179687 51.80304688 -17.77734375 52.15234375 C-30.45940294 57.04503837 -45.11602663 56.33314802 -58.4375 56.125 C-58.1075 64.045 -57.7775 71.965 -57.4375 80.125 C-53.9725 76.165 -53.9725 76.165 -50.4375 72.125 C-40.7925587 65.3116011 -28.93613922 63.96026715 -17.4375 65.125 C-6.46202511 67.69425889 2.46721841 73.6994326 8.5 83.3125 C13.36078657 93.55617634 13.99177363 104.82248466 13.93359375 115.9765625 C13.95096534 118.56510556 13.96854983 121.1536472 13.98632812 123.7421875 C13.99640252 127.75523868 13.99999337 131.76819161 13.99829102 135.78125 C13.99822951 139.70070484 14.02927381 143.61971811 14.05859375 147.5390625 C14.05041122 148.72376129 14.0422287 149.90846008 14.03379822 151.12905884 C14.10931507 159.67083732 14.95233442 169.72637451 21.0625 176.3125 C23.61956694 178.40353373 23.61956694 178.40353373 27.5625 179.125 C27.5625 182.425 27.5625 185.725 27.5625 189.125 C5.1225 189.125 -17.3175 189.125 -40.4375 189.125 C-40.4375 185.825 -40.4375 182.525 -40.4375 179.125 C-39.07625 178.5371875 -39.07625 178.5371875 -37.6875 177.9375 C-33.33687096 175.51118765 -31.21788686 173.46652397 -29.61825562 168.66688538 C-27.57918149 160.96556383 -26.99711522 153.81725204 -27.0390625 145.87109375 C-27.03619232 144.64898697 -27.03332214 143.42688019 -27.03036499 142.16773987 C-27.02833694 139.60213758 -27.0337779 137.03651937 -27.04638672 134.47094727 C-27.06247127 130.56946917 -27.04648653 126.66902471 -27.02734375 122.76757812 C-27.02932613 120.26041441 -27.0331697 117.75325133 -27.0390625 115.24609375 C-27.02995346 113.51751381 -27.02995346 113.51751381 -27.0206604 111.75401306 C-27.0917202 103.47600046 -27.71010719 94.53098242 -32.5625 87.5 C-35.88262673 84.75728662 -37.97692463 84.01632373 -42.2265625 83.83984375 C-45.13107719 84.2144543 -47.09235066 85.34235066 -49.16015625 87.41015625 C-56.10090208 96.72816059 -56.74695077 107.85469591 -56.73828125 119.0234375 C-56.74470894 120.86864487 -56.74470894 120.86864487 -56.75126648 122.75112915 C-56.75699159 125.34482205 -56.7575235 127.93853099 -56.75317383 130.53222656 C-56.75001592 134.48009904 -56.77349031 138.4272201 -56.79882812 142.375 C-56.80110164 144.9036449 -56.80180437 147.43229179 -56.80078125 149.9609375 C-56.81459587 151.7160817 -56.81459587 151.7160817 -56.82868958 153.50668335 C-56.78262065 161.75045038 -56.28028642 169.55329399 -51 176.1875 C-48.40879545 178.40958792 -48.40879545 178.40958792 -44.4375 179.125 C-44.4375 182.425 -44.4375 185.725 -44.4375 189.125 C-66.8775 189.125 -89.3175 189.125 -112.4375 189.125 C-112.4375 185.825 -112.4375 182.525 -112.4375 179.125 C-110.8596875 178.691875 -110.8596875 178.691875 -109.25 178.25 C-104.74509434 176.34021241 -103.38378062 173.06655961 -101.3828125 168.79296875 C-99.19038805 162.60525843 -99.27141612 156.37985378 -99.23217773 149.89697266 C-99.22227814 148.88172516 -99.21237854 147.86647766 -99.20217896 146.82046509 C-99.17068184 143.47668766 -99.14585321 140.13289604 -99.12109375 136.7890625 C-99.10051404 134.46592853 -99.0795173 132.14279822 -99.05812073 129.81967163 C-99.0030051 123.71399911 -98.95354954 117.60829339 -98.90527344 111.50256348 C-98.8549816 105.26860611 -98.79933567 99.03469679 -98.74414062 92.80078125 C-98.6366876 80.5755604 -98.53570912 68.3502986 -98.4375 56.125 C-112.9575 56.125 -127.4775 56.125 -142.4375 56.125 C-142.35185467 69.38192164 -142.2580299 82.6387171 -142.14997292 95.89547539 C-142.10011636 102.05171346 -142.0537855 108.20793525 -142.015625 114.36425781 C-141.97863767 120.31008549 -141.93224152 126.25577337 -141.87943649 132.20148087 C-141.86096386 134.46513532 -141.84582985 136.72881966 -141.83415604 138.99251938 C-141.81717117 142.17337991 -141.78810717 145.3539252 -141.75634766 148.53466797 C-141.75418747 149.46184128 -141.75202728 150.38901459 -141.74980164 151.34428406 C-141.63793179 160.16686426 -140.88126282 168.91569248 -135.4375 176.125 C-133.11865115 177.52129608 -131.0372873 178.27506954 -128.4375 179.125 C-128.4375 182.425 -128.4375 185.725 -128.4375 189.125 C-151.5375 189.125 -174.6375 189.125 -198.4375 189.125 C-198.4375 185.825 -198.4375 182.525 -198.4375 179.125 C-197.365 178.774375 -196.2925 178.42375 -195.1875 178.0625 C-191.64910053 176.52561942 -189.93701805 174.65653631 -188.20456505 171.12229061 C-185.50491858 164.09292776 -185.13577852 157.00975475 -185.11865234 149.55639648 C-185.10358391 148.03286812 -185.10358391 148.03286812 -185.08821106 146.4785614 C-185.0575396 143.15107747 -185.04038865 139.82367341 -185.0234375 136.49609375 C-185.00471295 134.17724427 -184.98513859 131.85840151 -184.9647522 129.53956604 C-184.91356105 123.45860772 -184.87386574 117.37762735 -184.83660889 111.29656982 C-184.79648748 105.08242392 -184.74543233 98.86836875 -184.6953125 92.65429688 C-184.59870739 80.47792844 -184.51425344 68.30150862 -184.4375 56.125 C-187.29763162 56.55268853 -190.15477341 56.99330976 -193.01171875 57.44140625 C-193.81315308 57.55987915 -194.6145874 57.67835205 -195.44030762 57.80041504 C-204.50980046 59.24533806 -212.65491888 62.77044584 -219.4375 69.125 C-220.92983862 71.44568211 -222.09744407 73.87143481 -223.25 76.375 C-223.56130859 77.0246875 -223.87261719 77.674375 -224.19335938 78.34375 C-224.95255446 79.93221971 -225.69660519 81.52791263 -226.4375 83.125 C-230.0675 83.125 -233.6975 83.125 -237.4375 83.125 C-236.35636129 73.45165368 -234.96397304 63.8527991 -233.375 54.25 C-233.2006543 53.18587891 -233.02630859 52.12175781 -232.84667969 51.02539062 C-232.67942383 50.02958984 -232.51216797 49.03378906 -232.33984375 48.0078125 C-232.11542603 46.66807373 -232.11542603 46.66807373 -231.88647461 45.30126953 C-231.4375 43.125 -231.4375 43.125 -230.4375 41.125 C-186.5475 41.125 -142.6575 41.125 -97.4375 41.125 C-97.4375 38.815 -97.4375 36.505 -97.4375 34.125 C-92.63083644 16.83377225 -83.06490792 4.84064453 -67.95703125 -4.390625 C-47.44879048 -15.49786144 -19.02689488 -13.38665212 0 0 Z " fill="#FDC3DB" transform="translate(264.4375,18.875)"/>
<path d="M0 0 C25.41 0 50.82 0 77 0 C77 3.3 77 6.6 77 10 C76.030625 10.474375 75.06125 10.94875 74.0625 11.4375 C71.19522563 12.70193947 71.19522563 12.70193947 70 14 C69.10896107 24.93513312 70.88818865 34.52019881 73.75 45 C74.10323019 46.34591759 74.45479592 47.69227313 74.8046875 49.0390625 C75.67475294 52.37118507 76.56726514 55.69678991 77.46704102 59.02099609 C78.00225896 61.00838808 78.52887683 62.99786681 79.05273438 64.98828125 C80.90909912 72.03252052 82.83905692 79.04241813 85 86 C86.4061496 81.88351261 87.81217504 77.76698289 89.21801758 73.65039062 C90.45828258 70.01872367 91.69907959 66.38723902 92.94018555 62.75585938 C96.02911572 53.71557381 99.11321809 44.6737189 102.18006897 35.62591553 C103.55609805 31.56651522 104.93414633 27.50780146 106.31222534 23.44909668 C106.97972636 21.48111217 107.64616736 19.5127678 108.31155396 17.54406738 C109.24284594 14.78889938 110.17768338 12.03495823 111.11328125 9.28125 C111.39181946 8.45401428 111.67035767 7.62677856 111.95733643 6.7744751 C113.88618401 1.11381599 113.88618401 1.11381599 115 0 C117.07262076 -0.08767112 119.14820294 -0.10695873 121.22265625 -0.09765625 C122.48271484 -0.09443359 123.74277344 -0.09121094 125.04101562 -0.08789062 C126.38151109 -0.07953403 127.72200588 -0.07106907 129.0625 -0.0625 C130.40689942 -0.0574866 131.7513006 -0.05292342 133.09570312 -0.04882812 C136.39717941 -0.03699488 139.69856803 -0.02050971 143 0 C146.00550598 6.45115581 148.4966203 12.98579012 150.79296875 19.71875 C151.14080414 20.72735077 151.48863953 21.73595154 151.84701538 22.77511597 C152.96401054 26.01555104 154.07579112 29.25774802 155.1875 32.5 C156.70866019 36.92005748 158.23271879 41.33911085 159.7578125 45.7578125 C160.1278389 46.83068512 160.4978653 47.90355774 160.87910461 49.00894165 C164.03949705 58.15464645 167.29011629 67.26421887 170.6628418 76.33398438 C170.98164307 77.20087891 171.30044434 78.06777344 171.62890625 78.9609375 C171.89775635 79.68071777 172.16660645 80.40049805 172.44360352 81.14208984 C173 83 173 83 173 86 C173.66 86 174.32 86 175 86 C175.25974609 84.72205566 175.51949219 83.44411133 175.78710938 82.12744141 C176.9465369 76.92258689 178.61449786 71.97746117 180.40625 66.9609375 C180.73161743 66.03584381 181.05698486 65.11075012 181.39221191 64.15762329 C182.42328006 61.22834003 183.46121766 58.30155555 184.5 55.375 C185.53768194 52.44093139 186.57385031 49.50634351 187.60778809 46.57095337 C188.2486761 44.75253183 188.89186048 42.93491743 189.53771973 41.11825562 C193.09663005 31.20840884 193.09663005 31.20840884 194.375 20.8125 C194.40335938 19.80832031 194.43171875 18.80414063 194.4609375 17.76953125 C193.87995368 14.27870474 192.74881135 13.1583627 190 11 C189.01 10.67 188.02 10.34 187 10 C187 6.7 187 3.4 187 0 C203.5 0 220 0 237 0 C237 3.3 237 6.6 237 10 C235.948125 10.4125 234.89625 10.825 233.8125 11.25 C225.10346243 15.07987797 221.17752885 21.68455782 217.65209961 30.2902832 C213.7513919 40.78291678 210.09252943 51.34885421 206.50848389 61.95355225 C205.47493753 65.01165598 204.43830603 68.06869901 203.40087891 71.12548828 C201.96978427 75.34262535 200.53969303 79.56010044 199.11035156 83.77783203 C196.17125795 92.44723077 193.21885037 101.1120773 190.26196289 109.77542114 C189.40488782 112.28740248 188.54906326 114.79980717 187.69335938 117.31225586 C184.19692944 127.56623176 180.62104533 137.78930462 177 148 C169.08 148 161.16 148 153 148 C152.40316406 146.1746875 151.80632812 144.349375 151.19140625 142.46875 C144.71191797 122.78529465 137.89300193 103.23362305 130.92797852 83.71679688 C120 53.07962673 120 53.07962673 120 50 C119.34 50 118.68 50 118 50 C117.73960937 51.27359375 117.47921875 52.5471875 117.2109375 53.859375 C116.04023543 59.12239061 114.3805855 64.1572886 112.625 69.25 C110.72185497 74.81627818 108.86576976 80.38656704 107.15478516 86.01538086 C105.0732459 92.80395633 102.88741085 99.55492731 100.671875 106.30078125 C100.27800598 107.5031694 99.88413696 108.70555756 99.47833252 109.94438171 C98.44679874 113.09271249 97.41426949 116.24071429 96.38122559 119.3885498 C95.32099847 122.62007939 94.2621116 125.85204809 93.203125 129.08398438 C91.13683839 135.38979069 89.06837029 141.69487534 87 148 C78.42 148 69.84 148 61 148 C60.29617188 145.80472656 59.59234375 143.60945312 58.8671875 141.34765625 C52.04609417 120.12939211 44.97174675 99.00814681 37.71690369 77.93455505 C35.8337406 72.45526729 33.97594642 66.96798214 32.13555908 61.47418213 C30.87722209 57.71821627 29.61262186 53.96437079 28.34783936 50.21057129 C27.74861676 48.4263624 27.15238455 46.64114595 26.55938721 44.8548584 C20.59292153 25.35264386 20.59292153 25.35264386 6 12 C4.01548229 11.28856912 2.01797888 10.61008664 0 10 C0 6.7 0 3.4 0 0 Z " fill="#FCC2DB" transform="translate(457,60)"/>
<path d="M0 0 C0.00496522 1.04029987 0.00496522 1.04029987 0.01003075 2.10161591 C0.0913345 18.9951837 0.18345102 35.88865468 0.28752708 52.78209686 C0.33759861 60.9517175 0.38404206 69.12132838 0.421875 77.29101562 C0.45486852 84.41366781 0.49474016 91.53624303 0.54279006 98.65881014 C0.56798205 102.42837454 0.58978466 106.19788836 0.60334396 109.96751404 C0.61623088 113.51994693 0.63835578 117.07220571 0.66738319 120.62454224 C0.68069084 122.54096104 0.68436761 124.45743925 0.68769836 126.37390137 C0.7727555 135.17656653 1.08677208 142.96805329 7 150 C9.27099292 151.57260155 11.51723272 152.75861636 14 154 C14 156.97 14 159.94 14 163 C-4.15 163 -22.3 163 -41 163 C-41.495 155.575 -41.495 155.575 -42 148 C-42.78375 149.19625 -43.5675 150.3925 -44.375 151.625 C-48.11019118 156.5906071 -52.47740013 159.28521507 -58 162 C-58.68707031 162.34160156 -59.37414062 162.68320313 -60.08203125 163.03515625 C-68.43847413 166.47040523 -79.91905623 166.53667687 -88.375 163.4375 C-102.65399038 156.56154322 -110.61994009 146.74303238 -116 132 C-116.350625 131.175 -116.70125 130.35 -117.0625 129.5 C-122.97309332 113.73841781 -121.58925565 93.17005134 -115.07226562 77.81396484 C-107.74062007 61.79955619 -96.81689579 48.56862476 -80 42 C-67.64390166 37.63681154 -53.24785942 36.94437252 -41 42 C-42.57095057 27.42276737 -42.57095057 27.42276737 -51 16 C-52.63377642 14.94712186 -54.29181597 13.9272999 -56 13 C-50.44017124 4.40753737 -40.75045127 1.01230519 -31.21875 -1.3125 C-20.68600445 -3.2861311 -10.29364093 -2.62573435 0 0 Z M-71 101 C-71.20871753 110.24154826 -71.14982548 118.9400212 -69 128 C-68.67 128 -68.34 128 -68 128 C-67.91303823 124.06263877 -67.85962165 120.12552372 -67.8125 116.1875 C-67.78736328 115.06794922 -67.76222656 113.94839844 -67.73632812 112.79492188 C-67.72182617 111.18520508 -67.72182617 111.18520508 -67.70703125 109.54296875 C-67.6913208 108.55321045 -67.67561035 107.56345215 -67.65942383 106.54370117 C-68.04952877 103.6300787 -68.72008288 102.77502198 -71 101 Z " fill="#FDC2DB" transform="translate(1065,45)"/>
<path d="M0 0 C0.85198975 -0.00555908 1.70397949 -0.01111816 2.58178711 -0.0168457 C7.67469082 0.04143007 11.83146106 0.86797242 16.75 2.3125 C16.75238835 2.99903593 16.75477671 3.68557186 16.75723743 4.39291191 C16.8164763 21.12865488 16.89208292 37.86423674 16.98571491 54.59982109 C17.03060424 62.69316172 17.07003458 70.78645901 17.09643555 78.87988281 C17.11947139 85.93739305 17.15293137 92.99476537 17.19870156 100.0521661 C17.22255882 103.78604788 17.24133652 107.5197937 17.24761391 111.25374985 C17.25483232 115.43091896 17.28533194 119.60761739 17.31762695 123.78466797 C17.31619186 125.01106491 17.31475677 126.23746185 17.3132782 127.50102234 C17.40456983 135.87180461 18.08292684 145.63344949 23.75 152.3125 C26.04771815 153.57701603 28.26513474 154.42169924 30.75 155.3125 C30.75 158.6125 30.75 161.9125 30.75 165.3125 C12.6 165.3125 -5.55 165.3125 -24.25 165.3125 C-24.58 160.6925 -24.91 156.0725 -25.25 151.3125 C-26.24 152.529375 -27.23 153.74625 -28.25 155 C-34.88769394 162.54404572 -42.96550893 166.77457905 -52.9921875 167.6328125 C-64.74237289 168.11964811 -74.06951208 165.90585256 -83.19140625 158.21484375 C-95.48180987 146.85729809 -101.73983387 131.76989902 -102.59765625 115.1484375 C-103.15796436 95.01030488 -99.01622812 75.72089239 -85.25 60.3125 C-84.68023438 59.65121094 -84.11046875 58.98992187 -83.5234375 58.30859375 C-74.43868515 48.45743225 -61.93264283 42.22089293 -48.5859375 40.96875 C-39.75590296 40.74937026 -31.77285725 42.10627501 -23.25 44.3125 C-23.65003682 41.78802521 -24.06939016 39.26928955 -24.5 36.75 C-24.66435547 35.69329102 -24.66435547 35.69329102 -24.83203125 34.61523438 C-25.89736604 28.53161204 -27.75373679 23.64021989 -32.390625 19.31640625 C-33.43476562 18.60291016 -33.43476562 18.60291016 -34.5 17.875 C-35.20640625 17.38128906 -35.9128125 16.88757813 -36.640625 16.37890625 C-37.17171875 16.02699219 -37.7028125 15.67507812 -38.25 15.3125 C-33.5059971 8.77346898 -28.77189086 6.08746785 -21.25 3.3125 C-20.44046875 2.99152344 -19.6309375 2.67054687 -18.796875 2.33984375 C-12.57873845 0.23780074 -6.50251147 0.03601028 0 0 Z M-53.25 103.3125 C-54.31144945 108.94345167 -54.12090349 113.89071594 -53.4375 119.5625 C-53.35435547 120.36429688 -53.27121094 121.16609375 -53.18554688 121.9921875 C-52.73629205 125.91414937 -52.50164886 127.93502671 -50.25 131.3125 C-50.22067428 128.12501971 -50.20309261 124.93757472 -50.1875 121.75 C-50.17912109 120.85474609 -50.17074219 119.95949219 -50.16210938 119.03710938 C-50.14377157 114.0308886 -50.20252578 109.22047671 -51.25 104.3125 C-51.91 103.9825 -52.57 103.6525 -53.25 103.3125 Z " fill="#FDC3DB" transform="translate(908.25,42.6875)"/>
<path d="M0 0 C1.24587891 -0.01160156 2.49175781 -0.02320312 3.77539062 -0.03515625 C19.89042245 0.01559976 35.75989536 4.8688451 47.5 16.25390625 C54.88009393 24.11063125 56.23163294 30.93732506 55.96484375 41.68359375 C54.9981281 50.55297517 50.64719484 56.12577805 43.89453125 61.69140625 C40.6128935 64.06056181 37.28579421 65.81561294 33.5625 67.375 C32.4796875 67.87 31.396875 68.365 30.28125 68.875 C15.44003993 75.18752422 -5.82847145 75.71786622 -21.4375 72.375 C-18.29204083 84.18859089 -15.38992775 93.83387561 -4.5625 100.75 C-2.87286449 101.66058201 -1.1648423 102.53815094 0.5625 103.375 C1.24828125 103.7153125 1.9340625 104.055625 2.640625 104.40625 C11.94214427 108.24046405 23.25430339 107.60528017 32.5625 104.25 C37.20788493 102.24102932 41.08866574 99.86300045 44.87890625 96.51171875 C46.5625 95.375 46.5625 95.375 50.5625 95.375 C52.30078125 96.546875 52.30078125 96.546875 53.875 98.125 C54.40738281 98.63546875 54.93976563 99.1459375 55.48828125 99.671875 C56.5625 101.375 56.5625 101.375 56.44140625 103.33984375 C53.00210193 111.30374398 43.72070273 116.24079429 36.5625 120.375 C35.90636719 120.76558594 35.25023437 121.15617187 34.57421875 121.55859375 C19.62467716 129.78564341 -1.53272049 132.52439321 -18.04614258 127.83984375 C-21.23614039 126.80779699 -24.32735306 125.6309536 -27.4375 124.375 C-28.80068359 123.85099609 -28.80068359 123.85099609 -30.19140625 123.31640625 C-44.98733387 116.83279752 -55.98424396 103.80230805 -62.33203125 89.2734375 C-62.87923828 87.83871094 -62.87923828 87.83871094 -63.4375 86.375 C-63.69644043 85.75036865 -63.95538086 85.1257373 -64.22216797 84.48217773 C-66.73232434 77.90664319 -66.97709904 71.67723856 -66.9375 64.6875 C-66.93250488 63.53572266 -66.92750977 62.38394531 -66.92236328 61.19726562 C-66.74079123 52.32653154 -65.58767977 45.32402156 -61.4375 37.375 C-60.99148438 36.48296875 -60.54546875 35.5909375 -60.0859375 34.671875 C-56.47948126 28.10369213 -51.66351544 22.70312231 -46.4375 17.375 C-45.90769531 16.82070312 -45.37789062 16.26640625 -44.83203125 15.6953125 C-41.06803282 12.11515975 -36.66040842 9.66556324 -32.125 7.1875 C-31.52091309 6.85411621 -30.91682617 6.52073242 -30.29443359 6.17724609 C-20.32654436 0.93612519 -11.19528805 -0.10392738 0 0 Z " fill="#FDC2DB" transform="translate(744.4375,83.625)"/>
<path d="M0 0 C6.89782442 6.52648966 11.28347524 13.8050519 11.58203125 23.453125 C11.45604639 32.02009544 8.09833493 38.87580305 2.2265625 45.01953125 C-13.33201394 59.39801606 -35.0307032 60.34514676 -55.11865234 59.94287109 C-59.02121611 59.77141802 -62.85632841 59.3227803 -66.73046875 58.828125 C-64.04464574 71.2206066 -59.06502018 80.24361522 -48.73046875 87.828125 C-39.85113063 93.31803835 -29.9817186 93.988553 -19.73046875 92.828125 C-11.52485142 90.67780599 -3.49757654 87.23602254 2.26953125 80.828125 C5.47997007 82.21000953 7.3188949 83.75234403 9.51953125 86.453125 C10.30070312 87.40058594 10.30070312 87.40058594 11.09765625 88.3671875 C11.484375 88.84929687 11.87109375 89.33140625 12.26953125 89.828125 C1.99755084 101.23211958 -8.95752646 108.26589282 -23.73046875 112.828125 C-25.55578125 113.4159375 -25.55578125 113.4159375 -27.41796875 114.015625 C-45.69028653 118.49751427 -64.49284164 116.24238287 -80.765625 106.80859375 C-85.56767265 103.60090184 -89.68174754 99.93240328 -93.73046875 95.828125 C-94.45105469 95.11785156 -95.17164063 94.40757812 -95.9140625 93.67578125 C-107.87732888 81.16975799 -112.3751242 64.63287509 -112.1328125 47.68115234 C-111.47611905 29.34224159 -103.14692219 14.88118752 -90.23046875 2.203125 C-66.43982638 -18.59521608 -24.84237114 -19.76016931 0 0 Z " fill="#FDC3DB" transform="translate(406.73046875,97.171875)"/>
<path d="M0 0 C9.2666371 9.48214029 11.12906662 20.34862968 11.09375 33.22265625 C11.10458618 34.38574814 11.11542236 35.54884003 11.12658691 36.74717712 C11.17211945 41.68110373 11.18390077 46.61497345 11.19873047 51.54907227 C11.21448547 55.16962008 11.24749188 58.78973862 11.28125 62.41015625 C11.27822876 63.51351822 11.27520752 64.61688019 11.27209473 65.75367737 C11.33747566 72.53138097 11.45927531 80.07781114 16.16638184 85.43226624 C17.66917255 86.84401394 17.66917255 86.84401394 19.6875 87.75 C19.6875 90.39 19.6875 93.03 19.6875 95.75 C1.8675 95.75 -15.9525 95.75 -34.3125 95.75 C-34.3125 93.11 -34.3125 90.47 -34.3125 87.75 C-33.24 87.316875 -32.1675 86.88375 -31.0625 86.4375 C-26.61126252 83.87268385 -25.68917358 80.54964481 -24.10446167 75.84234619 C-22.81932894 70.82433148 -22.76019828 65.99220661 -22.81640625 60.8359375 C-22.8142234 59.19330429 -22.8142234 59.19330429 -22.81199646 57.51748657 C-22.81364502 55.21996377 -22.82508801 52.9224287 -22.84594727 50.625 C-22.87498237 47.12712343 -22.86651641 43.63075882 -22.85351562 40.1328125 C-22.85975212 37.88801354 -22.86814237 35.64321932 -22.87890625 33.3984375 C-22.87597061 32.36383392 -22.87303497 31.32923035 -22.87001038 30.26327515 C-22.95620077 23.57094489 -23.31128736 16.43767154 -27.70924377 11.03378296 C-29.4098485 9.45210611 -29.4098485 9.45210611 -32.625 9.25 C-37.19386577 9.86950722 -39.50800856 11.22033663 -42.3125 14.75 C-50.03512085 26.93294124 -50.66970558 39.58228469 -50.62817383 53.63232422 C-50.62499425 55.87906637 -50.64863784 58.12451129 -50.67382812 60.37109375 C-50.7080547 68.04308362 -50.73957255 75.69123962 -47.3125 82.75 C-45.0109703 85.0515297 -43.18006951 86.31621525 -40.3125 87.75 C-40.3125 90.39 -40.3125 93.03 -40.3125 95.75 C-58.7925 95.75 -77.2725 95.75 -96.3125 95.75 C-96.3125 93.11 -96.3125 90.47 -96.3125 87.75 C-95.36375 87.523125 -94.415 87.29625 -93.4375 87.0625 C-90.2056231 86.07787336 -90.2056231 86.07787336 -89.0625 83.5625 C-88.815 82.634375 -88.5675 81.70625 -88.3125 80.75 C-87.97395996 79.78892334 -87.63541992 78.82784668 -87.28662109 77.83764648 C-85.7688107 72.50045645 -85.98750751 67.04274816 -85.9765625 61.53515625 C-85.9699057 60.36544785 -85.9632489 59.19573944 -85.95639038 57.99058533 C-85.94629257 55.52376878 -85.94157247 53.05692508 -85.94189453 50.59008789 C-85.93751859 46.82847936 -85.90115844 43.0680421 -85.86328125 39.30664062 C-85.85741299 36.90364982 -85.85344366 34.50065348 -85.8515625 32.09765625 C-85.83719147 30.97972183 -85.82282043 29.86178741 -85.80801392 28.7099762 C-85.8452877 22.30153905 -86.35723686 16.99612943 -90.3125 11.75 C-92.24690319 10.08492128 -94.05307475 8.98241377 -96.3125 7.75 C-95.37373434 4.47820724 -94.69266934 3.02032908 -91.87890625 1.01953125 C-80.2494029 -4.62130718 -69.18690099 -6.26092294 -56.3125 -5.25 C-53.8375 -4.26 -53.8375 -4.26 -51.3125 -3.25 C-50.8175 3.185 -50.8175 3.185 -50.3125 9.75 C-49.260625 8.265 -49.260625 8.265 -48.1875 6.75 C-45.02732606 3.03660616 -41.4366821 0.7617899 -37.25 -1.625 C-36.64849121 -1.97046875 -36.04698242 -2.3159375 -35.42724609 -2.671875 C-24.12547767 -8.8901795 -10.31000348 -7.73906114 0 0 Z " fill="#FCC2DA" transform="translate(1253.3125,90.25)"/>
<path d="M0 0 C3.94311974 1.95211648 6.35823964 4.95554623 8 9 C8.26069641 11.29173279 8.26069641 11.29173279 8.2746582 13.83764648 C8.28895622 15.27580971 8.28895622 15.27580971 8.30354309 16.74302673 C8.30263168 17.77528885 8.30172028 18.80755096 8.30078125 19.87109375 C8.30506638 20.94440445 8.3093515 22.01771515 8.31376648 23.12355042 C8.31951085 25.39901017 8.32000927 27.67448829 8.31567383 29.94995117 C8.31254014 33.39339622 8.33588049 36.8359597 8.36132812 40.27929688 C8.45691587 72.96792864 8.45691587 72.96792864 -1.55078125 83.65625 C-6.20040395 87.6251587 -9.58372499 89.62498665 -15.65625 89.41796875 C-20.02067314 88.63964662 -22.43679236 86.54513295 -25 83 C-33.82676634 65.16352915 -34.26282594 38.85911119 -28 20 C-24.73649788 11.52478388 -20.95112136 5.55827465 -13.125 0.87890625 C-8.91528599 -0.86224385 -4.45091009 -0.63768466 0 0 Z M-22 46 C-22.20871753 55.24154826 -22.14982548 63.9400212 -20 73 C-19.67 73 -19.34 73 -19 73 C-18.91303823 69.06263877 -18.85962165 65.12552372 -18.8125 61.1875 C-18.78736328 60.06794922 -18.76222656 58.94839844 -18.73632812 57.79492188 C-18.72182617 56.18520508 -18.72182617 56.18520508 -18.70703125 54.54296875 C-18.6913208 53.55321045 -18.67561035 52.56345215 -18.65942383 51.54370117 C-19.04952877 48.6300787 -19.72008288 47.77502198 -22 46 Z " fill="#215222" transform="translate(1016,100)"/>
<path d="M0 0 C2.97717272 2.05566688 4.01999756 3.59581039 5.625 6.8125 C5.9992218 9.4099884 5.9992218 9.4099884 5.99731445 12.21020508 C6.00665764 13.7925872 6.00665764 13.7925872 6.01618958 15.40693665 C6.00697983 16.53721786 5.99777008 17.66749908 5.98828125 18.83203125 C5.98902901 20.5908387 5.98902901 20.5908387 5.98979187 22.38517761 C5.98745331 24.86398005 5.97773771 27.34278495 5.96118164 29.8215332 C5.93765166 33.60064137 5.94061521 37.3790406 5.94726562 41.15820312 C5.94168636 43.57031668 5.93457493 45.98242727 5.92578125 48.39453125 C5.92714836 50.08084404 5.92714836 50.08084404 5.92854309 51.80122375 C5.87455279 57.82996973 5.38157109 63.03948552 3.625 68.8125 C3.35300781 69.71097656 3.08101562 70.60945313 2.80078125 71.53515625 C0.21681282 78.538763 -3.3312861 83.4873645 -9.875 87.25 C-14.58907684 88.31066729 -18.02955623 88.40449526 -22.5 86.4375 C-29.63958509 79.91874839 -32.04443273 70.44640484 -32.59570312 61.05102539 C-32.71838895 57.36853031 -32.74638473 53.68825579 -32.74560547 50.00390625 C-32.74995206 47.7127695 -32.78628517 45.42360668 -32.82421875 43.1328125 C-32.91850944 30.73863926 -31.85426598 16.61956313 -23.375 6.8125 C-16.38628537 -0.19195498 -9.80044511 -3.44830476 0 0 Z M-23.375 44.8125 C-24.43644945 50.44345167 -24.24590349 55.39071594 -23.5625 61.0625 C-23.47935547 61.86429688 -23.39621094 62.66609375 -23.31054688 63.4921875 C-22.86129205 67.41414937 -22.62664886 69.43502671 -20.375 72.8125 C-20.34567428 69.62501971 -20.32809261 66.43757472 -20.3125 63.25 C-20.30412109 62.35474609 -20.29574219 61.45949219 -20.28710938 60.53710938 C-20.26877157 55.5308886 -20.32752578 50.72047671 -21.375 45.8125 C-22.035 45.4825 -22.695 45.1525 -23.375 44.8125 Z " fill="#205122" transform="translate(878.375,101.1875)"/>
<path d="M0 0 C4.91048088 1.75795215 7.7244139 4.88386098 10.140625 9.32421875 C16.44167827 23.48181543 16.75920563 37.66180275 11.51953125 52.13671875 C9.46709457 56.80460468 6.99622421 60.54713429 2.953125 63.69921875 C-0.65260204 64.90112776 -3.2571185 65.0259219 -7.046875 64.69921875 C-13.81599958 60.9923172 -16.78532495 53.28799077 -18.859375 46.19921875 C-21.87874367 32.59470702 -20.89836093 19.59360962 -14.171875 7.26171875 C-10.04752289 2.28823532 -6.88839668 -1.43289168 0 0 Z " fill="#225223" transform="translate(1340.046875,95.30078125)"/>
<path d="M0 0 C5.2639909 2.98506801 9.89039766 7.73369298 11.8125 13.5 C12.63683406 22.00241698 12.30123275 28.71513277 6.8125 35.5 C1.13315557 41.57584897 -3.79153077 44.48668627 -12.1875 44.8125 C-18.84311118 44.66282359 -23.33609159 41.95805097 -28.1875 37.5 C-32.74995124 30.98221251 -32.88755436 24.27060335 -32.1875 16.5 C-30.08428168 8.986696 -24.46377427 3.41631137 -17.875 -0.4375 C-11.74690211 -2.20322312 -5.95058261 -2.59473079 0 0 Z " fill="#FCC2DA" transform="translate(1128.1875,29.5)"/>
<path d="M0 0 C3.29338785 3.64942978 4.81806546 6.18065457 5.3125 11.125 C4.74262644 18.19143219 1.60027184 24.20302586 -3.15234375 29.4296875 C-8.67810069 34.12599678 -15.77569555 37.12362461 -23 37.1328125 C-23.969375 37.13410156 -24.93875 37.13539063 -25.9375 37.13671875 C-27.4534375 37.13091797 -27.4534375 37.13091797 -29 37.125 C-30.010625 37.12886719 -31.02125 37.13273437 -32.0625 37.13671875 C-33.031875 37.13542969 -34.00125 37.13414062 -35 37.1328125 C-36.3303125 37.13112061 -36.3303125 37.13112061 -37.6875 37.12939453 C-40 37 -40 37 -43 36 C-41.52541827 22.35461682 -37.79319934 10.20870939 -27.5 0.6875 C-18.33407012 -5.49950267 -9.03469763 -7.39202534 0 0 Z " fill="#215223" transform="translate(767,105)"/>
<path d="M0 0 C4.05966637 3.31606412 5.40875108 6.99758635 6.078125 12.1015625 C5.67485609 18.81403861 3.03787356 25.08570837 -1.421875 30.1015625 C-12.02069586 39.43914581 -24.02557228 38.90677915 -37.36572266 38.48193359 C-39.421875 38.2890625 -39.421875 38.2890625 -41.421875 37.2890625 C-42.5238946 26.48927043 -37.88633713 14.87274849 -31.37109375 6.37890625 C-22.98045534 -2.6170688 -11.13130452 -6.96960058 0 0 Z " fill="#215223" transform="translate(383.421875,103.7109375)"/>
<path d="M0 0 C5.02946749 3.11943755 8.08380467 6.39177748 10.23046875 11.8984375 C11.33869605 18.36115248 9.93053814 23.53761089 6.23046875 28.8984375 C0.0563131 35.43577878 -8.93428532 37.33263376 -17.5859375 37.81640625 C-22.98218478 37.95545066 -28.37219498 37.97678593 -33.76953125 37.8984375 C-34.35004302 26.2398261 -34.18560358 14.75747011 -26.39453125 5.2734375 C-19.65638141 -2.03953081 -9.1439059 -3.63692731 0 0 Z " fill="#225223" transform="translate(239.76953125,22.1015625)"/>
</svg>
